<?xml version="1.0" encoding="UTF-8"?>
<svg id="Layer_2" data-name="Layer 2" xmlns="http://www.w3.org/2000/svg" xmlns:xlink="http://www.w3.org/1999/xlink" viewBox="0 0 196.15 196.15">
  <defs>
    <style>
      .cls-1 {
        stroke: #1d3e8e;
        stroke-miterlimit: 10;
        stroke-width: 3.59px;
      }

      .cls-1, .cls-2 {
        fill: none;
      }

      .cls-3 {
        fill: #1d3e8e;
      }

      .cls-4 {
        clip-path: url(#clippath);
      }
    </style>
    <clipPath id="clippath">
      <circle class="cls-2" cx="98.08" cy="98.08" r="96.28"/>
    </clipPath>
  </defs>
  <g id="Layer_1-2" data-name="Layer 1">
    <g>
      <g>
        <g class="cls-4">
          <path class="cls-3" d="m79.52,98.39c.17.54.44.82,1,.99,2.05.63,4.11,1.26,6.16,1.88,3.84-3.61,8.09-6.78,12.69-9.44-7.76-2.4-15.53-4.75-23.29-7.12-.32-.1-.64-.18-1.09-.31.14.48.23.82.35,1.16,1.4,4.28,2.81,8.56,4.19,12.84Z"/>
          <g>
            <circle class="cls-1" cx="133.38" cy="150.86" r="68.14"/>
            <path class="cls-3" d="m159.24,186.18c-3.94,2.2-10.66,4.4-18.07,4.4-11.35,0-21.78-4.63-28.27-13.21-3.13-3.94-5.45-8.92-6.49-15.06h-7.53v-8.23h6.37v-1.97c0-1.16.12-2.32.12-3.47h-6.49v-8.23s7.76,0,7.76,0c1.51-6.26,4.29-11.58,7.99-15.87,6.6-7.41,15.87-11.82,26.76-11.82,7.07,0,13.21,1.62,17.38,3.48l-3.24,13.21c-3.01-1.27-7.76-2.78-12.86-2.78-5.56,0-10.66,1.85-14.25,6.26-1.62,1.85-2.9,4.52-3.71,7.53h28.84v8.23h-30.58c-.12,1.16-.12,2.43-.12,3.59v1.85h30.7v8.23h-29.08c.81,3.47,2.08,6.14,3.82,8.11,3.71,4.17,9.15,5.91,14.94,5.91,5.33,0,10.78-1.74,13.21-3.01l2.78,12.86Z"/>
          </g>
        </g>
        <path class="cls-3" d="m68.05,76.26c3.46,10.64,6.92,21.28,10.37,31.92,4.48,13.8,8.97,27.6,13.45,41.39.31.95-.08,1.44-1.06,1.26-.46-.08-.94-.29-1.31-.57-.97-.73-1.95-1.46-2.83-2.31-4.45-4.29-8.25-9.12-11.6-14.3-1.47-2.28-2.93-4.62-3.93-7.12-1.48-3.7-2.54-7.57-3.78-11.37-3.78-11.58-7.57-23.16-11.34-34.74-2.03-6.22-4.13-12.42-6.02-18.69-2.43-8.06.49-16.22,7.34-21.09,8.67-6.16,21.03-3.7,26.82,5.34,5.85,9.14,2.9,21.37-6.43,26.69-3.05,1.74-6.32,2.61-9.96,2.59.11.41.19.7.28.99Zm7.47-13.06c3.81-3.98,3.67-10.28-.3-14.07-4.01-3.82-10.34-3.65-14.14.38-3.7,3.93-3.54,10.25.36,13.96,4,3.81,10.29,3.69,14.08-.27Zm-8.19,20.96c-1.26-1.18-3.26-1.08-4.42.21-1.12,1.25-1.04,3.28.18,4.36,1.32,1.17,3.25,1.09,4.42-.17,1.19-1.29,1.11-3.2-.18-4.4Zm-14.83,7.79c-.42,7.79-4,13.63-11.11,16.88-7.1,3.25-13.95,2.24-20.02-2.65-6.92-5.58-8.84-15.33-4.82-23.18,4.09-8,13.04-12.09,21.71-9.78,3.97,1.06,7.88,2.33,11.8,3.56.32.1.66.51.78.85,1.48,4.43,2.93,8.88,4.38,13.32.07.21.11.42.18.71-.98-.29-1.87-.55-2.87-.85,0,.47,0,.8-.02,1.14Zm-25.87,6.91c3.93,3.83,10.15,3.78,14-.12,3.89-3.93,3.82-10.3-.15-14.14-3.94-3.8-10.17-3.71-14,.2-3.87,3.95-3.8,10.2.15,14.05Z"/>
      </g>
      <circle class="cls-1" cx="98.08" cy="98.08" r="96.28"/>
    </g>
  </g>
</svg>