<?xml version="1.0" encoding="UTF-8"?>
<svg id="Layer_2" data-name="Layer 2" xmlns="http://www.w3.org/2000/svg" viewBox="0 0 333.59 333.59">
  <defs>
    <style>
      .cls-1 {
        stroke-width: 3.59px;
      }

      .cls-1, .cls-2 {
        fill: none;
        stroke: #1d3e8e;
        stroke-miterlimit: 10;
      }

      .cls-2 {
        stroke-width: 8.96px;
      }

      .cls-3 {
        fill: #1d3e8e;
      }
    </style>
  </defs>
  <g id="Layer_1-2" data-name="Layer 1">
    <g>
      <circle class="cls-2" cx="166.8" cy="166.8" r="162.31"/>
      <path class="cls-1" d="m250.42,101.31c-11.13-25.51-36.56-43.35-66.17-43.35-18.46,0-35.3,6.94-48.06,18.34-4.82-2.25-10.17-3.54-15.84-3.54-20.73,0-37.53,16.8-37.53,37.53,0,2.23.23,4.4.6,6.52-.2,0-.4-.03-.6-.03-23.88,0-43.2,19.58-42.76,43.57.43,23.54,20.63,41.96,44.18,41.96h54.95s0,42.45,0,42.45h-13.93c-4.1,0-6.27,4.85-3.53,7.9l41.54,46.41c1.88,2.11,5.18,2.11,7.07,0l41.54-46.41c2.73-3.05.57-7.9-3.53-7.9h-13.93v-42.45h18.86l34.24-.24c25.82-2.41,46.04-24.13,46.04-50.58s-18.72-46.46-43.13-50.18Z"/>
      <g>
        <g>
          <path class="cls-3" d="m131.02,170.06c-4.72,0-9.1-.77-13.15-2.31-4.05-1.54-7.55-3.74-10.52-6.59-2.97-2.85-5.28-6.2-6.94-10.04-1.66-3.84-2.49-8.06-2.49-12.66s.83-8.82,2.49-12.66c1.66-3.84,3.99-7.19,6.99-10.04,3-2.85,6.51-5.05,10.53-6.59,4.02-1.54,8.41-2.31,13.19-2.31,5.3,0,10.09.92,14.37,2.75,4.28,1.83,7.87,4.53,10.79,8.08l-9.08,8.38c-2.1-2.39-4.43-4.18-6.99-5.37-2.56-1.19-5.36-1.79-8.38-1.79-2.85,0-5.47.47-7.86,1.4-2.39.93-4.46,2.27-6.2,4.02-1.74,1.75-3.1,3.81-4.06,6.2-.96,2.39-1.44,5.04-1.44,7.95s.48,5.56,1.44,7.95c.96,2.39,2.32,4.46,4.06,6.2,1.75,1.75,3.81,3.09,6.2,4.02,2.39.93,5.01,1.4,7.86,1.4,3.03,0,5.82-.6,8.38-1.79,2.56-1.19,4.89-3.01,6.99-5.46l9.08,8.38c-2.91,3.55-6.51,6.26-10.79,8.12s-9.1,2.79-14.45,2.79Z"/>
          <path class="cls-3" d="m187.62,170.06c-4.83,0-9.3-.79-13.41-2.36-4.1-1.57-7.66-3.78-10.66-6.64-3-2.85-5.33-6.2-6.99-10.04-1.66-3.84-2.49-8.04-2.49-12.58s.83-8.73,2.49-12.58c1.66-3.84,4-7.19,7.03-10.04,3.03-2.85,6.58-5.07,10.66-6.64,4.07-1.57,8.5-2.36,13.28-2.36s9.27.79,13.32,2.36c4.05,1.57,7.57,3.78,10.57,6.64,3,2.85,5.34,6.19,7.03,10,1.69,3.81,2.53,8.02,2.53,12.62s-.84,8.75-2.53,12.62c-1.69,3.87-4.03,7.22-7.03,10.04-3,2.83-6.52,5.02-10.57,6.59-4.05,1.57-8.46,2.36-13.23,2.36Zm-.09-12.05c2.74,0,5.25-.47,7.55-1.4,2.3-.93,4.32-2.27,6.07-4.02,1.75-1.75,3.1-3.81,4.06-6.2.96-2.39,1.44-5.04,1.44-7.95s-.48-5.56-1.44-7.95c-.96-2.39-2.3-4.45-4.02-6.2-1.72-1.75-3.74-3.09-6.07-4.02-2.33-.93-4.86-1.4-7.6-1.4s-5.26.47-7.55,1.4c-2.3.93-4.32,2.27-6.07,4.02-1.74,1.75-3.1,3.81-4.06,6.2-.96,2.39-1.44,5.04-1.44,7.95s.48,5.49,1.44,7.9c.96,2.42,2.3,4.5,4.02,6.25,1.72,1.75,3.74,3.09,6.07,4.02,2.33.93,4.86,1.4,7.6,1.4Z"/>
        </g>
        <path class="cls-3" d="m220.79,176.22v-5.03l10.62-9.93c.76-.7,1.32-1.32,1.68-1.87.36-.54.61-1.03.73-1.48s.18-.86.18-1.24c0-.92-.3-1.64-.91-2.15-.61-.51-1.52-.77-2.74-.77-1.03,0-1.99.23-2.88.69s-1.62,1.15-2.19,2.07l-5.96-3.32c1.05-1.78,2.58-3.22,4.58-4.3,2-1.08,4.39-1.62,7.18-1.62,2.19,0,4.11.35,5.76,1.05,1.65.7,2.94,1.7,3.87,3,.93,1.3,1.4,2.82,1.4,4.58,0,.92-.12,1.83-.37,2.74-.24.91-.71,1.87-1.4,2.88-.69,1.01-1.71,2.14-3.06,3.39l-8.43,7.78-1.34-2.84h15.37v6.37h-22.1Z"/>
      </g>
    </g>
  </g>
</svg>