<?xml version="1.0" encoding="UTF-8"?>
<svg id="Layer_2" data-name="Layer 2" xmlns="http://www.w3.org/2000/svg" xmlns:xlink="http://www.w3.org/1999/xlink" viewBox="0 0 196.15 196.15">
  <defs>
    <style>
      .cls-1 {
        stroke: #1d3e8e;
        stroke-miterlimit: 10;
        stroke-width: 3.59px;
      }

      .cls-1, .cls-2 {
        fill: none;
      }

      .cls-3 {
        fill: #1d3e8e;
      }

      .cls-4 {
        clip-path: url(#clippath);
      }
    </style>
    <clipPath id="clippath">
      <circle class="cls-2" cx="98.08" cy="98.08" r="96.28"/>
    </clipPath>
  </defs>
  <g id="Layer_1-2" data-name="Layer 1">
    <g>
      <g class="cls-4">
        <g>
          <polygon class="cls-1" points="212.36 152.41 218.25 147.13 216.95 138.41 208.43 136.19 207.13 127.47 198.61 125.24 197.31 116.52 188.79 114.3 187.49 105.58 178.97 103.35 177.67 94.63 169.15 92.41 167.85 83.69 159.33 81.46 158.03 72.74 149.5 70.52 148.21 61.8 139.68 59.57 138.39 50.85 129.86 48.63 123.98 53.91 119.58 66.31 30.45 146.28 17.64 149.31 11.76 154.6 13.05 163.31 21.58 165.54 22.87 174.26 31.4 176.49 32.69 185.2 41.22 187.43 42.51 196.15 51.04 198.38 52.34 207.09 60.86 209.32 62.16 218.04 70.68 220.27 71.98 228.98 80.5 231.21 81.8 239.93 90.32 242.16 91.62 250.87 100.14 253.1 106.03 247.82 110.42 235.42 199.56 155.44 212.36 152.41"/>
          <line class="cls-1" x1="123.98" y1="53.91" x2="212.36" y2="152.41"/>
          <line class="cls-1" x1="119.58" y1="66.31" x2="199.56" y2="155.44"/>
          <line class="cls-1" x1="30.45" y1="146.28" x2="110.42" y2="235.42"/>
          <line class="cls-1" x1="17.64" y1="149.31" x2="106.03" y2="247.82"/>
        </g>
      </g>
      <circle class="cls-1" cx="98.08" cy="98.08" r="96.28"/>
      <path class="cls-3" d="m68.05,76.26c3.46,10.64,6.92,21.28,10.37,31.92,4.48,13.8,8.97,27.6,13.45,41.39.31.95-.08,1.44-1.06,1.26-.46-.08-.94-.29-1.31-.57-.97-.73-1.95-1.46-2.83-2.31-4.45-4.29-8.25-9.12-11.6-14.3-1.47-2.28-2.93-4.62-3.93-7.12-1.48-3.7-2.54-7.57-3.78-11.37-3.78-11.58-7.57-23.16-11.34-34.74-2.03-6.22-4.13-12.42-6.02-18.69-2.43-8.06.49-16.22,7.34-21.09,8.67-6.16,21.03-3.7,26.82,5.34,5.85,9.14,2.9,21.37-6.43,26.69-3.05,1.74-6.32,2.61-9.96,2.59.11.41.19.7.28.99Zm7.47-13.06c3.81-3.98,3.67-10.28-.3-14.07-4.01-3.82-10.34-3.65-14.14.38-3.7,3.93-3.54,10.25.36,13.96,4,3.81,10.29,3.69,14.08-.27Zm-8.19,20.96c-1.26-1.18-3.26-1.08-4.42.21-1.12,1.25-1.04,3.28.18,4.36,1.32,1.17,3.25,1.09,4.42-.17,1.19-1.29,1.11-3.2-.18-4.4Z"/>
      <path class="cls-3" d="m52.5,91.95c-.42,7.79-4,13.63-11.11,16.88-7.1,3.25-13.95,2.24-20.02-2.65-6.92-5.58-8.84-15.33-4.82-23.18,4.09-8,13.04-12.09,21.71-9.78,3.97,1.06,7.88,2.33,11.8,3.56.32.1.66.51.78.85,1.48,4.43,2.93,8.88,4.38,13.32.07.21.11.42.18.71-.98-.29-1.87-.55-2.87-.85,0,.47,0,.8-.02,1.14Zm-25.87,6.91c3.93,3.83,10.15,3.78,14-.12,3.89-3.93,3.82-10.3-.15-14.14-3.94-3.8-10.17-3.71-14,.2-3.87,3.95-3.8,10.2.15,14.05Z"/>
      <path class="cls-3" d="m79.52,98.39c.17.54.44.82,1,.99.55.17,1.1.34,1.65.5l11.07-9.93c-5.72-1.75-11.44-3.5-17.16-5.25-.32-.1-.64-.18-1.09-.31.14.48.23.82.35,1.16,1.4,4.28,2.81,8.56,4.19,12.84Z"/>
    </g>
  </g>
</svg>