<?xml version="1.0" encoding="UTF-8"?>
<svg id="Layer_2" data-name="Layer 2" xmlns="http://www.w3.org/2000/svg" viewBox="0 0 264.33 264.3">
  <defs>
    <style>
      .cls-1 {
        fill: #1d3e8c;
      }
    </style>
  </defs>
  <g id="Layer_1-2" data-name="Layer 1">
    <g>
      <path class="cls-1" d="m132.18,264.3C59.31,264.3.03,205.02.03,132.15S59.31,0,132.18,0s132.15,59.28,132.15,132.15-59.28,132.15-132.15,132.15Zm0-257.9C62.84,6.4,6.43,62.81,6.43,132.15s56.41,125.75,125.75,125.75,125.75-56.41,125.75-125.75S201.52,6.4,132.18,6.4Z"/>
      <g>
        <path class="cls-1" d="m94.4,53.53l.19,4.25c.92-1.48,2.14-2.63,3.67-3.45s3.22-1.23,5.07-1.23c2.06,0,3.78.5,5.17,1.5,1.06.77,1.93,1.92,2.61,3.43.42-.9.94-1.64,1.56-2.22.88-.84,1.98-1.52,3.3-2.03,1.32-.51,2.68-.77,4.07-.77,1.65,0,3.1.35,4.33,1.06s2.17,1.61,2.83,2.72c.48.81.85,2.04,1.14,3.7.19,1.09.29,2.69.29,4.81v16.08h-7.26v-15.34c0-1.99-.14-3.41-.42-4.26-.28-.85-.77-1.51-1.47-1.98-.7-.47-1.46-.7-2.28-.7-.95,0-1.87.32-2.75.96-.88.64-1.53,1.61-1.95,2.9-.42,1.29-.63,2.55-.63,3.76v14.65h-7.26v-16.71c0-1.88-.4-3.28-1.19-4.2-.79-.92-1.79-1.37-2.98-1.37-1.39,0-2.64.67-3.75,2.02s-1.66,3.45-1.66,6.3v13.97h-7.26v-20.96l-.11-4.62c-.02-.81-.06-1.57-.13-2.27h6.89Z"/>
        <path class="cls-1" d="m142.45,53.53l.19,4.25c.92-1.48,2.14-2.63,3.67-3.45s3.22-1.23,5.07-1.23c2.06,0,3.78.5,5.17,1.5,1.06.77,1.93,1.92,2.61,3.43.42-.9.94-1.64,1.56-2.22.88-.84,1.98-1.52,3.3-2.03,1.32-.51,2.68-.77,4.07-.77,1.65,0,3.1.35,4.33,1.06s2.17,1.61,2.83,2.72c.48.81.85,2.04,1.14,3.7.19,1.09.29,2.69.29,4.81v16.08h-7.26v-15.34c0-1.99-.14-3.41-.42-4.26-.28-.85-.77-1.51-1.47-1.98-.7-.47-1.46-.7-2.28-.7-.95,0-1.87.32-2.75.96-.88.64-1.53,1.61-1.95,2.9-.42,1.29-.63,2.55-.63,3.76v14.65h-7.26v-16.71c0-1.88-.4-3.28-1.19-4.2-.79-.92-1.79-1.37-2.98-1.37-1.39,0-2.64.67-3.75,2.02s-1.66,3.45-1.66,6.3v13.97h-7.26v-20.96l-.11-4.62c-.02-.81-.06-1.57-.13-2.27h6.89Z"/>
      </g>
      <g>
        <rect class="cls-1" x="53.62" y="178" width="157.12" height="6.4"/>
        <polygon class="cls-1" points="69.74 201.1 73.05 197.53 55.49 181.21 73.05 164.88 69.74 161.31 48.35 181.21 69.74 201.1"/>
        <polygon class="cls-1" points="194.62 201.1 191.3 197.53 208.87 181.21 191.3 164.88 194.62 161.31 216.01 181.21 194.62 201.1"/>
      </g>
      <rect class="cls-1" x="45.15" y="153.25" width="6.4" height="55.9"/>
      <rect class="cls-1" x="212.81" y="153.25" width="6.4" height="55.9"/>
      <polygon class="cls-1" points="191.2 147.73 174.05 126.69 156.89 147.73 139.73 126.69 122.58 147.73 105.42 126.69 88.26 147.73 71.11 126.69 53.95 147.73 36.79 126.69 19.64 147.73 0 123.65 4.96 119.6 19.64 137.61 36.79 116.56 53.95 137.61 71.11 116.56 88.26 137.61 105.42 116.56 122.58 137.61 139.73 116.56 156.89 137.61 174.05 116.56 191.2 137.61 208.36 116.56 225.52 137.61 242.67 116.56 262.31 140.65 257.35 144.69 242.67 126.69 225.52 147.73 208.36 126.69 191.2 147.73"/>
    </g>
  </g>
</svg>