<?xml version="1.0" encoding="UTF-8"?>
<svg id="Layer_2" data-name="Layer 2" xmlns="http://www.w3.org/2000/svg" viewBox="0 0 264.3 264.3">
  <defs>
    <style>
      .cls-1 {
        fill: #1d3e8c;
      }
    </style>
  </defs>
  <g id="Layer_1-2" data-name="Layer 1">
    <g>
      <path class="cls-1" d="m132.15,264.3C59.28,264.3,0,205.01,0,132.15S59.28,0,132.15,0s132.15,59.28,132.15,132.15-59.28,132.15-132.15,132.15Zm0-257.9C62.81,6.4,6.4,62.81,6.4,132.15s56.41,125.75,125.75,125.75,125.75-56.41,125.75-125.75S201.49,6.4,132.15,6.4Z"/>
      <g>
        <path class="cls-1" d="m44.94,132.15h-6.4c0-44.4,31.54-82.99,75.01-91.76l1.26,6.27c-40.49,8.16-69.87,44.11-69.87,85.48Z"/>
        <polygon class="cls-1" points="103.34 67.05 99.27 64.38 112.45 44.34 91.5 32.67 93.87 28.42 119.38 42.64 103.34 67.05"/>
      </g>
      <g>
        <path class="cls-1" d="m132.15,225.75c-44.4,0-82.99-31.54-91.76-75.01l6.27-1.26c8.16,40.49,44.11,69.87,85.48,69.87v6.4Z"/>
        <polygon class="cls-1" points="67.05 160.95 64.38 165.02 44.34 151.85 32.67 172.8 28.42 170.43 42.64 144.91 67.05 160.95"/>
      </g>
      <g>
        <path class="cls-1" d="m150.75,223.9l-1.26-6.27c40.49-8.16,69.87-44.11,69.87-85.48h6.4c0,44.4-31.54,82.99-75.01,91.76Z"/>
        <polygon class="cls-1" points="160.95 197.24 165.02 199.91 151.85 219.95 172.8 231.63 170.43 235.88 144.91 221.65 160.95 197.24"/>
      </g>
      <g>
        <path class="cls-1" d="m217.63,114.81c-8.16-40.49-44.11-69.87-85.48-69.87v-6.4c44.4,0,82.99,31.54,91.76,75.01l-6.27,1.26Z"/>
        <polygon class="cls-1" points="197.24 103.34 199.91 99.27 219.95 112.45 231.63 91.5 235.88 93.87 221.65 119.38 197.24 103.34"/>
      </g>
      <g>
        <path class="cls-1" d="m94.37,120.44l.19,4.25c.92-1.48,2.14-2.63,3.67-3.45s3.22-1.23,5.07-1.23c2.06,0,3.78.5,5.17,1.5,1.06.77,1.93,1.92,2.61,3.43.42-.9.94-1.64,1.56-2.22.88-.84,1.98-1.52,3.3-2.03,1.32-.51,2.68-.77,4.07-.77,1.65,0,3.1.35,4.33,1.06s2.17,1.61,2.83,2.72c.48.81.85,2.04,1.14,3.7.19,1.09.29,2.69.29,4.81v16.08h-7.26v-15.34c0-1.99-.14-3.41-.42-4.26-.28-.85-.77-1.51-1.47-1.98-.7-.47-1.46-.7-2.28-.7-.95,0-1.87.32-2.75.96-.88.64-1.53,1.61-1.95,2.9-.42,1.29-.63,2.55-.63,3.76v14.65h-7.26v-16.71c0-1.88-.4-3.28-1.19-4.2-.79-.92-1.79-1.37-2.98-1.37-1.39,0-2.64.67-3.75,2.02s-1.66,3.45-1.66,6.3v13.97h-7.26v-20.96l-.11-4.62c-.02-.81-.06-1.57-.13-2.27h6.89Z"/>
        <path class="cls-1" d="m142.42,120.44l.19,4.25c.92-1.48,2.14-2.63,3.67-3.45s3.22-1.23,5.07-1.23c2.06,0,3.78.5,5.17,1.5,1.06.77,1.93,1.92,2.61,3.43.42-.9.94-1.64,1.56-2.22.88-.84,1.98-1.52,3.3-2.03,1.32-.51,2.68-.77,4.07-.77,1.65,0,3.1.35,4.33,1.06s2.17,1.61,2.83,2.72c.48.81.85,2.04,1.14,3.7.19,1.09.29,2.69.29,4.81v16.08h-7.26v-15.34c0-1.99-.14-3.41-.42-4.26-.28-.85-.77-1.51-1.47-1.98-.7-.47-1.46-.7-2.28-.7-.95,0-1.87.32-2.75.96-.88.64-1.53,1.61-1.95,2.9-.42,1.29-.63,2.55-.63,3.76v14.65h-7.26v-16.71c0-1.88-.4-3.28-1.19-4.2-.79-.92-1.79-1.37-2.98-1.37-1.39,0-2.64.67-3.75,2.02s-1.66,3.45-1.66,6.3v13.97h-7.26v-20.96l-.11-4.62c-.02-.81-.06-1.57-.13-2.27h6.89Z"/>
      </g>
    </g>
  </g>
</svg>