<?xml version="1.0" encoding="UTF-8"?>
<svg id="Layer_2" data-name="Layer 2" xmlns="http://www.w3.org/2000/svg" viewBox="0 0 287.83 264.3">
  <defs>
    <style>
      .cls-1 {
        fill: #1d3e8c;
      }
    </style>
  </defs>
  <g id="Layer_1-2" data-name="Layer 1">
    <path class="cls-1" d="m264.45,200.71H60.43c-12.89,0-23.38-10.49-23.38-23.38v-90.35c0-12.89,10.49-23.38,23.38-23.38h204.02c12.89,0,23.38,10.49,23.38,23.38v90.35c0,12.89-10.49,23.38-23.38,23.38ZM60.43,69.99c-9.36,0-16.98,7.62-16.98,16.98v90.35c0,9.36,7.62,16.98,16.98,16.98h204.02c9.36,0,16.98-7.62,16.98-16.98v-90.35c0-9.36-7.62-16.98-16.98-16.98H60.43Z"/>
    <path class="cls-1" d="m132.15,264.3C59.28,264.3,0,205.01,0,132.15S59.28,0,132.15,0c23.42,0,46.44,6.21,66.55,17.96,19.52,11.4,35.9,27.72,47.37,47.2l2.84,4.82H60.43c-9.36,0-16.98,7.62-16.98,16.98v90.35c0,9.36,7.62,16.98,16.98,16.98h188.49l-2.84,4.82c-11.48,19.48-27.86,35.8-47.37,47.2-20.11,11.75-43.13,17.96-66.55,17.96Zm0-257.9C62.81,6.4,6.4,62.81,6.4,132.15s56.41,125.75,125.75,125.75c42.44,0,82.32-21.77,105.42-57.19H60.43c-12.89,0-23.38-10.49-23.38-23.38v-90.35c0-12.89,10.49-23.38,23.38-23.38h177.14C214.47,28.17,174.59,6.4,132.15,6.4Z"/>
    <path class="cls-1" d="m262.17,186.45H62.7c-5.59,0-10.13-4.55-10.13-10.13v-88.34c0-5.59,4.54-10.13,10.13-10.13h199.47c5.59,0,10.13,4.55,10.13,10.13v88.34c0,5.59-4.54,10.13-10.13,10.13ZM62.7,84.25c-2.06,0-3.73,1.67-3.73,3.73v88.34c0,2.06,1.67,3.73,3.73,3.73h199.47c2.06,0,3.73-1.67,3.73-3.73v-88.34c0-2.06-1.67-3.73-3.73-3.73H62.7Z"/>
    <g>
      <rect class="cls-1" x="123.24" y="81.23" width="6.4" height="102.2"/>
      <rect class="cls-1" x="195.24" y="81.05" width="6.4" height="102.2"/>
    </g>
    <path class="cls-1" d="m73.66,121.71c0-10,8.07-18.15,18.15-18.15s18.22,8.15,18.22,18.22v19.19c0,10.08-8.15,18.15-18.22,18.15s-18.15-8.07-18.15-18.15v-19.26Zm11.63,19.19c0,3.63,2.89,6.52,6.52,6.52s6.52-2.89,6.52-6.52v-19.04c0-3.63-2.89-6.52-6.52-6.52s-6.52,2.89-6.52,6.45v19.11Z"/>
    <path class="cls-1" d="m155.85,103.56h14.59v55.56h-14.59v-55.56Z"/>
  </g>
</svg>