<?xml version="1.0" encoding="UTF-8"?>
<svg id="Layer_2" data-name="Layer 2" xmlns="http://www.w3.org/2000/svg" xmlns:xlink="http://www.w3.org/1999/xlink" viewBox="0 0 277.22 250.44">
  <defs>
    <style>
      .cls-1 {
        fill: url(#linear-gradient-2);
      }

      .cls-2 {
        fill: url(#linear-gradient-15);
      }

      .cls-3 {
        fill: url(#linear-gradient-14);
      }

      .cls-4 {
        fill: url(#linear-gradient-6);
      }

      .cls-5 {
        fill: url(#linear-gradient-11);
      }

      .cls-6 {
        fill: #1d3e8e;
      }

      .cls-7 {
        fill: url(#linear-gradient-10);
      }

      .cls-8 {
        fill: url(#linear-gradient-16);
      }

      .cls-9 {
        fill: url(#linear-gradient-5);
      }

      .cls-10 {
        fill: #046fb4;
      }

      .cls-11 {
        fill: url(#linear-gradient-7);
      }

      .cls-12 {
        fill: url(#linear-gradient-9);
      }

      .cls-13 {
        fill: url(#linear-gradient-3);
      }

      .cls-14 {
        fill: #25a0da;
      }

      .cls-15 {
        fill: url(#linear-gradient);
      }

      .cls-16 {
        fill: #1b9cd9;
      }

      .cls-17 {
        fill: url(#linear-gradient-4);
      }

      .cls-18 {
        fill: url(#linear-gradient-8);
      }

      .cls-19 {
        fill: url(#linear-gradient-12);
      }

      .cls-20 {
        fill: url(#linear-gradient-13);
      }
    </style>
    <linearGradient id="linear-gradient" x1="84.31" y1="21.62" x2="117.72" y2="21.62" gradientUnits="userSpaceOnUse">
      <stop offset=".08" stop-color="#25a0da"/>
      <stop offset=".8" stop-color="#e4f3fa"/>
    </linearGradient>
    <linearGradient id="linear-gradient-2" x1="87.53" y1="73.13" x2="168.45" y2="73.13" gradientUnits="userSpaceOnUse">
      <stop offset=".21" stop-color="#1b9cd9"/>
      <stop offset=".44" stop-color="#89cceb"/>
      <stop offset=".51" stop-color="#89cceb"/>
      <stop offset=".74" stop-color="#1b9cd9"/>
    </linearGradient>
    <linearGradient id="linear-gradient-3" x1="59" y1="17.35" x2="82.84" y2="17.35" gradientUnits="userSpaceOnUse">
      <stop offset=".25" stop-color="#25a0da"/>
      <stop offset=".95" stop-color="#fafdfe"/>
    </linearGradient>
    <linearGradient id="linear-gradient-4" x1="37.52" y1="73.25" x2="83.6" y2="73.25" gradientUnits="userSpaceOnUse">
      <stop offset=".03" stop-color="#1b9cd9"/>
      <stop offset=".11" stop-color="#219eda"/>
      <stop offset=".21" stop-color="#32a6dc"/>
      <stop offset=".33" stop-color="#4fb3e1"/>
      <stop offset=".46" stop-color="#77c4e8"/>
      <stop offset=".51" stop-color="#89cceb"/>
      <stop offset=".53" stop-color="#7ec7e9"/>
      <stop offset=".6" stop-color="#5bb7e3"/>
      <stop offset=".67" stop-color="#3fabde"/>
      <stop offset=".74" stop-color="#2aa2db"/>
      <stop offset=".81" stop-color="#1e9dd9"/>
      <stop offset=".88" stop-color="#1b9cd9"/>
    </linearGradient>
    <linearGradient id="linear-gradient-5" x1="55.98" y1="51.23" x2="119.56" y2="51.23" gradientUnits="userSpaceOnUse">
      <stop offset=".2" stop-color="#1b9cd9"/>
      <stop offset=".29" stop-color="#55b5e2"/>
      <stop offset=".41" stop-color="#97d1ed"/>
      <stop offset=".47" stop-color="#b2ddf2"/>
      <stop offset=".51" stop-color="#7cc5e9"/>
      <stop offset=".56" stop-color="#52b3e2"/>
      <stop offset=".6" stop-color="#34a6dd"/>
      <stop offset=".63" stop-color="#219eda"/>
      <stop offset=".66" stop-color="#1b9cd9"/>
      <stop offset=".72" stop-color="#26a0da"/>
      <stop offset=".83" stop-color="#44aedf"/>
      <stop offset=".98" stop-color="#74c3e7"/>
      <stop offset="1" stop-color="#7bc6e9"/>
    </linearGradient>
    <linearGradient id="linear-gradient-6" x1="97.59" y1="43.48" x2="163.52" y2="43.48" gradientUnits="userSpaceOnUse">
      <stop offset=".07" stop-color="#1b9cd9"/>
      <stop offset=".33" stop-color="#fafdfe"/>
      <stop offset=".37" stop-color="#f1f9fc"/>
      <stop offset=".43" stop-color="#dcf0f9"/>
      <stop offset=".52" stop-color="#b8e0f3"/>
      <stop offset=".61" stop-color="#86cbea"/>
      <stop offset=".63" stop-color="#7bc6e9"/>
      <stop offset=".65" stop-color="#74c4e8"/>
      <stop offset=".69" stop-color="#61bee7"/>
      <stop offset=".73" stop-color="#43b6e5"/>
      <stop offset=".74" stop-color="#3cb4e5"/>
      <stop offset="1" stop-color="#fafdfe"/>
    </linearGradient>
    <linearGradient id="linear-gradient-7" x1="119.94" y1="34.77" x2="162.68" y2="28.77" gradientUnits="userSpaceOnUse">
      <stop offset=".05" stop-color="#d6edf8"/>
      <stop offset=".7" stop-color="#30a5dc"/>
      <stop offset="1" stop-color="#fafdfe"/>
    </linearGradient>
    <linearGradient id="linear-gradient-8" x1="119.35" y1="26.46" x2="161.41" y2="20.54" gradientUnits="userSpaceOnUse">
      <stop offset="0" stop-color="#c2e4f5"/>
      <stop offset=".09" stop-color="#b4def2"/>
      <stop offset=".25" stop-color="#8fceec"/>
      <stop offset=".47" stop-color="#55b5e2"/>
      <stop offset=".6" stop-color="#30a5dc"/>
      <stop offset=".62" stop-color="#3fabde"/>
      <stop offset=".69" stop-color="#77c4e8"/>
      <stop offset=".77" stop-color="#a6d8ef"/>
      <stop offset=".83" stop-color="#cae8f6"/>
      <stop offset=".9" stop-color="#e4f3fa"/>
      <stop offset=".96" stop-color="#f4fafd"/>
      <stop offset="1" stop-color="#fafdfe"/>
    </linearGradient>
    <linearGradient id="linear-gradient-9" x1="123.8" y1="63.9" x2="168.11" y2="63.9" gradientUnits="userSpaceOnUse">
      <stop offset=".36" stop-color="#1b9cd9"/>
      <stop offset=".42" stop-color="#229fda"/>
      <stop offset=".51" stop-color="#38a8dd"/>
      <stop offset=".62" stop-color="#5cb8e3"/>
      <stop offset=".75" stop-color="#8dcdec"/>
      <stop offset=".89" stop-color="#cce8f6"/>
      <stop offset=".91" stop-color="#d6edf8"/>
    </linearGradient>
    <linearGradient id="linear-gradient-10" x1="122.22" y1="53.6" x2="167.06" y2="53.6" gradientUnits="userSpaceOnUse">
      <stop offset=".14" stop-color="#1b9cd9"/>
      <stop offset=".91" stop-color="#d6edf8"/>
    </linearGradient>
    <linearGradient id="linear-gradient-11" x1="169.06" y1="52.42" x2="225.85" y2="52.42" gradientUnits="userSpaceOnUse">
      <stop offset=".19" stop-color="#25a0da"/>
      <stop offset=".26" stop-color="#33a6dc"/>
      <stop offset=".38" stop-color="#58b6e2"/>
      <stop offset=".54" stop-color="#94d0ec"/>
      <stop offset=".75" stop-color="#e6f4fa"/>
      <stop offset=".79" stop-color="#fafdfe"/>
    </linearGradient>
    <linearGradient id="linear-gradient-12" x1="167.38" y1="47.36" x2="222.9" y2="35.56" gradientUnits="userSpaceOnUse">
      <stop offset="0" stop-color="#d6edf8"/>
      <stop offset=".04" stop-color="#abdaf0"/>
      <stop offset=".1" stop-color="#72c1e7"/>
      <stop offset=".15" stop-color="#48afdf"/>
      <stop offset=".19" stop-color="#2ea4db"/>
      <stop offset=".21" stop-color="#25a0da"/>
      <stop offset=".38" stop-color="#25a0da"/>
      <stop offset=".54" stop-color="#6dbfe6"/>
      <stop offset=".72" stop-color="#b8e0f2"/>
      <stop offset=".86" stop-color="#e7f5fa"/>
      <stop offset=".92" stop-color="#fafdfe"/>
    </linearGradient>
    <linearGradient id="linear-gradient-13" x1="168.56" y1="48.14" x2="224.59" y2="48.14" gradientUnits="userSpaceOnUse">
      <stop offset=".31" stop-color="#25a0da"/>
      <stop offset=".37" stop-color="#32a5dc"/>
      <stop offset=".46" stop-color="#56b5e2"/>
      <stop offset=".59" stop-color="#90cfec"/>
      <stop offset=".75" stop-color="#e0f1f9"/>
      <stop offset=".8" stop-color="#fafdfe"/>
    </linearGradient>
    <linearGradient id="linear-gradient-14" x1="56.9" y1="45.12" x2="82.54" y2="45.12" gradientUnits="userSpaceOnUse">
      <stop offset="0" stop-color="#1b9cd9"/>
      <stop offset=".25" stop-color="#5db9e4"/>
      <stop offset=".77" stop-color="#1b9cd9"/>
    </linearGradient>
    <linearGradient id="linear-gradient-15" x1="84.38" y1="27.22" x2="117.32" y2="27.22" gradientUnits="userSpaceOnUse">
      <stop offset=".08" stop-color="#25a0da"/>
      <stop offset=".78" stop-color="#bde2f4"/>
      <stop offset="1" stop-color="#fafdfe"/>
    </linearGradient>
    <linearGradient id="linear-gradient-16" x1="84.31" y1="13.48" x2="116.62" y2="13.48" gradientUnits="userSpaceOnUse">
      <stop offset="0" stop-color="#25a0da"/>
      <stop offset=".03" stop-color="#2ea4db"/>
      <stop offset=".24" stop-color="#76c3e7"/>
      <stop offset=".43" stop-color="#aedcf1"/>
      <stop offset=".59" stop-color="#d7eef8"/>
      <stop offset=".72" stop-color="#f0f8fc"/>
      <stop offset=".8" stop-color="#fafdfe"/>
    </linearGradient>
  </defs>
  <g id="Layer_1-2" data-name="Layer 1">
    <g>
      <path class="cls-6" d="m76.48,202.29v1.77c-.4-.09-.76-.13-1.1-.13-.86,0-1.41.27-1.65.82-.25.55-.37,1.32-.37,2.32v.6h3.12v1.66h-3.12v9.77h-2.13v-9.77h-2.7v-1.66h2.7c0-1.05.09-1.99.26-2.8.17-.81.53-1.48,1.08-1.99.55-.52,1.33-.77,2.37-.77.48,0,1,.06,1.55.19"/>
      <path class="cls-6" d="m89.42,213.38c0,1.16-.25,2.2-.75,3.12-.5.92-1.21,1.63-2.11,2.14-.91.51-1.92.76-3.06.76s-2.12-.26-3-.77c-.89-.52-1.58-1.24-2.09-2.17-.5-.93-.76-1.95-.76-3.08,0-.89.14-1.7.43-2.44.29-.74.7-1.38,1.23-1.92.53-.55,1.16-.97,1.88-1.27.72-.3,1.5-.45,2.34-.45s1.62.14,2.35.44c.72.29,1.35.71,1.89,1.26.53.55.94,1.2,1.23,1.95.28.75.42,1.56.42,2.43m-2.26.05c0-.63-.09-1.22-.27-1.78-.18-.56-.43-1.04-.76-1.43-.32-.4-.7-.7-1.14-.91-.44-.21-.92-.32-1.44-.32-1.05,0-1.92.41-2.61,1.24-.69.82-1.04,1.87-1.04,3.13,0,.83.16,1.58.47,2.25.31.67.74,1.18,1.29,1.55.55.37,1.18.55,1.89.55s1.29-.18,1.84-.55c.55-.36.98-.87,1.3-1.53.31-.66.47-1.39.47-2.2"/>
      <path class="cls-6" d="m103.01,213.38c0,1.16-.25,2.2-.75,3.12-.5.92-1.21,1.63-2.11,2.14-.91.51-1.92.76-3.06.76s-2.12-.26-3-.77c-.89-.52-1.58-1.24-2.09-2.17-.5-.93-.76-1.95-.76-3.08,0-.89.14-1.7.43-2.44.29-.74.7-1.38,1.23-1.92.53-.55,1.16-.97,1.88-1.27.72-.3,1.5-.45,2.34-.45s1.62.14,2.35.44c.72.29,1.35.71,1.89,1.26.53.55.94,1.2,1.23,1.95.28.75.42,1.56.42,2.43m-2.26.05c0-.63-.09-1.22-.27-1.78-.18-.56-.43-1.04-.76-1.43-.32-.4-.7-.7-1.14-.91-.44-.21-.92-.32-1.44-.32-1.05,0-1.92.41-2.61,1.24-.69.82-1.04,1.87-1.04,3.13,0,.83.16,1.58.47,2.25.31.67.74,1.18,1.29,1.55.55.37,1.18.55,1.89.55s1.29-.18,1.84-.55c.55-.36.98-.87,1.3-1.53.31-.66.47-1.39.47-2.2"/>
      <path class="cls-6" d="m115.73,202.18v11.55c0,.6.02,1.49.06,2.69.04,1.2.07,2.09.1,2.66h-2.07v-1.94c-.47.71-1.02,1.24-1.66,1.58-.64.34-1.41.51-2.31.51-1,0-1.88-.24-2.65-.71-.76-.47-1.35-1.15-1.76-2.04-.41-.89-.61-1.92-.61-3.1,0-.89.12-1.7.35-2.42.23-.72.58-1.35,1.04-1.9.46-.55.99-.96,1.61-1.24.61-.28,1.29-.42,2.03-.42,1.63,0,2.9.66,3.81,1.99,0-.11,0-.27-.02-.48-.01-.21-.02-.41-.03-.61-.01-.2-.02-.36-.02-.47v-5.66h2.14Zm-5.36,7.05c-.48,0-.92.1-1.31.3-.4.2-.75.48-1.04.86-.3.37-.53.82-.69,1.34-.16.52-.24,1.07-.24,1.65,0,1.19.3,2.17.9,2.93.6.76,1.37,1.14,2.31,1.14.63,0,1.2-.18,1.7-.53.5-.35.9-.84,1.19-1.48.29-.63.43-1.32.43-2.08s-.14-1.46-.43-2.09c-.29-.63-.68-1.13-1.18-1.48-.5-.36-1.05-.54-1.65-.54"/>
      <path class="cls-6" d="m127.72,207.61l.13,2.02c.44-.72,1-1.27,1.68-1.65.68-.38,1.45-.57,2.3-.57.76,0,1.43.13,2.03.4.6.27,1.12.66,1.56,1.17.44.51.78,1.13,1.02,1.85.23.72.35,1.51.35,2.36s-.12,1.69-.35,2.45c-.23.75-.57,1.4-1.02,1.93-.44.53-.97.95-1.59,1.24-.61.29-1.3.43-2.04.43-.61,0-1.17-.08-1.68-.25-.5-.17-.94-.41-1.3-.75-.36-.33-.69-.75-.97-1.26.09.72.14,1.45.14,2.2v4.68h-2.13v-11.24c0-1.75-.05-3.42-.15-5.02h2.02Zm3.67,1.62c-.63,0-1.22.18-1.74.54-.52.36-.93.85-1.23,1.48-.29.62-.44,1.33-.44,2.1s.15,1.43.45,2.06c.3.63.7,1.12,1.21,1.47.51.36,1.08.53,1.7.53.92,0,1.69-.38,2.29-1.16.6-.77.9-1.75.9-2.93,0-.6-.07-1.16-.22-1.66-.14-.51-.35-.94-.64-1.31-.28-.37-.61-.64-.99-.83-.38-.19-.81-.29-1.29-.29"/>
      <path class="cls-6" d="m139.34,207.61h1.97l.1,2.04c.34-.72.79-1.26,1.35-1.63.55-.37,1.2-.56,1.93-.56.38,0,.77.05,1.16.15v1.95c-.37-.13-.7-.19-1.01-.19-.74,0-1.36.21-1.85.65-.49.43-.84.98-1.07,1.65-.22.67-.33,1.36-.33,2.09v5.33h-2.11v-6.99c0-1.13-.05-2.62-.15-4.48"/>
      <path class="cls-6" d="m158.82,213.38c0,1.16-.25,2.2-.75,3.12-.5.92-1.21,1.63-2.11,2.14-.91.51-1.92.76-3.06.76s-2.12-.26-3-.77c-.89-.52-1.58-1.24-2.09-2.17-.5-.93-.76-1.95-.76-3.08,0-.89.14-1.7.43-2.44.29-.74.7-1.38,1.23-1.92.53-.55,1.16-.97,1.88-1.27.72-.3,1.5-.45,2.34-.45s1.62.14,2.35.44c.72.29,1.36.71,1.89,1.26.53.55.94,1.2,1.23,1.95.28.75.42,1.56.42,2.43m-2.26.05c0-.63-.09-1.22-.27-1.78-.18-.56-.43-1.04-.76-1.43-.32-.4-.7-.7-1.14-.91-.44-.21-.92-.32-1.44-.32-1.05,0-1.92.41-2.61,1.24-.69.82-1.04,1.87-1.04,3.13,0,.83.16,1.58.47,2.25.31.67.74,1.18,1.29,1.55.55.37,1.18.55,1.89.55s1.29-.18,1.84-.55c.55-.36.98-.87,1.3-1.53.31-.66.47-1.39.47-2.2"/>
      <path class="cls-6" d="m169.01,207.93l-.14,1.88c-.58-.35-1.28-.52-2.1-.52-.73,0-1.4.17-1.99.5-.6.33-1.06.8-1.39,1.4-.33.6-.49,1.28-.49,2.05s.16,1.52.48,2.15c.32.63.77,1.13,1.35,1.48.58.35,1.24.53,2,.53.45,0,.85-.06,1.22-.17.36-.11.75-.3,1.18-.56l.17,1.96c-.44.2-.88.35-1.33.44-.45.1-.95.15-1.5.15-1.14,0-2.15-.25-3.05-.73-.89-.49-1.58-1.18-2.06-2.06-.48-.88-.73-1.91-.73-3.08s.25-2.12.75-3.02c.5-.9,1.19-1.6,2.06-2.11.88-.51,1.86-.76,2.95-.76.89,0,1.76.16,2.61.47"/>
      <path class="cls-6" d="m172.8,213.89c.15,1.14.57,2.04,1.26,2.7.68.66,1.54.99,2.57.99.61,0,1.21-.09,1.79-.26.58-.18,1.18-.45,1.8-.81v2.04c-.7.31-1.33.53-1.89.65-.57.13-1.16.19-1.79.19-.89,0-1.69-.14-2.42-.43-.72-.29-1.34-.71-1.85-1.25-.51-.54-.91-1.2-1.18-1.97-.27-.77-.41-1.61-.41-2.53,0-1.17.22-2.2.66-3.1.44-.89,1.08-1.59,1.91-2.08.83-.49,1.77-.74,2.82-.74,1.24,0,2.23.31,2.96.91.74.61,1.26,1.41,1.57,2.4.31.99.47,2.09.47,3.28h-8.26Zm.02-1.66h6.11c-.08-.62-.22-1.18-.43-1.65-.21-.48-.53-.86-.95-1.15-.42-.29-.93-.43-1.55-.43-.84,0-1.54.29-2.1.86-.56.58-.92,1.37-1.07,2.38"/>
      <path class="cls-6" d="m189.49,207.89l-.16,1.78c-.75-.37-1.52-.56-2.33-.56-.59,0-1.06.13-1.4.4-.35.26-.52.61-.52,1.04s.17.78.52,1.02c.34.24.96.58,1.84,1.02.88.44,1.55.89,2.01,1.36.46.47.69,1.09.69,1.86,0,.52-.1,1-.29,1.43-.2.43-.48.8-.85,1.11-.37.31-.83.55-1.35.71-.53.16-1.09.25-1.69.25-1.06,0-2.05-.22-2.99-.66v-1.91c.55.27,1.04.46,1.46.58.42.12.83.18,1.24.18s.8-.06,1.13-.2c.34-.13.6-.31.8-.54.19-.23.28-.49.28-.77,0-.43-.18-.78-.55-1.02-.36-.24-.98-.59-1.85-1.04-.87-.45-1.53-.91-1.98-1.38-.45-.47-.68-1.06-.68-1.79,0-.66.16-1.25.49-1.75.33-.5.8-.89,1.41-1.17.61-.27,1.31-.41,2.09-.41.85,0,1.74.16,2.68.47"/>
      <path class="cls-6" d="m198.36,207.89l-.16,1.78c-.75-.37-1.52-.56-2.33-.56-.59,0-1.06.13-1.4.4-.35.26-.52.61-.52,1.04s.17.78.52,1.02c.34.24.96.58,1.84,1.02.88.44,1.55.89,2.01,1.36.46.47.69,1.09.69,1.86,0,.52-.1,1-.29,1.43-.2.43-.48.8-.85,1.11-.38.31-.83.55-1.35.71-.53.16-1.09.25-1.69.25-1.06,0-2.05-.22-2.99-.66v-1.91c.55.27,1.04.46,1.46.58.42.12.83.18,1.24.18s.8-.06,1.13-.2c.34-.13.6-.31.8-.54.19-.23.28-.49.28-.77,0-.43-.18-.78-.55-1.02-.36-.24-.98-.59-1.85-1.04-.87-.45-1.53-.91-1.98-1.38-.45-.47-.68-1.06-.68-1.79,0-.66.16-1.25.49-1.75.33-.5.8-.89,1.41-1.17.61-.27,1.31-.41,2.09-.41.85,0,1.74.16,2.68.47"/>
      <path class="cls-6" d="m203.55,204.87h-2.33v-2.35h2.33v2.35Zm-.05,14.22h-2.14v-11.47h2.14v11.47Z"/>
      <path class="cls-6" d="m208.73,207.61l.1,1.82c.87-1.34,2.19-2.01,3.94-2.01.96,0,1.73.18,2.31.52.58.35,1.01.82,1.28,1.39.28.58.45,1.21.54,1.9.08.69.13,1.53.13,2.52v5.33h-2.11v-5.17c0-.82-.01-1.43-.04-1.8-.03-.38-.08-.71-.14-1-.16-.61-.45-1.08-.87-1.4-.42-.32-.94-.48-1.57-.48-.7,0-1.33.21-1.88.63-.55.42-.94.99-1.16,1.72-.07.21-.13.45-.17.72-.04.27-.07.57-.07.89,0,.32-.01.88-.01,1.69v4.2h-2.13v-5.66c-.01-.65-.03-1.25-.04-1.79,0-.55-.02-1.19-.04-1.94-.02-.75-.04-1.44-.08-2.08h2Z"/>
      <path class="cls-6" d="m230.3,207.58v9.51c0,1.14-.07,2.12-.2,2.95-.13.82-.4,1.54-.79,2.14-.39.6-.96,1.06-1.7,1.38-.74.32-1.71.48-2.9.48-1.44,0-2.9-.26-4.37-.77l.21-2.07c1.43.69,2.8,1.03,4.12,1.03.78,0,1.45-.15,2-.45.55-.3.96-.73,1.21-1.28.15-.29.26-.61.31-.97.05-.36.08-.77.09-1.24,0-.48.01-.83.03-1.08-.87,1.27-2.14,1.9-3.83,1.9-.99,0-1.87-.23-2.64-.71-.76-.48-1.36-1.14-1.78-2-.42-.86-.63-1.86-.63-3s.21-2.19.63-3.11c.42-.92,1.01-1.63,1.76-2.12.75-.5,1.63-.75,2.61-.75.89,0,1.69.2,2.39.6.7.4,1.19.93,1.48,1.59,0-.06.02-.11.02-.16,0-.04,0-.09,0-.13l-.02-.31v-1.43h2Zm-5.38,1.65c-.62,0-1.18.18-1.67.53-.5.36-.88.85-1.16,1.48-.28.63-.41,1.34-.41,2.14s.13,1.45.4,2.04c.27.59.65,1.05,1.13,1.38.48.33,1.03.49,1.64.49.49,0,.94-.1,1.35-.29.41-.19.77-.47,1.07-.83.3-.36.53-.78.69-1.27.16-.49.24-1.03.24-1.62,0-.75-.14-1.43-.43-2.06-.29-.62-.68-1.11-1.19-1.47-.51-.35-1.06-.53-1.67-.53"/>
      <path class="cls-16" d="m252.87,210.6c-.11,2.27-.7,4.05-1.74,5.35l2.66,3.14h-2.75l-1.25-1.48c-.62.6-1.27,1.04-1.96,1.34-.69.3-1.45.45-2.28.45-.91,0-1.78-.18-2.61-.54-.83-.36-1.5-.89-2-1.59-.5-.7-.76-1.52-.76-2.47,0-.76.15-1.42.46-1.97.31-.55.72-1.03,1.24-1.41.52-.39,1.15-.75,1.89-1.07-.5-.42-.91-.96-1.25-1.61-.34-.66-.5-1.29-.5-1.91,0-.74.19-1.38.57-1.91.38-.53.88-.93,1.49-1.2.62-.27,1.29-.41,2.02-.41.66,0,1.29.13,1.9.38.61.25,1.1.63,1.47,1.12.37.49.56,1.08.56,1.76,0,.61-.15,1.19-.45,1.72-.3.53-.69.99-1.17,1.39-.48.4-1.04.75-1.68,1.05l3.09,3.72c.32-.56.56-1.14.71-1.76.15-.62.24-1.31.28-2.08h2.1Zm-7.99,1.08c-.5.28-.92.56-1.24.82-.32.26-.59.58-.79.95-.21.37-.31.8-.31,1.28,0,.79.3,1.45.9,2,.6.55,1.3.82,2.07.82,1.05,0,2.06-.48,3.02-1.45l-3.67-4.41Zm.67-2.21c.49-.28.89-.54,1.2-.78.31-.24.58-.52.82-.86.24-.33.36-.7.36-1.1,0-.33-.09-.62-.28-.87-.18-.25-.42-.43-.72-.56-.29-.13-.6-.19-.91-.19-.5,0-.93.17-1.29.5-.36.33-.55.75-.55,1.24,0,.44.11.83.32,1.17.21.35.56.83,1.05,1.45"/>
      <path class="cls-6" d="m72.11,234.02l.13,2.02c.44-.72,1-1.27,1.68-1.65.68-.38,1.45-.57,2.3-.57.76,0,1.43.13,2.03.4.6.27,1.12.66,1.56,1.17.44.51.78,1.13,1.01,1.85.23.72.35,1.51.35,2.36s-.12,1.69-.35,2.45c-.23.75-.57,1.4-1.01,1.93-.44.53-.97.95-1.59,1.24-.61.29-1.3.43-2.04.43-.61,0-1.17-.08-1.68-.25-.5-.17-.94-.41-1.3-.75-.36-.33-.69-.75-.97-1.27.09.72.14,1.45.14,2.2v4.68h-2.13v-11.24c0-1.75-.05-3.42-.15-5.02h2.01Zm3.67,1.62c-.63,0-1.22.18-1.74.54-.52.36-.93.85-1.23,1.48-.29.62-.44,1.33-.44,2.1s.15,1.43.45,2.06c.3.63.7,1.12,1.21,1.47.51.36,1.08.53,1.7.53.92,0,1.69-.38,2.29-1.16.6-.77.9-1.75.9-2.93,0-.6-.07-1.16-.22-1.66-.14-.51-.35-.94-.64-1.31-.28-.37-.61-.64-.99-.83-.38-.19-.81-.29-1.29-.29"/>
      <path class="cls-6" d="m84.35,234.88c.63-.37,1.25-.63,1.86-.8.62-.17,1.27-.25,1.98-.25,1.08,0,1.98.21,2.71.61.73.41,1.23.99,1.52,1.74.24.62.35,1.69.35,3.19v2.24c0,.86.01,1.62.03,2.26.02.65.05,1.19.09,1.63h-1.95c-.02-.27-.02-.57-.02-.89,0-.41,0-.76.02-1.08-.44.74-.97,1.28-1.58,1.62-.61.34-1.37.51-2.27.51-.8,0-1.5-.14-2.1-.42-.61-.28-1.07-.69-1.4-1.21-.33-.53-.49-1.13-.49-1.82,0-.6.13-1.14.39-1.6.26-.46.65-.86,1.16-1.18.51-.33,1.14-.57,1.88-.73.74-.16,1.6-.24,2.57-.24.58,0,1.12.02,1.6.05-.01-.99-.26-1.71-.72-2.17-.46-.46-1.18-.7-2.14-.7-.63,0-1.2.09-1.72.26-.52.17-1.07.45-1.66.84l-.11-1.86Zm6.41,5.19c-.47-.05-.86-.07-1.16-.07-2.83,0-4.24.73-4.24,2.18,0,.35.09.66.28.93.18.27.44.48.78.63.33.15.72.23,1.14.23.79,0,1.42-.17,1.89-.52.47-.34.81-.81,1.01-1.39.2-.58.3-1.25.3-1.99"/>
      <path class="cls-6" d="m103.77,234.34l-.14,1.88c-.58-.35-1.28-.52-2.1-.52-.73,0-1.4.17-1.99.5-.6.33-1.06.8-1.39,1.4-.33.6-.49,1.28-.49,2.05s.16,1.52.48,2.15c.32.63.77,1.13,1.35,1.48.58.35,1.24.53,2,.53.45,0,.85-.06,1.22-.17.36-.11.75-.3,1.18-.56l.17,1.96c-.44.2-.88.35-1.33.44-.45.1-.95.15-1.5.15-1.14,0-2.15-.25-3.05-.73-.89-.49-1.58-1.18-2.06-2.06-.48-.88-.73-1.91-.73-3.08s.25-2.12.75-3.02c.5-.9,1.19-1.6,2.06-2.11.88-.51,1.86-.76,2.95-.76.89,0,1.76.16,2.61.47"/>
      <path class="cls-6" d="m108.3,228.59v8.1c-.05.7-.07,1.4-.07,2.11.11-.13.42-.48.96-1.05l3.72-3.72h2.89l-5.35,5.06,6.06,6.41h-3.02l-3.87-4.23c-.22-.23-.47-.54-.75-.91-.28-.37-.5-.63-.65-.77.02.18.03.47.04.86,0,.39.02.68.02.87v4.18h-2.15v-16.91h2.15Z"/>
      <path class="cls-6" d="m118.94,234.88c.63-.37,1.25-.63,1.86-.8.62-.17,1.27-.25,1.98-.25,1.08,0,1.98.21,2.71.61.73.41,1.24.99,1.52,1.74.24.62.35,1.69.35,3.19v2.24c0,.86.01,1.62.03,2.26.02.65.05,1.19.09,1.63h-1.95c-.02-.27-.02-.57-.02-.89,0-.41,0-.76.02-1.08-.44.74-.97,1.28-1.58,1.62-.61.34-1.37.51-2.27.51-.8,0-1.5-.14-2.1-.42-.61-.28-1.07-.69-1.4-1.21-.33-.53-.49-1.13-.49-1.82,0-.6.13-1.14.39-1.6.26-.46.65-.86,1.17-1.18.51-.33,1.14-.57,1.88-.73.74-.16,1.6-.24,2.57-.24.58,0,1.11.02,1.6.05-.01-.99-.26-1.71-.72-2.17-.46-.46-1.18-.7-2.14-.7-.63,0-1.2.09-1.72.26-.52.17-1.07.45-1.66.84l-.11-1.86Zm6.41,5.19c-.47-.05-.86-.07-1.16-.07-2.83,0-4.24.73-4.24,2.18,0,.35.09.66.28.93.18.27.44.48.78.63.33.15.72.23,1.14.23.79,0,1.42-.17,1.89-.52.47-.34.81-.81,1.01-1.39.2-.58.3-1.25.3-1.99"/>
      <path class="cls-6" d="m140.87,233.99v9.51c0,1.14-.07,2.12-.2,2.95-.14.82-.4,1.54-.79,2.14-.39.6-.96,1.06-1.7,1.38-.74.32-1.71.48-2.9.48-1.44,0-2.9-.26-4.37-.77l.21-2.07c1.43.69,2.8,1.03,4.12,1.03.78,0,1.45-.15,2-.45.55-.3.96-.73,1.21-1.28.15-.29.26-.61.31-.97.05-.36.08-.77.09-1.24,0-.48.01-.83.03-1.08-.87,1.27-2.14,1.9-3.83,1.9-.99,0-1.87-.23-2.64-.71-.76-.48-1.36-1.14-1.78-2-.42-.86-.63-1.86-.63-3s.21-2.19.63-3.11c.42-.92,1.01-1.63,1.76-2.12.75-.5,1.63-.75,2.61-.75.89,0,1.69.2,2.39.6.7.4,1.19.93,1.48,1.59,0-.06.01-.11.02-.16,0-.04,0-.09,0-.13l-.02-.31v-1.43h2Zm-5.38,1.65c-.62,0-1.18.18-1.67.53-.5.36-.88.85-1.16,1.48-.28.63-.41,1.34-.41,2.14s.14,1.45.41,2.04c.27.59.65,1.05,1.13,1.38.48.33,1.03.49,1.64.49.49,0,.94-.1,1.35-.29.41-.19.77-.47,1.07-.83.3-.36.53-.78.69-1.27.16-.49.24-1.03.24-1.62,0-.75-.14-1.43-.43-2.06-.29-.62-.68-1.11-1.19-1.47-.51-.35-1.06-.53-1.67-.53"/>
      <path class="cls-6" d="m146.18,231.27h-2.33v-2.35h2.33v2.35Zm-.05,14.22h-2.14v-11.47h2.14v11.47Z"/>
      <path class="cls-6" d="m151.36,234.02l.1,1.82c.87-1.34,2.19-2.02,3.94-2.02.96,0,1.73.18,2.31.53.58.35,1.01.82,1.28,1.39.28.58.45,1.21.54,1.9.08.69.13,1.53.13,2.52v5.33h-2.11v-5.17c0-.82-.01-1.43-.04-1.8-.03-.38-.08-.71-.14-1-.16-.61-.45-1.08-.87-1.4-.42-.32-.94-.48-1.57-.48-.7,0-1.33.21-1.88.63-.55.42-.94.99-1.16,1.72-.07.21-.13.45-.17.72-.04.27-.07.57-.07.89,0,.32-.01.88-.01,1.69v4.2h-2.13v-5.66c-.01-.65-.03-1.25-.04-1.79,0-.55-.02-1.19-.04-1.94-.02-.75-.04-1.44-.08-2.08h2Z"/>
      <path class="cls-6" d="m172.93,233.99v9.51c0,1.14-.07,2.12-.2,2.95-.13.82-.4,1.54-.79,2.14-.39.6-.96,1.06-1.7,1.38-.74.32-1.71.48-2.9.48-1.44,0-2.9-.26-4.37-.77l.21-2.07c1.43.69,2.8,1.03,4.12,1.03.78,0,1.45-.15,2-.45.55-.3.96-.73,1.21-1.28.15-.29.26-.61.31-.97.05-.36.08-.77.09-1.24,0-.48.01-.83.03-1.08-.87,1.27-2.14,1.9-3.83,1.9-.99,0-1.87-.23-2.64-.71-.76-.48-1.36-1.14-1.78-2-.42-.86-.63-1.86-.63-3s.21-2.19.63-3.11c.42-.92,1.01-1.63,1.76-2.12.75-.5,1.63-.75,2.61-.75.89,0,1.69.2,2.39.6.7.4,1.19.93,1.48,1.59,0-.06.01-.11.02-.16,0-.04,0-.09,0-.13l-.02-.31v-1.43h2Zm-5.38,1.65c-.62,0-1.18.18-1.67.53-.5.36-.88.85-1.16,1.48-.28.63-.41,1.34-.41,2.14s.13,1.45.41,2.04c.27.59.65,1.05,1.13,1.38.48.33,1.03.49,1.64.49.49,0,.94-.1,1.35-.29.41-.19.77-.47,1.07-.83.3-.36.53-.78.69-1.27.16-.49.24-1.03.24-1.62,0-.75-.14-1.43-.43-2.06-.29-.62-.68-1.11-1.19-1.47-.51-.35-1.06-.53-1.67-.53"/>
      <path class="cls-6" d="m188.43,234.29l-.16,1.78c-.75-.37-1.52-.56-2.33-.56-.59,0-1.06.13-1.4.4-.35.26-.52.61-.52,1.04s.17.78.52,1.02c.34.24.96.58,1.84,1.02.88.44,1.55.89,2.01,1.36.46.47.69,1.09.69,1.86,0,.52-.1,1-.29,1.43-.2.43-.48.8-.85,1.11-.38.31-.83.55-1.35.71-.53.16-1.09.25-1.69.25-1.06,0-2.05-.22-2.99-.66v-1.91c.55.27,1.04.46,1.46.58.42.12.83.18,1.24.18s.8-.06,1.13-.2c.34-.13.6-.31.8-.54.19-.23.29-.49.29-.77,0-.43-.18-.78-.55-1.02-.36-.24-.98-.59-1.85-1.04-.87-.45-1.53-.91-1.98-1.38-.45-.47-.68-1.06-.68-1.79,0-.66.16-1.25.49-1.75.33-.5.8-.89,1.41-1.17.61-.27,1.31-.41,2.09-.41.85,0,1.74.16,2.68.47"/>
      <path class="cls-6" d="m202.5,239.78c0,1.16-.25,2.2-.75,3.12-.5.92-1.21,1.63-2.11,2.14-.91.51-1.92.76-3.06.76s-2.12-.26-3-.77c-.89-.52-1.58-1.24-2.09-2.17-.5-.93-.76-1.95-.76-3.08,0-.89.14-1.7.43-2.44.29-.74.7-1.38,1.23-1.92.53-.55,1.16-.97,1.88-1.27.72-.3,1.5-.45,2.34-.45s1.62.14,2.35.44c.72.29,1.36.71,1.89,1.26.53.55.94,1.2,1.23,1.95.28.75.42,1.56.42,2.43m-2.26.05c0-.63-.09-1.22-.27-1.78-.18-.56-.43-1.04-.76-1.43-.32-.4-.7-.7-1.14-.91-.44-.21-.92-.32-1.44-.32-1.05,0-1.92.41-2.61,1.24-.69.82-1.04,1.87-1.04,3.13,0,.83.16,1.58.47,2.25.31.67.74,1.18,1.29,1.55.55.37,1.18.55,1.89.55s1.29-.18,1.84-.55c.55-.36.98-.87,1.3-1.53.31-.66.47-1.39.47-2.2"/>
      <rect class="cls-6" x="205.02" y="228.59" width="2.15" height="16.9"/>
      <path class="cls-6" d="m220.29,234.04v7.22c0,.62.05,2.04.16,4.23h-1.98l-.09-1.79c-.47.65-1.02,1.14-1.67,1.46-.65.33-1.38.49-2.2.49-1.59,0-2.7-.5-3.32-1.49-.62-.99-.93-2.34-.93-4.04v-6.07h2.13v5.32c0,.42,0,.86.03,1.31.02.45.05.8.09,1.05.04.25.09.49.17.7.21.5.5.89.89,1.15.38.26.84.4,1.37.4.49,0,.93-.1,1.33-.29.4-.19.74-.48,1.02-.84.28-.37.5-.81.65-1.32.16-.51.23-1.07.23-1.68v-5.79h2.13Z"/>
      <path class="cls-6" d="m226.77,230.71v3.36h3.05v1.66h-3.05v4.5c0,1.03.05,1.78.14,2.25.07.41.26.74.57.98.31.24.7.36,1.19.36.44,0,.9-.12,1.38-.35v1.84c-.67.21-1.33.32-1.97.32-1,0-1.75-.2-2.25-.61-.51-.41-.83-.94-.97-1.59-.14-.66-.21-1.51-.21-2.55v-5.15h-2.63v-1.66h2.63v-2.64l2.13-.72Z"/>
      <path class="cls-6" d="m234.49,231.27h-2.33v-2.35h2.33v2.35Zm-.04,14.22h-2.14v-11.47h2.14v11.47Z"/>
      <path class="cls-6" d="m248.74,239.78c0,1.16-.25,2.2-.75,3.12-.5.92-1.21,1.63-2.11,2.14-.91.51-1.92.76-3.06.76s-2.12-.26-3-.77c-.89-.52-1.58-1.24-2.09-2.17-.5-.93-.76-1.95-.76-3.08,0-.89.14-1.7.43-2.44.29-.74.7-1.38,1.23-1.92.53-.55,1.16-.97,1.88-1.27.72-.3,1.5-.45,2.34-.45s1.62.14,2.35.44c.72.29,1.35.71,1.89,1.26.53.55.94,1.2,1.23,1.95.28.75.42,1.56.42,2.43m-2.26.05c0-.63-.09-1.22-.27-1.78-.18-.56-.43-1.04-.76-1.43-.32-.4-.7-.7-1.14-.91-.44-.21-.92-.32-1.44-.32-1.05,0-1.92.41-2.61,1.24-.69.82-1.04,1.87-1.04,3.13,0,.83.16,1.58.47,2.25.31.67.74,1.18,1.29,1.55.55.37,1.18.55,1.89.55s1.29-.18,1.84-.55c.55-.36.98-.87,1.3-1.53.31-.66.47-1.39.47-2.2"/>
      <path class="cls-6" d="m253.26,234.02l.1,1.82c.87-1.34,2.19-2.02,3.94-2.02.96,0,1.73.18,2.31.53.58.35,1.01.82,1.28,1.39.28.58.45,1.21.54,1.9.08.69.13,1.53.13,2.52v5.33h-2.11v-5.17c0-.82-.01-1.43-.04-1.8-.03-.38-.08-.71-.14-1-.16-.61-.45-1.08-.87-1.4-.42-.32-.94-.48-1.57-.48-.7,0-1.33.21-1.88.63-.55.42-.94.99-1.16,1.72-.07.21-.13.45-.17.72-.04.27-.07.57-.07.89,0,.32-.01.88-.01,1.69v4.2h-2.13v-5.66c-.02-.65-.03-1.25-.04-1.79,0-.55-.02-1.19-.04-1.94-.02-.75-.04-1.44-.08-2.08h2Z"/>
      <path class="cls-6" d="m270.54,234.29l-.16,1.78c-.75-.37-1.52-.56-2.33-.56-.59,0-1.06.13-1.4.4-.35.26-.52.61-.52,1.04s.17.78.52,1.02c.34.24.96.58,1.84,1.02.88.44,1.55.89,2.01,1.36.46.47.69,1.09.69,1.86,0,.52-.1,1-.29,1.43-.2.43-.48.8-.85,1.11-.37.31-.83.55-1.35.71-.53.16-1.09.25-1.69.25-1.06,0-2.05-.22-2.99-.66v-1.91c.55.27,1.04.46,1.46.58.42.12.83.18,1.24.18s.8-.06,1.14-.2c.34-.13.6-.31.8-.54.19-.23.28-.49.28-.77,0-.43-.18-.78-.55-1.02-.36-.24-.98-.59-1.85-1.04-.87-.45-1.53-.91-1.98-1.38-.45-.47-.68-1.06-.68-1.79,0-.66.16-1.25.49-1.75.33-.5.8-.89,1.41-1.17.61-.27,1.31-.41,2.09-.41.85,0,1.74.16,2.68.47"/>
      <g>
        <path class="cls-6" d="m146.05,117.69c5.02-8.48,13.96-13.15,25.21-13.15,20.5,0,27.8,15.46,27.8,29.94v46.71h-25.32v-36.26c0-12.52-3.72-18.6-11.38-18.6-10.5,0-15.4,7.37-15.4,23.18v31.67h-25.32v-74.94h23.1v13.66l1.29-2.22Z"/>
        <path class="cls-16" d="m253.37,134.41c-.11-6.71-4.97-12.36-16.2-12.36-6.27,0-15.42.96-23.39,5.57,0,0-.17.09-.24.15v-17.86s.1-.04.1-.04c8.65-3.64,17.86-5.32,28.96-5.32,22,0,34.62,11.33,34.62,31.09v45.56h-22.41v-8.35s-6.23,10.08-23.03,10.08c-12.58,0-27.26-6.19-27.26-23.65,0-24.5,27.69-25.18,36.8-25.4l12.06.55Zm-9.82,11.45c-6.8.17-15.38,2.72-15.2,12.02.1,4.75,4.12,7.81,10.27,7.81,11.69,0,14.84-10.78,14.84-14.75v-4.26s-3.1-.97-9.9-.81Z"/>
        <path class="cls-6" d="m105.39,165.41c-7.16,0-9.82-3.64-9.82-13.45v-27.34h17.5v-18.38h-17.5v-13.83c-10.16,2.33-18.5,4.52-25.33,6.5v55.9c0,16.86,4.74,28.09,27.94,28.09,4.95,0,8.89-.53,12.74-1.04,0,0,1.52-.21,2.28-.31v-17.2c-.69.12-1.54.28-1.56.3l-6.25.75Z"/>
      </g>
      <g>
        <path class="cls-10" d="m26.1,96.18c2.75-2.2,5.75-4.39,9.01-6.57.36-4.57.96-9.09,1.81-13.58-3.02,2.89-5.83,5.85-8.36,8.91-.14.45-.29.91-.42,1.36-.91,3.26-1.58,6.55-2.05,9.87Z"/>
        <path class="cls-10" d="m23.79,98.08c.34-3.01.86-6,1.55-8.97-3.54,4.88-6.35,9.97-8.24,15.26,2-2.1,4.23-4.21,6.69-6.29Z"/>
        <path class="cls-10" d="m12.85,112.8c-2.9,4.18-4.92,8.47-5.88,12.87,1.58-1.58,3.37-3.15,5.36-4.73-.06-2.72.11-5.44.52-8.14Z"/>
        <path class="cls-10" d="m37.69,72.34c.74-3.35,1.6-6.66,2.61-9.95.32-1.02.65-2.03.99-3.03-4.44,6.3-8.19,13.04-10.92,20.22,2.24-2.43,4.67-4.84,7.32-7.23Z"/>
        <path class="cls-10" d="m14.37,119.37c2.74-2.02,5.81-4.05,9.22-6.08-.34-4.09-.36-8.14-.08-12.16-2.96,2.61-5.6,5.29-7.86,8.01-.19.79-.38,1.57-.52,2.37-.5,2.61-.74,5.24-.76,7.87Z"/>
        <path class="cls-10" d="m34.92,92.34c-3.29,2.24-6.36,4.54-9.19,6.88-.42,4.27-.47,8.57-.16,12.93,2.89-1.65,6-3.3,9.35-4.95-.28-5-.29-9.96,0-14.85Z"/>
      </g>
      <g>
        <path class="cls-6" d="m57.61,180.74c-13.15-24.43-20.9-48.58-22.54-71.32-3.29,1.63-6.4,3.29-9.31,4.97,1.49,21.94,11.42,44.91,31.85,66.35Z"/>
        <path class="cls-6" d="m4.28,131.86c-2.46,3.42-3.93,6.92-4.23,10.47-1.14,13.64,15.46,27.15,49.37,40.26-29.83-16.73-44.98-33.75-45.14-50.73Z"/>
        <path class="cls-6" d="m52.26,181.88c-25.04-19.69-38.3-39.28-39.8-58.46-2.3,1.9-4.31,3.81-6.02,5.75-1.57,17.43,13.76,35.12,45.82,52.71Z"/>
        <path class="cls-6" d="m55.25,181.26c-23.55-27.69-29.06-44.31-31.43-65.74-3.45,2.07-6.61,4.18-9.4,6.33.91,19.74,13.83,38.88,40.83,59.41Z"/>
      </g>
      <path class="cls-15" d="m84.34,19.55c-.08,7.24-.02,14.64.19,22.13,6.28-3.16,12.96-6.29,20.04-9.37,4.41-1.92,8.8-3.74,13.14-5.48-.61-8.57-1.06-17.02-1.39-25.27-5.36,2.58-10.98,5.47-16.68,8.67-4.92,2.76-10.09,5.87-15.3,9.31Z"/>
      <path class="cls-14" d="m164.21,38.8c-1.34-8.32-2.58-16.62-3.73-24.87-11.41,3.55-25.6,8.33-40.57,14.25.56,7.62,1.25,15.32,2.08,23.06,14.45-4.69,28.85-8.86,42.22-12.44Z"/>
      <path class="cls-14" d="m82.37,18.44c.08-6.29.24-12.46.47-18.44-7.91,7.59-15.81,16.47-22.77,26.61-.47,3.34-.93,6.73-1.34,10.16,7.52-6.88,15.62-13,23.63-18.34Z"/>
      <path class="cls-16" d="m40.32,70.02c4.27-3.67,9.05-7.29,14.28-10.88.37-5.71.88-11.41,1.49-17.03-3.74,3.67-7.29,7.54-10.56,11.61-1.2,3.02-2.3,6.11-3.28,9.28-.72,2.32-1.36,4.66-1.94,7.01Z"/>
      <path class="cls-16" d="m56.44,38.92c.33-2.83.68-5.64,1.05-8.41-6.06,8.89-9.53,17.22-9.53,17.22,2.61-2.93,5.65-6.11,8.48-8.81Z"/>
      <path class="cls-16" d="m85.91,66.47c.54,6.78,1.22,13.56,2.09,20.3,10.78-3.4,22.52-6.78,35.22-10.15-1.15-7.5-2.13-15.05-2.97-22.58-11.59,3.81-23.2,7.96-34.33,12.43Z"/>
      <path class="cls-16" d="m55.91,80c0,6.02.21,11.96.65,17.74,8.83-3.45,18.65-6.91,29.46-10.35-.86-6.68-1.56-13.4-2.1-20.12-9.84,4-19.29,8.25-28.01,12.73Z"/>
      <path class="cls-14" d="m170.85,65.1c22.45-4.97,42.36-8.81,55.93-11.28-1.97-8.82-3.84-17.68-5.63-26.51-11.3,2.37-31.27,6.81-54.62,13.04,1.35,8.25,2.78,16.52,4.32,24.75Z"/>
      <path class="cls-16" d="m122.22,53.41c.84,7.56,1.83,15.15,2.98,22.7,14.87-3.92,29.72-7.46,43.66-10.57-1.53-8.19-2.97-16.43-4.31-24.65-13.39,3.6-27.82,7.78-42.33,12.52Z"/>
      <path class="cls-16" d="m82.35,20.92c-8.17,5.51-16.4,11.85-23.98,18.99-.66,5.87-1.23,11.83-1.64,17.8,7.64-5.09,16.27-10.09,25.86-15-.22-7.37-.3-14.65-.25-21.78Z"/>
      <path class="cls-16" d="m56.55,60.44c-.36,5.73-.58,11.46-.63,17.13,8.29-4.22,17.57-8.4,27.83-12.54-.5-6.71-.86-13.39-1.09-20.02-8.94,4.65-17.84,9.8-26.12,15.44Z"/>
      <path class="cls-16" d="m53.89,81.07c-6.02,3.16-11.67,6.44-16.81,9.83-.35,5.06-.41,10.17-.15,15.32,5.34-2.56,11.23-5.12,17.66-7.68-.45-5.7-.68-11.54-.7-17.47Z"/>
      <path class="cls-16" d="m39.48,73.68c-1.02,4.78-1.75,9.62-2.19,14.5,4.97-3.21,10.51-6.39,16.6-9.56.02-5.53.21-11.12.54-16.72-5.33,3.73-10.36,7.66-14.95,11.78Z"/>
      <path class="cls-16" d="m84.67,43.97c.21,6.7.56,13.48,1.06,20.25,10.43-4.15,21.86-8.27,34.27-12.33-.84-7.69-1.53-15.34-2.1-22.92-4.12,1.66-8.3,3.4-12.5,5.23-6.73,2.92-13.74,6.19-20.74,9.77Z"/>
      <path class="cls-1" d="m122.63,72.66c.09.63.18,1.25.28,1.88-13.05,3.55-24.7,6.94-35.15,10.25-.08-.62-.15-1.24-.23-1.86,10.44-3.33,22.08-6.73,35.1-10.27Zm5.79-1.56c-1.28.34-2.55.68-3.81,1.02.09.63.18,1.25.28,1.88,1.17-.32,2.34-.63,3.53-.95,11-2.94,25.29-6.37,40.03-9.69-.12-.62-.23-1.25-.34-1.87-14.62,3.3-28.77,6.7-39.69,9.62Z"/>
      <path class="cls-13" d="m82.84,0c-7.91,7.59-15.81,16.47-22.77,26.61-.38,2.66-.73,5.36-1.08,8.08,6.44-6.13,18-14.94,23.4-18.39.08-5.55.24-11.01.44-16.31Z"/>
      <path class="cls-17" d="m37.52,85.97c.07-.63.13-1.26.21-1.89,3.62-2.32,9.14-5.67,16.2-9.49-.01.7-.02,1.39-.02,2.08-7.19,3.75-12.78,7.01-16.39,9.3Zm18.46-12.48c-.02.71-.02,1.42-.03,2.13,7.71-3.95,17.08-8.37,27.65-12.72-.06-.79-.11-1.58-.16-2.37-10.49,4.35-19.79,8.88-27.45,12.96Z"/>
      <path class="cls-9" d="m82.66,45c.18,5.15.43,10.33.78,15.53-10.49,4.35-19.79,8.88-27.45,12.96.1-4.33.29-8.69.56-13.05,8.27-5.64,17.18-10.8,26.12-15.44Zm22.75-10.8c-6.73,2.92-13.74,6.19-20.74,9.77.17,5.21.42,10.47.75,15.74.5-.2,1-.4,1.5-.61,9.55-3.82,21.02-7.8,32.63-11.55-.64-6.23-1.18-12.43-1.64-18.59-4.12,1.66-8.3,3.4-12.5,5.23Z"/>
      <path class="cls-4" d="m121.29,44.4c15.19-4.87,30.45-9.31,41.84-12.45.13.83.26,1.66.39,2.49-11.36,3.13-26.7,7.59-41.98,12.48-.08-.84-.17-1.68-.25-2.52Zm-1.99.64c-7.46,2.41-14.86,4.92-21.72,7.41l.11,2.56c6.91-2.51,14.35-5.03,21.86-7.45-.09-.84-.17-1.68-.25-2.52Z"/>
      <path class="cls-11" d="m163.13,31.95c-.66-4.27-1.3-8.54-1.91-12.79-11.49,3.33-26.02,8.19-40.94,13.91.3,3.76.64,7.54,1.01,11.33,15.19-4.87,30.45-9.31,41.84-12.45Z"/>
      <path class="cls-18" d="m160.48,13.93c-11.41,3.55-25.6,8.33-40.57,14.25.12,1.63.25,3.26.38,4.89,14.91-5.72,29.45-10.58,40.94-13.91-.25-1.74-.5-3.49-.74-5.23Z"/>
      <path class="cls-12" d="m128.42,65.06c-1.56.42-3.09.83-4.62,1.25.26,1.94.53,3.87.81,5.8,1.26-.34,2.53-.68,3.81-1.02,10.92-2.91,25.07-6.32,39.69-9.62-.35-1.93-.7-3.86-1.04-5.79-14.25,3.23-27.99,6.54-38.65,9.38Z"/>
      <path class="cls-7" d="m167.06,55.68c-.87-4.93-1.72-9.86-2.52-14.79-13.39,3.6-27.82,7.78-42.33,12.52.48,4.3,1.01,8.6,1.58,12.9,1.52-.42,3.06-.83,4.62-1.25,10.66-2.84,24.4-6.15,38.65-9.38Z"/>
      <path class="cls-5" d="m169.06,55.23c.34,1.93.69,3.87,1.04,5.8,20.39-4.58,41.46-8.91,55.75-11.4-.43-1.94-.85-3.87-1.26-5.81-14.51,2.57-35.41,6.89-55.53,11.42Z"/>
      <path class="cls-19" d="m221.14,27.32c-11.3,2.37-31.27,6.81-54.62,13.04.81,4.96,1.65,9.92,2.53,14.87,20.12-4.53,41.02-8.85,55.53-11.42-1.18-5.5-2.33-11-3.45-16.5Z"/>
      <path class="cls-20" d="m224.59,43.83c-.2-.93-.4-1.86-.6-2.8-14.6,2.6-35.42,6.91-55.43,11.42.16.93.33,1.86.49,2.79,20.12-4.53,41.02-8.85,55.53-11.42Z"/>
      <path class="cls-3" d="m57.32,50.29c-.15,1.71-.29,3.42-.42,5.13,6.45-4.34,14.62-9.27,25.63-15-.05-1.88-.09-3.75-.12-5.61-10.6,6.05-18.71,11.13-25.09,15.48Z"/>
      <path class="cls-14" d="m84.54,41.68c6.28-3.16,12.96-6.29,20.04-9.37,4.41-1.92,8.8-3.74,13.14-5.48-.05-.72-.1-1.44-.15-2.16-6.24,2.45-17.95,6.97-33.09,14.73.02.76.03,1.51.05,2.27Z"/>
      <path class="cls-2" d="m84.41,36.09c13.67-7.36,25.42-12.45,32.92-15.09-.06-.88-.11-1.76-.16-2.64-7.49,2.64-19.3,7.76-32.79,15.34.01.8.02,1.59.03,2.38Z"/>
      <path class="cls-8" d="m116.32,1.57c-5.36,2.58-10.98,5.47-16.68,8.67-4.92,2.76-10.09,5.87-15.3,9.31-.02,1.94-.03,3.89-.03,5.85,12.32-7.5,24.12-13.59,32.31-17.03-.11-2.28-.21-4.55-.3-6.81Z"/>
    </g>
  </g>
</svg>