<?xml version="1.0" encoding="UTF-8"?>
<svg id="Layer_2" data-name="Layer 2" xmlns="http://www.w3.org/2000/svg" viewBox="0 0 95.68 100.16">
  <defs>
    <style>
      .cls-1 {
        fill: #009ce0;
      }
    </style>
  </defs>
  <g id="Layer_1-2" data-name="Layer 1">
    <g>
      <path class="cls-1" d="m8.94,8.9c-2.1,1.91-5.35,1.79-7.25-.29C-.21,6.52-.05,3.28,2.05,1.36c2.11-1.92,5.35-1.79,7.24.28,1.91,2.09,1.74,5.33-.36,7.25"/>
      <path class="cls-1" d="m19.27,20.2c-2.1,1.91-5.35,1.78-7.25-.3-1.9-2.08-1.73-5.33.37-7.24,2.11-1.92,5.35-1.79,7.24.28,1.91,2.09,1.74,5.34-.36,7.26"/>
      <path class="cls-1" d="m29.59,31.51c-2.1,1.92-5.35,1.79-7.25-.3-1.9-2.07-1.74-5.32.37-7.24,2.1-1.92,5.34-1.79,7.24.28,1.91,2.09,1.74,5.33-.36,7.25"/>
      <path class="cls-1" d="m39.92,42.82c-2.1,1.91-5.35,1.79-7.25-.3-1.9-2.08-1.74-5.33.37-7.24,2.1-1.92,5.34-1.79,7.24.28,1.91,2.09,1.74,5.34-.36,7.26"/>
      <path class="cls-1" d="m50.86,53.84c-2.1,1.92-5.35,1.79-7.25-.29-1.91-2.08-1.74-5.33.37-7.24,2.1-1.92,5.34-1.79,7.24.28,1.91,2.09,1.74,5.33-.36,7.25"/>
      <path class="cls-1" d="m32.93,64.86c-2.09-1.93-2.24-5.18-.33-7.27,1.92-2.08,5.18-2.2,7.27-.26,2.1,1.92,2.24,5.18.33,7.25-1.92,2.09-5.18,2.21-7.27.28"/>
      <path class="cls-1" d="m22.51,76.17c-2.09-1.93-2.24-5.18-.32-7.27,1.91-2.08,5.17-2.2,7.26-.27,2.1,1.92,2.24,5.18.33,7.25-1.92,2.09-5.18,2.21-7.27.28"/>
      <path class="cls-1" d="m12.09,87.48c-2.09-1.93-2.23-5.18-.32-7.27,1.91-2.08,5.18-2.2,7.26-.27,2.11,1.93,2.24,5.18.33,7.26-1.92,2.09-5.18,2.21-7.27.28"/>
      <path class="cls-1" d="m1.67,98.79c-2.1-1.93-2.24-5.18-.33-7.27,1.92-2.08,5.18-2.2,7.26-.27,2.11,1.92,2.24,5.18.33,7.26-1.92,2.09-5.18,2.21-7.27.28"/>
      <path class="cls-1" d="m52.07,8.9c-2.1,1.91-5.35,1.79-7.25-.29-1.9-2.08-1.73-5.33.37-7.24,2.1-1.92,5.34-1.79,7.24.28,1.91,2.09,1.73,5.33-.36,7.25"/>
      <path class="cls-1" d="m62.39,20.2c-2.1,1.91-5.35,1.78-7.25-.3-1.91-2.08-1.74-5.33.37-7.24,2.1-1.92,5.35-1.79,7.24.28,1.9,2.09,1.74,5.34-.36,7.26"/>
      <path class="cls-1" d="m72.72,31.51c-2.1,1.92-5.35,1.79-7.25-.3-1.9-2.07-1.74-5.32.37-7.24,2.1-1.92,5.35-1.79,7.24.28,1.9,2.09,1.74,5.33-.36,7.25"/>
      <path class="cls-1" d="m83.05,42.82c-2.1,1.91-5.35,1.79-7.25-.3-1.9-2.08-1.73-5.33.37-7.24,2.1-1.92,5.35-1.79,7.24.28,1.91,2.09,1.74,5.34-.36,7.26"/>
      <path class="cls-1" d="m93.98,53.84c-2.1,1.92-5.35,1.79-7.25-.29-1.9-2.08-1.74-5.33.37-7.24,2.1-1.92,5.34-1.79,7.24.28,1.91,2.09,1.74,5.33-.36,7.25"/>
      <path class="cls-1" d="m76.06,64.86c-2.09-1.93-2.24-5.18-.32-7.27,1.91-2.08,5.17-2.2,7.26-.26,2.1,1.92,2.24,5.18.33,7.25-1.92,2.09-5.18,2.21-7.27.28"/>
      <path class="cls-1" d="m65.64,76.17c-2.09-1.93-2.23-5.18-.32-7.27,1.92-2.08,5.18-2.2,7.26-.27,2.11,1.92,2.25,5.18.33,7.25-1.92,2.09-5.18,2.21-7.27.28"/>
      <path class="cls-1" d="m55.22,87.48c-2.09-1.93-2.23-5.18-.32-7.27,1.91-2.08,5.18-2.2,7.26-.27,2.1,1.93,2.25,5.18.33,7.26-1.92,2.09-5.18,2.21-7.27.28"/>
      <path class="cls-1" d="m44.8,98.79c-2.1-1.93-2.24-5.18-.32-7.27,1.91-2.08,5.18-2.2,7.26-.27,2.11,1.92,2.25,5.18.33,7.26-1.92,2.09-5.18,2.21-7.27.28"/>
    </g>
  </g>
</svg>