<?xml version="1.0" encoding="UTF-8"?>
<svg id="Layer_2" data-name="Layer 2" xmlns="http://www.w3.org/2000/svg" viewBox="0 0 407.72 40.41">
  <defs>
    <style>
      .cls-1 {
        fill: #65676b;
      }

      .cls-2 {
        fill: #2fa8df;
      }
    </style>
  </defs>
  <g id="Layer_1-2" data-name="Layer 1">
    <g>
      <g>
        <path class="cls-2" d="m11.19,4.98v7.88h7.16v3.9h-7.16v10.56c0,2.42.11,4.18.32,5.29.16.97.61,1.73,1.33,2.3.72.57,1.65.85,2.78.85,1.04,0,2.13-.28,3.26-.83v4.33c-1.58.51-3.13.76-4.64.76-2.34,0-4.1-.48-5.29-1.43-1.19-.95-1.95-2.2-2.28-3.74-.33-1.54-.5-3.54-.5-6v-12.08H0v-3.9h6.19v-6.19l5-1.7Z"/>
        <path class="cls-2" d="m28.87,12.75l.24,4.28c2.05-3.16,5.13-4.74,9.26-4.74,2.26,0,4.07.41,5.44,1.24,1.36.82,2.36,1.91,3.01,3.27.65,1.35,1.07,2.84,1.26,4.47.2,1.62.3,3.59.3,5.91v12.51h-4.95v-12.13c0-1.94-.03-3.35-.09-4.24-.06-.89-.17-1.67-.33-2.35-.38-1.43-1.06-2.53-2.05-3.28-.99-.75-2.22-1.13-3.69-1.13-1.65,0-3.12.49-4.41,1.48-1.29.99-2.2,2.33-2.72,4.04-.16.48-.29,1.05-.39,1.7-.1.65-.16,1.34-.18,2.1-.02.75-.03,2.07-.03,3.95v9.87h-5.01v-13.29c-.03-1.53-.06-2.93-.08-4.21-.02-1.28-.05-2.8-.09-4.55-.05-1.75-.1-3.38-.18-4.88h4.68Z"/>
        <path class="cls-2" d="m57.14,14.77c1.47-.86,2.93-1.49,4.38-1.88,1.44-.39,2.99-.59,4.64-.59,2.53,0,4.65.48,6.36,1.44,1.71.96,2.9,2.32,3.56,4.08.56,1.47.83,3.96.83,7.48v5.25c0,2.03.02,3.8.07,5.31.04,1.52.11,2.79.2,3.83h-4.57c-.04-.63-.06-1.33-.06-2.1,0-.95.02-1.79.06-2.53-1.04,1.74-2.28,3.01-3.72,3.81-1.44.8-3.21,1.2-5.32,1.2-1.87,0-3.51-.33-4.94-1-1.42-.66-2.52-1.61-3.28-2.84-.76-1.23-1.14-2.65-1.14-4.27,0-1.42.31-2.67.93-3.75.62-1.09,1.53-2.01,2.73-2.77,1.2-.76,2.67-1.33,4.41-1.71,1.74-.38,3.75-.57,6.03-.57,1.36,0,2.62.04,3.77.11-.04-2.31-.6-4.01-1.7-5.1s-2.77-1.63-5.03-1.63c-1.47,0-2.82.2-4.03.61-1.22.4-2.52,1.06-3.9,1.98l-.27-4.36Zm15.04,12.19c-1.11-.11-2.02-.16-2.72-.16-6.64,0-9.95,1.7-9.95,5.11,0,.83.22,1.55.65,2.18.43.63,1.04,1.12,1.83,1.48s1.68.54,2.69.54c1.85,0,3.33-.4,4.44-1.21,1.11-.81,1.9-1.89,2.37-3.26.47-1.36.7-2.92.7-4.68Z"/>
      </g>
      <g>
        <path class="cls-1" d="m98.56,13.39l-.38,4.18c-1.76-.88-3.58-1.32-5.46-1.32-1.39,0-2.48.31-3.3.93-.82.62-1.23,1.43-1.23,2.44s.41,1.84,1.21,2.4c.81.56,2.24,1.35,4.31,2.38,2.07,1.03,3.65,2.1,4.72,3.19,1.07,1.1,1.61,2.55,1.61,4.36,0,1.22-.23,2.34-.69,3.35-.46,1.01-1.13,1.89-2.01,2.61-.88.73-1.93,1.28-3.16,1.67-1.23.39-2.56.58-3.98.58-2.48,0-4.81-.51-7-1.54v-4.48c1.29.63,2.43,1.08,3.43,1.36.99.28,1.96.42,2.91.42s1.88-.15,2.67-.46c.79-.3,1.41-.72,1.86-1.26s.67-1.14.67-1.8c0-1.02-.43-1.82-1.28-2.39-.85-.57-2.3-1.39-4.35-2.45-2.04-1.06-3.59-2.14-4.65-3.24-1.06-1.1-1.59-2.5-1.59-4.2,0-1.56.38-2.93,1.16-4.11.77-1.18,1.87-2.09,3.3-2.74s3.07-.97,4.92-.97c1.99,0,4.09.37,6.28,1.1Z"/>
        <path class="cls-1" d="m131.57,26.29c0,2.73-.59,5.17-1.76,7.32-1.17,2.15-2.83,3.83-4.95,5.02-2.13,1.19-4.52,1.79-7.18,1.79s-4.98-.61-7.06-1.82c-2.08-1.21-3.72-2.91-4.9-5.09-1.18-2.18-1.77-4.59-1.77-7.22,0-2.08.34-3.99,1.01-5.72.67-1.73,1.63-3.24,2.88-4.52,1.25-1.28,2.72-2.27,4.42-2.97,1.7-.7,3.52-1.05,5.48-1.05s3.81.34,5.52,1.02c1.7.68,3.18,1.67,4.44,2.96,1.26,1.29,2.22,2.82,2.88,4.57.66,1.76,1,3.66,1,5.7Zm-5.3.12c0-1.47-.21-2.87-.63-4.17-.42-1.31-1.01-2.43-1.77-3.35-.76-.93-1.66-1.64-2.69-2.14s-2.16-.75-3.37-.75c-2.46,0-4.5.97-6.12,2.91-1.62,1.94-2.43,4.39-2.43,7.35,0,1.96.36,3.72,1.09,5.28.73,1.56,1.74,2.77,3.04,3.64,1.3.86,2.77,1.29,4.43,1.29s3.04-.43,4.33-1.28c1.29-.85,2.3-2.05,3.04-3.59.74-1.54,1.1-3.27,1.1-5.17Z"/>
        <path class="cls-1" d="m142.55,0v39.68h-5.06V0h5.06Z"/>
        <path class="cls-1" d="m173.35,12.81v16.95c0,1.47.13,4.78.38,9.93h-4.65l-.22-4.2c-1.1,1.52-2.4,2.67-3.93,3.43-1.52.76-3.24,1.14-5.16,1.14-3.75,0-6.34-1.17-7.79-3.5-1.45-2.33-2.18-5.5-2.18-9.5v-14.26h5.01v12.48c0,.99.02,2.01.07,3.07.04,1.06.11,1.88.2,2.47.09.59.22,1.14.41,1.64.48,1.18,1.17,2.08,2.08,2.7.9.62,1.97.93,3.21.93,1.14,0,2.18-.23,3.11-.69.93-.46,1.73-1.12,2.39-1.98.66-.86,1.17-1.89,1.53-3.09s.54-2.52.54-3.95v-13.59h5.01Z"/>
        <path class="cls-1" d="m188.56,4.98v7.88h7.16v3.9h-7.16v10.56c0,2.42.11,4.18.32,5.29.16.97.61,1.73,1.33,2.3.72.57,1.65.85,2.78.85,1.04,0,2.13-.28,3.26-.83v4.33c-1.58.51-3.13.76-4.64.76-2.34,0-4.1-.48-5.29-1.43-1.19-.95-1.95-2.2-2.28-3.74-.33-1.54-.5-3.54-.5-6v-12.08h-6.19v-3.9h6.19v-6.19l5-1.7Z"/>
        <path class="cls-1" d="m206.69.78v5.51h-5.46V.78h5.46Zm-.11,11.97v26.93h-5.03V12.75h5.03Z"/>
        <path class="cls-1" d="m240.13,26.29c0,2.73-.59,5.17-1.76,7.32-1.17,2.15-2.83,3.83-4.95,5.02-2.13,1.19-4.52,1.79-7.18,1.79s-4.98-.61-7.06-1.82c-2.08-1.21-3.72-2.91-4.9-5.09-1.18-2.18-1.77-4.59-1.77-7.22,0-2.08.34-3.99,1.01-5.72.67-1.73,1.63-3.24,2.88-4.52,1.25-1.28,2.72-2.27,4.42-2.97,1.7-.7,3.52-1.05,5.48-1.05s3.81.34,5.52,1.02c1.7.68,3.18,1.67,4.44,2.96,1.26,1.29,2.22,2.82,2.88,4.57.66,1.76,1,3.66,1,5.7Zm-5.3.12c0-1.47-.21-2.87-.63-4.17-.42-1.31-1.01-2.43-1.77-3.35-.76-.93-1.66-1.64-2.69-2.14-1.03-.5-2.16-.75-3.37-.75-2.46,0-4.5.97-6.12,2.91s-2.43,4.39-2.43,7.35c0,1.96.36,3.72,1.09,5.28.73,1.56,1.74,2.77,3.04,3.64,1.3.86,2.77,1.29,4.43,1.29s3.04-.43,4.33-1.28c1.29-.85,2.3-2.05,3.04-3.59.74-1.54,1.1-3.27,1.1-5.17Z"/>
        <path class="cls-1" d="m250.76,12.75l.24,4.28c2.05-3.16,5.13-4.74,9.26-4.74,2.26,0,4.07.41,5.44,1.24,1.36.82,2.36,1.91,3.01,3.27.65,1.35,1.07,2.84,1.26,4.47.2,1.62.3,3.59.3,5.91v12.51h-4.95v-12.13c0-1.94-.03-3.35-.09-4.24-.06-.89-.17-1.67-.33-2.35-.38-1.43-1.06-2.53-2.05-3.28-.99-.75-2.22-1.13-3.69-1.13-1.65,0-3.12.49-4.41,1.48-1.29.99-2.2,2.33-2.72,4.04-.16.48-.29,1.05-.39,1.7-.1.65-.16,1.34-.18,2.1-.02.75-.03,2.07-.03,3.95v9.87h-5.01v-13.29c-.03-1.53-.06-2.93-.08-4.21-.02-1.28-.05-2.8-.09-4.55-.05-1.75-.1-3.38-.18-4.88h4.68Z"/>
        <path class="cls-1" d="m291.31,13.39l-.38,4.18c-1.76-.88-3.58-1.32-5.46-1.32-1.39,0-2.48.31-3.3.93-.82.62-1.23,1.43-1.23,2.44s.41,1.84,1.21,2.4c.81.56,2.24,1.35,4.31,2.38,2.07,1.03,3.65,2.1,4.72,3.19,1.07,1.1,1.61,2.55,1.61,4.36,0,1.22-.23,2.34-.69,3.35-.46,1.01-1.13,1.89-2.01,2.61s-1.93,1.28-3.16,1.67c-1.23.39-2.56.58-3.98.58-2.48,0-4.81-.51-7-1.54v-4.48c1.29.63,2.43,1.08,3.43,1.36.99.28,1.96.42,2.91.42s1.88-.15,2.67-.46c.79-.3,1.41-.72,1.86-1.26s.67-1.14.67-1.8c0-1.02-.43-1.82-1.28-2.39-.85-.57-2.3-1.39-4.35-2.45-2.04-1.06-3.59-2.14-4.65-3.24-1.06-1.1-1.59-2.5-1.59-4.2,0-1.56.38-2.93,1.16-4.11s1.87-2.09,3.3-2.74c1.43-.65,3.07-.97,4.92-.97,1.99,0,4.09.37,6.28,1.1Z"/>
      </g>
      <g>
        <path class="cls-1" d="m304.87,33.79v5.89h-5.89v-5.89h5.89Z"/>
        <path class="cls-1" d="m331.05,13.51l-.32,4.41c-1.36-.81-3-1.21-4.92-1.21-1.72,0-3.28.39-4.68,1.18-1.4.79-2.48,1.89-3.25,3.29-.77,1.4-1.16,3.01-1.16,4.82s.38,3.56,1.13,5.05c.75,1.49,1.81,2.64,3.16,3.46,1.36.82,2.92,1.24,4.69,1.24,1.06,0,2.01-.13,2.85-.4.85-.27,1.77-.71,2.77-1.32l.4,4.59c-1.02.47-2.06.82-3.11,1.04-1.05.22-2.22.34-3.52.34-2.68,0-5.06-.57-7.15-1.72-2.09-1.15-3.71-2.76-4.84-4.83-1.13-2.07-1.7-4.48-1.7-7.22s.58-4.98,1.75-7.09c1.17-2.11,2.78-3.76,4.85-4.95,2.07-1.19,4.38-1.79,6.93-1.79,2.1,0,4.14.37,6.11,1.1Z"/>
        <path class="cls-1" d="m362.55,26.29c0,2.73-.59,5.17-1.76,7.32-1.17,2.15-2.83,3.83-4.95,5.02-2.13,1.19-4.52,1.79-7.18,1.79s-4.98-.61-7.06-1.82c-2.08-1.21-3.72-2.91-4.9-5.09-1.18-2.18-1.77-4.59-1.77-7.22,0-2.08.34-3.99,1.01-5.72.67-1.73,1.63-3.24,2.88-4.52,1.25-1.28,2.72-2.27,4.42-2.97s3.52-1.05,5.48-1.05,3.81.34,5.52,1.02c1.7.68,3.18,1.67,4.44,2.96,1.26,1.29,2.22,2.82,2.88,4.57.66,1.76,1,3.66,1,5.7Zm-5.3.12c0-1.47-.21-2.87-.63-4.17-.42-1.31-1.01-2.43-1.77-3.35-.76-.93-1.66-1.64-2.69-2.14-1.03-.5-2.16-.75-3.37-.75-2.46,0-4.5.97-6.12,2.91-1.62,1.94-2.43,4.39-2.43,7.35,0,1.96.36,3.72,1.09,5.28.73,1.56,1.74,2.77,3.04,3.64,1.3.86,2.77,1.29,4.43,1.29s3.04-.43,4.33-1.28c1.29-.85,2.3-2.05,3.04-3.59.74-1.54,1.1-3.27,1.1-5.17Z"/>
        <path class="cls-1" d="m373.13,12.75l.29,4.33c.48-.99,1.14-1.84,1.96-2.56.82-.72,1.79-1.27,2.89-1.65,1.1-.38,2.31-.58,3.62-.58,2.02,0,3.72.46,5.07,1.39,1.35.93,2.31,2.27,2.86,4.02,1.8-3.61,4.76-5.41,8.88-5.41,1.92,0,3.49.37,4.71,1.1,1.22.74,2.14,1.71,2.76,2.92.62,1.21,1.04,2.57,1.24,4.09.21,1.52.31,3.22.31,5.13v14.15h-5.01v-13.16c0-1.74-.03-3.09-.09-4.04-.06-.95-.17-1.7-.33-2.26-.7-2.46-2.24-3.69-4.63-3.69-.72,0-1.41.13-2.08.38-.67.25-1.29.63-1.84,1.13-.56.5-1.04,1.09-1.45,1.78s-.73,1.44-.97,2.29c-.2.63-.33,1.37-.39,2.23-.06.86-.09,2.17-.09,3.93v11.41h-5.06v-13.83c0-1.86-.02-3.14-.06-3.82-.05-.68-.15-1.3-.31-1.86-.34-1.15-.9-2.04-1.68-2.68-.78-.64-1.7-.96-2.78-.96-1.34,0-2.55.4-3.64,1.2-1.08.8-1.93,1.91-2.54,3.32-.61,1.42-.91,3.01-.91,4.79v13.83h-5.01v-15.15c0-4.79-.12-8.72-.35-11.78h4.63Z"/>
      </g>
    </g>
  </g>
</svg>