<?xml version="1.0" encoding="UTF-8"?>
<svg id="Layer_2" data-name="Layer 2" xmlns="http://www.w3.org/2000/svg" viewBox="0 0 402.99 137.76">
  <defs>
    <style>
      .cls-1 {
        fill: #1d3e8e;
      }

      .cls-2 {
        fill: #009ce0;
      }
    </style>
  </defs>
  <g id="Layer_1-2" data-name="Layer 1">
    <g>
      <path class="cls-2" d="m4.07,4.06c-.96.87-2.44.82-3.31-.13C-.1,2.97-.02,1.49.94.62c.96-.88,2.44-.82,3.3.13.87.95.79,2.43-.16,3.31"/>
      <path class="cls-2" d="m8.78,9.21c-.96.87-2.44.81-3.31-.14-.87-.95-.79-2.43.17-3.3.96-.87,2.44-.82,3.3.13.87.95.79,2.43-.16,3.31"/>
      <path class="cls-2" d="m13.49,14.36c-.96.87-2.44.82-3.3-.14-.87-.94-.79-2.43.17-3.3.96-.88,2.43-.82,3.3.13.87.95.79,2.43-.17,3.31"/>
      <path class="cls-2" d="m18.19,19.51c-.96.87-2.44.82-3.3-.14-.87-.95-.79-2.43.17-3.3.96-.88,2.44-.82,3.3.13.87.95.79,2.43-.17,3.31"/>
      <path class="cls-2" d="m23.18,24.54c-.96.87-2.44.82-3.3-.13-.87-.95-.79-2.43.17-3.3.96-.88,2.44-.82,3.3.13.87.95.79,2.43-.17,3.31"/>
      <path class="cls-2" d="m15.01,29.56c-.95-.88-1.02-2.36-.15-3.31.87-.95,2.36-1,3.31-.12.96.88,1.02,2.36.15,3.31-.88.95-2.36,1.01-3.31.13"/>
      <path class="cls-2" d="m10.26,34.72c-.95-.88-1.02-2.36-.14-3.31.87-.95,2.36-1,3.31-.12.96.88,1.02,2.36.15,3.31-.88.95-2.36,1.01-3.31.13"/>
      <path class="cls-2" d="m5.51,39.87c-.95-.88-1.02-2.36-.15-3.31.87-.95,2.36-1,3.31-.12.96.88,1.02,2.36.15,3.31-.87.95-2.36,1.01-3.31.13"/>
      <path class="cls-2" d="m.76,45.03c-.96-.88-1.02-2.36-.15-3.31.87-.95,2.36-1,3.31-.12.96.88,1.02,2.36.15,3.31-.87.95-2.36,1.01-3.31.13"/>
      <path class="cls-2" d="m23.73,4.06c-.96.87-2.44.82-3.31-.13-.87-.95-.79-2.43.17-3.3.96-.88,2.44-.82,3.3.13.87.95.79,2.43-.17,3.31"/>
      <path class="cls-2" d="m28.44,9.21c-.96.87-2.44.81-3.3-.14-.87-.95-.79-2.43.17-3.3.96-.87,2.44-.82,3.3.13.87.95.79,2.43-.17,3.31"/>
      <path class="cls-2" d="m33.15,14.36c-.96.87-2.44.82-3.31-.14-.87-.94-.79-2.43.17-3.3.96-.88,2.44-.82,3.3.13.87.95.79,2.43-.16,3.31"/>
      <path class="cls-2" d="m37.85,19.51c-.96.87-2.44.82-3.31-.14-.87-.95-.79-2.43.17-3.3.96-.88,2.44-.82,3.3.13.87.95.79,2.43-.16,3.31"/>
      <path class="cls-2" d="m42.84,24.54c-.96.87-2.44.82-3.3-.13-.87-.95-.79-2.43.17-3.3.96-.88,2.44-.82,3.3.13.87.95.79,2.43-.17,3.31"/>
      <path class="cls-2" d="m34.66,29.56c-.95-.88-1.02-2.36-.14-3.31.87-.95,2.36-1,3.31-.12.96.88,1.02,2.36.15,3.31-.88.95-2.36,1.01-3.31.13"/>
      <path class="cls-2" d="m29.92,34.72c-.95-.88-1.02-2.36-.15-3.31.87-.95,2.36-1,3.31-.12.96.88,1.02,2.36.15,3.31-.88.95-2.36,1.01-3.31.13"/>
      <path class="cls-2" d="m25.17,39.87c-.95-.88-1.02-2.36-.15-3.31.87-.95,2.36-1,3.31-.12.96.88,1.02,2.36.15,3.31-.87.95-2.36,1.01-3.31.13"/>
      <path class="cls-2" d="m20.42,45.03c-.96-.88-1.02-2.36-.15-3.31.87-.95,2.36-1,3.31-.12.96.88,1.02,2.36.15,3.31-.87.95-2.36,1.01-3.31.13"/>
    </g>
    <g>
      <path class="cls-1" d="m64.84,23.74c0-2,.29-3.86.88-5.59.59-1.73,1.43-3.18,2.54-4.37,1.11-1.19,2.35-2.08,3.74-2.68,1.76-.76,3.74-1.14,5.94-1.14,2.55,0,4.79.52,6.71,1.56,1.92,1.04,3.44,2.67,4.54,4.88,1.1,2.22,1.65,4.68,1.65,7.4s-.53,5.16-1.6,7.33c-1.07,2.18-2.62,3.82-4.64,4.94-2.03,1.12-4.3,1.68-6.82,1.68s-4.73-.56-6.76-1.68c-2.03-1.12-3.57-2.74-4.61-4.87s-1.57-4.61-1.57-7.46Zm13.03,9.82c1.95,0,3.56-.76,4.82-2.27,1.59-1.86,2.38-4.34,2.38-7.44,0-2.11-.36-3.94-1.08-5.48-.72-1.54-1.61-2.64-2.68-3.3-1.07-.66-2.23-.98-3.48-.98-1.99,0-3.61.76-4.88,2.27-1.56,1.86-2.34,4.39-2.34,7.58,0,2.05.32,3.81.98,5.27.65,1.46,1.53,2.56,2.63,3.28,1.11.73,2.32,1.09,3.65,1.09Z"/>
      <path class="cls-1" d="m100.22,17.42l.13,3.02c1.41-2.22,3.54-3.34,6.39-3.34,1.07,0,2.04.16,2.9.47.86.31,1.56.74,2.11,1.28.55.54.96,1.14,1.24,1.79.27.65.47,1.57.6,2.76.05.56.08,2.05.09,4.46v9.34h-5.12v-9.92c0-2.15-.19-3.6-.56-4.35-.58-1.12-1.53-1.69-2.87-1.69-.84,0-1.62.24-2.36.71-.74.48-1.28,1.15-1.61,2.02-.34.88-.51,2.16-.51,3.84v9.38h-5.16v-15.88c0-1.36-.06-2.66-.17-3.9h4.89Z"/>
      <path class="cls-1" d="m136.18,28.89h-13.39c.04.89.31,1.72.82,2.5.51.78,1.16,1.37,1.96,1.75.8.39,1.78.58,2.94.58,1.05,0,2.09-.15,3.11-.44,1.02-.29,2.11-.77,3.26-1.42l.06,4.22c-.45.34-1.35.68-2.69,1.03-1.34.35-2.72.53-4.13.53-2.1,0-3.93-.39-5.48-1.17-1.56-.78-2.75-1.98-3.57-3.61-.83-1.62-1.24-3.5-1.24-5.62s.4-3.96,1.19-5.57c.79-1.61,1.95-2.83,3.46-3.65,1.51-.82,3.18-1.23,5.01-1.23,1.95,0,3.62.48,5.01,1.45,1.39.97,2.36,2.28,2.92,3.95.56,1.66.83,3.54.83,5.64,0,.24-.02.59-.06,1.05Zm-13.43-3.56h8.66c-.07-1.64-.49-2.86-1.26-3.68-.76-.81-1.78-1.22-3.04-1.22-1.18,0-2.09.36-2.76,1.07-.94.98-1.48,2.25-1.61,3.83Z"/>
      <path class="cls-1" d="m170.93,11.42l-.43,4.58c-.82-.4-1.81-.72-2.95-.95-1.14-.23-2.18-.35-3.12-.35-1.59,0-3.03.38-4.33,1.13-1.3.76-2.29,1.84-2.97,3.24-.68,1.41-1.02,2.96-1.02,4.66,0,2.76.83,4.99,2.49,6.67,1.66,1.69,3.84,2.53,6.53,2.53,1.96,0,3.84-.38,5.64-1.12l.22,4.76c-.69.21-1.64.41-2.87.6-1.23.19-2.39.28-3.49.28-2.46,0-4.71-.41-6.73-1.24-2.44-1-4.32-2.54-5.64-4.63-1.33-2.09-1.99-4.62-1.99-7.61,0-4.1,1.27-7.41,3.8-9.92,2.53-2.51,5.89-3.77,10.08-3.77,2.39,0,4.65.38,6.79,1.12Z"/>
      <path class="cls-1" d="m186.23,37.2l-.13-2.92c-.44.92-1.23,1.7-2.39,2.33-1.16.63-2.45.95-3.87.95-1.24,0-2.38-.26-3.43-.77-1.05-.51-1.86-1.25-2.43-2.2-.57-.96-.85-2.05-.85-3.29,0-2.24,1.02-3.92,3.06-5.06,1.56-.86,3.92-1.29,7.07-1.29.79,0,1.68.04,2.68.13.01-.24.02-.42.02-.54,0-1.24-.36-2.2-1.09-2.88-.73-.68-1.84-1.02-3.34-1.02-1.09,0-2.19.21-3.3.64-1.11.43-2.06.95-2.83,1.58l-.13-4.44c.66-.34,1.66-.65,3-.94,1.34-.29,2.66-.43,3.96-.43,1.66,0,3.07.23,4.23.69,1.16.46,2.1,1.16,2.82,2.1.5.66.84,1.53,1.01,2.6.17,1.07.26,2.63.26,4.7v2.92l.06,2.89.08,3.04.09,1.24h-4.54Zm-.26-9.02c-.64-.05-1.07-.08-1.29-.08-1.25,0-2.4.11-3.44.34-1.04.23-1.8.61-2.28,1.15-.48.54-.71,1.17-.71,1.87,0,.75.27,1.37.81,1.86.54.49,1.28.73,2.23.73.84,0,1.65-.25,2.45-.74.79-.49,1.37-1.13,1.72-1.92.35-.79.53-1.86.53-3.21Z"/>
      <path class="cls-1" d="m195.92,37.2V8.4h5.16v28.8h-5.16Z"/>
      <path class="cls-1" d="m219.53,17.87l-.43,4.12c-.85-.45-1.89-.68-3.11-.68-1.59,0-2.91.55-3.98,1.65-1.06,1.1-1.59,2.51-1.59,4.24,0,1.12.23,2.15.68,3.07.46.93,1.11,1.64,1.97,2.14.86.5,1.82.75,2.88.75.6,0,1.24-.09,1.93-.26.69-.17,1.28-.39,1.78-.64l.22,4.31c-1.4.48-2.92.71-4.57.71-1.55,0-2.95-.23-4.2-.68-1.25-.46-2.29-1.09-3.12-1.89-.83-.81-1.47-1.69-1.92-2.65-.65-1.41-.98-3-.98-4.76,0-2,.41-3.76,1.24-5.29.82-1.52,2.04-2.7,3.65-3.52,1.61-.83,3.33-1.24,5.17-1.24.66,0,1.42.06,2.26.18.84.12,1.55.27,2.13.44Z"/>
      <path class="cls-1" d="m223.58,17.42h5.16v9.73l.04,1.74c.04,1.36.26,2.35.67,2.96.65.95,1.58,1.42,2.79,1.42.71,0,1.36-.18,1.93-.53.57-.36,1.03-.84,1.38-1.45.34-.61.6-1.41.76-2.4.07-.46.11-1.25.11-2.36v-9.11h5.16v12.09l.13,6.52.13,1.16h-4.97l-.13-3.02c-.59.99-1.43,1.78-2.54,2.39s-2.39.91-3.85.91c-1.04,0-1.97-.15-2.79-.44-.83-.29-1.5-.68-2.02-1.15-.52-.48-.91-.99-1.18-1.56s-.48-1.41-.63-2.55c-.1-.76-.15-2.21-.15-4.35v-10.01Z"/>
      <path class="cls-1" d="m247.13,37.2V8.4h5.16v28.8h-5.16Z"/>
      <path class="cls-1" d="m269.44,37.2l-.13-2.92c-.44.92-1.23,1.7-2.39,2.33-1.16.63-2.45.95-3.87.95-1.24,0-2.38-.26-3.43-.77-1.05-.51-1.86-1.25-2.43-2.2-.57-.96-.85-2.05-.85-3.29,0-2.24,1.02-3.92,3.06-5.06,1.56-.86,3.92-1.29,7.07-1.29.79,0,1.68.04,2.68.13.01-.24.02-.42.02-.54,0-1.24-.36-2.2-1.09-2.88-.73-.68-1.84-1.02-3.34-1.02-1.09,0-2.19.21-3.3.64-1.11.43-2.06.95-2.83,1.58l-.13-4.44c.66-.34,1.66-.65,3-.94,1.34-.29,2.66-.43,3.96-.43,1.66,0,3.07.23,4.23.69,1.16.46,2.1,1.16,2.82,2.1.5.66.84,1.53,1.01,2.6.17,1.07.26,2.63.26,4.7v2.92l.06,2.89.08,3.04.09,1.24h-4.54Zm-.26-9.02c-.64-.05-1.07-.08-1.29-.08-1.25,0-2.4.11-3.44.34-1.04.23-1.8.61-2.28,1.15-.48.54-.71,1.17-.71,1.87,0,.75.27,1.37.81,1.86.54.49,1.28.73,2.23.73.84,0,1.65-.25,2.45-.74.79-.49,1.37-1.13,1.72-1.92.35-.79.53-1.86.53-3.21Z"/>
      <path class="cls-1" d="m280.67,21.34h-3.77v-3.83h3.83v-4.05l4.93-1.63v5.68h4.61v3.83h-4.61v7.24c0,1.74.15,2.85.45,3.34.51.83,1.36,1.24,2.55,1.24.6,0,1.21-.1,1.84-.3l.13,4.09c-1.01.33-2.18.49-3.49.49-.95,0-1.78-.11-2.48-.33-.71-.22-1.31-.52-1.81-.92-.5-.39-.9-.84-1.2-1.33s-.55-1.21-.75-2.15c-.15-.69-.23-1.71-.23-3.06v-8.31Z"/>
      <path class="cls-1" d="m313.35,27.56c0,1.19-.2,2.4-.6,3.63-.4,1.23-1.01,2.32-1.83,3.25-.82.94-1.89,1.72-3.21,2.35-1.32.63-2.87.95-4.64.95-3.03,0-5.5-.97-7.43-2.9-1.93-1.93-2.89-4.43-2.89-7.49s.96-5.64,2.89-7.59c1.92-1.95,4.41-2.92,7.44-2.92s5.49.97,7.4,2.92c1.91,1.95,2.86,4.55,2.86,7.8Zm-15.17-.32c0,2.16.47,3.8,1.41,4.91.94,1.11,2.08,1.67,3.43,1.67,1.58,0,2.8-.61,3.68-1.82.87-1.21,1.31-2.76,1.31-4.63,0-1.7-.42-3.24-1.26-4.61-.84-1.38-2.05-2.06-3.64-2.06-.71,0-1.35.14-1.91.42s-1.06.69-1.48,1.23c-.43.54-.76,1.14-1.01,1.82-.35.98-.52,2-.52,3.08Z"/>
      <path class="cls-1" d="m317.38,17.42h4.71l.09,5.02c.34-1.6,1.03-2.87,2.08-3.8,1.05-.93,2.24-1.4,3.58-1.4.49,0,.96.04,1.41.13v4.84c-.39-.21-.91-.32-1.57-.32-.93,0-1.7.18-2.33.54-.63.36-1.15.85-1.55,1.45-.4.61-.68,1.29-.84,2.05-.16.76-.24,1.8-.24,3.11v8.14h-5.16v-13.78l-.13-5.46-.04-.54Z"/>
      <path class="cls-1" d="m64.84,69.82c0-2,.29-3.86.88-5.59.59-1.73,1.43-3.18,2.54-4.37,1.11-1.19,2.35-2.08,3.74-2.68,1.76-.76,3.74-1.14,5.94-1.14,2.55,0,4.79.52,6.71,1.56,1.92,1.04,3.44,2.67,4.54,4.88,1.1,2.22,1.65,4.68,1.65,7.4s-.53,5.16-1.6,7.33c-1.07,2.18-2.62,3.82-4.64,4.94-2.03,1.12-4.3,1.68-6.82,1.68s-4.73-.56-6.76-1.68c-2.03-1.12-3.57-2.74-4.61-4.87s-1.57-4.61-1.57-7.46Zm13.03,9.82c1.95,0,3.56-.76,4.82-2.27,1.59-1.86,2.38-4.34,2.38-7.44,0-2.11-.36-3.94-1.08-5.48-.72-1.54-1.61-2.64-2.68-3.3-1.07-.66-2.23-.98-3.48-.98-1.99,0-3.61.76-4.88,2.27-1.56,1.86-2.34,4.39-2.34,7.58,0,2.05.32,3.81.98,5.27.65,1.46,1.53,2.56,2.63,3.28,1.11.73,2.32,1.09,3.65,1.09Z"/>
      <path class="cls-1" d="m100.22,63.5l.13,3.02c1.41-2.22,3.54-3.34,6.39-3.34,1.07,0,2.04.16,2.9.47.86.31,1.56.74,2.11,1.28.55.54.96,1.14,1.24,1.79.27.65.47,1.57.6,2.76.05.56.08,2.05.09,4.46v9.34h-5.12v-9.92c0-2.15-.19-3.6-.56-4.35-.58-1.12-1.53-1.69-2.87-1.69-.84,0-1.62.24-2.36.71-.74.48-1.28,1.15-1.61,2.02-.34.88-.51,2.16-.51,3.84v9.38h-5.16v-15.88c0-1.36-.06-2.66-.17-3.9h4.89Z"/>
      <path class="cls-1" d="m136.18,74.97h-13.39c.04.89.31,1.72.82,2.5.51.78,1.16,1.37,1.96,1.75.8.39,1.78.58,2.94.58,1.05,0,2.09-.15,3.11-.44,1.02-.29,2.11-.77,3.26-1.42l.06,4.22c-.45.34-1.35.68-2.69,1.03-1.34.35-2.72.53-4.13.53-2.1,0-3.93-.39-5.48-1.17-1.56-.78-2.75-1.98-3.57-3.61-.83-1.62-1.24-3.5-1.24-5.62s.4-3.96,1.19-5.57c.79-1.61,1.95-2.83,3.46-3.65,1.51-.82,3.18-1.23,5.01-1.23,1.95,0,3.62.48,5.01,1.45,1.39.97,2.36,2.28,2.92,3.95.56,1.66.83,3.54.83,5.64,0,.24-.02.59-.06,1.05Zm-13.43-3.56h8.66c-.07-1.64-.49-2.86-1.26-3.68-.76-.81-1.78-1.22-3.04-1.22-1.18,0-2.09.36-2.76,1.07-.94.98-1.48,2.25-1.61,3.83Z"/>
      <path class="cls-1" d="m139.07,75.11v-4.28h10.09v4.28h-10.09Z"/>
      <path class="cls-1" d="m153.47,83.28v-26.66h8.62l6.39,20.27,6.58-20.27h8.44v26.66h-5.1v-22.22l-7.56,22.22h-5.02l-7.39-22.22v22.22h-4.97Z"/>
      <path class="cls-1" d="m194.63,59.9h-5.16v-4.84h5.16v4.84Zm-5.16,23.38v-19.78h5.16v19.78h-5.16Z"/>
      <path class="cls-1" d="m204.81,63.5l.13,3.02c1.41-2.22,3.54-3.34,6.39-3.34,1.07,0,2.04.16,2.9.47.86.31,1.56.74,2.11,1.28.55.54.96,1.14,1.24,1.79.27.65.47,1.57.6,2.76.05.56.08,2.05.09,4.46v9.34h-5.12v-9.92c0-2.15-.19-3.6-.56-4.35-.58-1.12-1.53-1.69-2.87-1.69-.84,0-1.62.24-2.36.71-.74.48-1.28,1.15-1.61,2.02-.34.88-.51,2.16-.51,3.84v9.38h-5.16v-15.88c0-1.36-.06-2.66-.17-3.9h4.89Z"/>
      <path class="cls-1" d="m223.54,63.5h5.16v9.73l.04,1.74c.04,1.36.26,2.35.67,2.96.65.95,1.58,1.42,2.79,1.42.71,0,1.36-.18,1.93-.53.57-.36,1.03-.84,1.38-1.45.34-.61.6-1.41.76-2.4.07-.46.11-1.25.11-2.36v-9.11h5.16v12.09l.13,6.52.13,1.16h-4.97l-.13-3.02c-.59.99-1.43,1.78-2.54,2.39s-2.39.91-3.85.91c-1.04,0-1.97-.15-2.79-.44-.83-.29-1.5-.68-2.02-1.15-.52-.48-.91-.99-1.18-1.56s-.48-1.41-.63-2.55c-.1-.76-.15-2.21-.15-4.35v-10.01Z"/>
      <path class="cls-1" d="m248.63,67.42h-3.77v-3.83h3.83v-4.05l4.93-1.63v5.68h4.61v3.83h-4.61v7.24c0,1.74.15,2.85.45,3.34.51.83,1.36,1.24,2.55,1.24.6,0,1.21-.1,1.84-.3l.13,4.09c-1.01.33-2.18.49-3.49.49-.95,0-1.78-.11-2.48-.33-.71-.22-1.31-.52-1.81-.92-.5-.39-.9-.84-1.2-1.33s-.55-1.21-.75-2.15c-.15-.69-.23-1.71-.23-3.06v-8.31Z"/>
      <path class="cls-1" d="m279.17,74.97h-13.39c.04.89.31,1.72.82,2.5.51.78,1.16,1.37,1.96,1.75.8.39,1.78.58,2.94.58,1.05,0,2.09-.15,3.11-.44,1.02-.29,2.11-.77,3.26-1.42l.06,4.22c-.45.34-1.35.68-2.69,1.03-1.34.35-2.72.53-4.13.53-2.1,0-3.93-.39-5.48-1.17-1.56-.78-2.75-1.98-3.57-3.61-.83-1.62-1.24-3.5-1.24-5.62s.4-3.96,1.19-5.57c.79-1.61,1.95-2.83,3.46-3.65,1.51-.82,3.18-1.23,5.01-1.23,1.95,0,3.62.48,5.01,1.45,1.39.97,2.36,2.28,2.92,3.95.56,1.66.83,3.54.83,5.64,0,.24-.02.59-.06,1.05Zm-13.43-3.56h8.66c-.07-1.64-.49-2.86-1.26-3.68-.76-.81-1.78-1.22-3.04-1.22-1.18,0-2.09.36-2.76,1.07-.94.98-1.48,2.25-1.61,3.83Z"/>
      <path class="cls-1" d="m80.93,103.41l-.49,4.44c-.71-.36-1.59-.66-2.63-.9-1.04-.24-2-.36-2.88-.36-1.38,0-2.43.31-3.16.92-.73.61-1.1,1.32-1.1,2.12,0,.61.2,1.17.61,1.68s1.2,1,2.37,1.47l4.03,1.65c1.49.6,2.65,1.52,3.5,2.76.84,1.24,1.27,2.65,1.27,4.24,0,1.44-.29,2.69-.87,3.76-.58,1.07-1.33,1.93-2.24,2.57-.91.64-1.98,1.11-3.21,1.4-1.23.29-2.51.43-3.86.43-2.14,0-4.36-.36-6.66-1.07l.49-4.89c.82.49,1.77.88,2.85,1.19,1.07.31,2.11.46,3.11.46,1.56,0,2.75-.35,3.57-1.04.82-.69,1.23-1.5,1.23-2.43,0-.7-.22-1.31-.67-1.83-.44-.52-1.16-.99-2.15-1.42l-3.69-1.59c-1.15-.5-2.04-1.01-2.66-1.52-.82-.66-1.45-1.44-1.88-2.32-.43-.89-.65-1.91-.65-3.08,0-2.24.81-4.07,2.42-5.49,1.61-1.43,3.98-2.14,7.09-2.14,2.01,0,4.1.33,6.26.99Z"/>
      <path class="cls-1" d="m92.18,105.98h-5.16v-4.84h5.16v4.84Zm-5.16,23.38v-19.78h5.16v19.78h-5.16Z"/>
      <path class="cls-1" d="m110.89,112.69v-3.11h4.93v17.38c0,1.88-.16,3.37-.47,4.47-.31,1.11-.73,2.01-1.24,2.71-.51.7-1.14,1.31-1.89,1.83-.75.52-1.55.92-2.4,1.19-1.31.4-2.75.6-4.31.6-2.44,0-4.75-.46-6.94-1.37l.45-4.5c.85.54,1.85.96,2.99,1.27,1.14.31,2.2.47,3.16.47,1.21,0,2.3-.28,3.26-.85.96-.57,1.63-1.36,2.02-2.38.38-1.02.58-2.68.61-5-.75,1.35-1.71,2.35-2.89,3.01-1.18.66-2.4.98-3.68.98-1.4,0-2.73-.38-3.98-1.14-1.26-.76-2.23-1.92-2.93-3.48-.7-1.56-1.05-3.42-1.05-5.58,0-3.17.78-5.63,2.35-7.37,1.57-1.74,3.5-2.61,5.78-2.61,1.04,0,2.01.18,2.92.54.91.36,1.65.83,2.24,1.39.41.4.77.91,1.07,1.54Zm-9.04,6.09c0,2.15.42,3.74,1.26,4.76.84,1.02,1.88,1.54,3.11,1.54s2.32-.51,3.23-1.53c.9-1.02,1.35-2.43,1.35-4.23s-.45-3.34-1.35-4.39c-.9-1.05-1.96-1.57-3.19-1.57-.8,0-1.55.23-2.25.68-.7.46-1.23,1.12-1.6,1.98-.37.86-.55,1.78-.55,2.76Z"/>
      <path class="cls-1" d="m125.87,109.58l.13,3.02c1.41-2.22,3.54-3.34,6.39-3.34,1.07,0,2.04.16,2.9.47.86.31,1.56.74,2.11,1.28.55.54.96,1.14,1.24,1.79.27.65.47,1.57.6,2.76.05.56.08,2.05.09,4.46v9.34h-5.12v-9.92c0-2.15-.19-3.6-.56-4.35-.58-1.12-1.53-1.69-2.87-1.69-.84,0-1.62.24-2.36.71-.74.48-1.28,1.15-1.61,2.02-.34.88-.51,2.16-.51,3.84v9.38h-5.16v-15.88c0-1.36-.06-2.66-.17-3.9h4.89Z"/>
      <path class="cls-1" d="m149.83,105.98h-5.16v-4.84h5.16v4.84Zm-5.16,23.38v-19.78h5.16v19.78h-5.16Z"/>
      <path class="cls-1" d="m167.18,100.79l-.41,4.22c-.6-.3-1.25-.45-1.95-.45-1,0-1.66.33-1.97.98-.31.65-.5,2.03-.56,4.14h4.48v3.86h-4.48v15.83h-5.16v-15.83h-3.83v-3.86h3.83c.04-2.52.27-4.38.69-5.57.42-1.19,1.13-2.11,2.13-2.76.99-.65,2.35-.97,4.08-.97,1.16,0,2.21.14,3.15.41Z"/>
      <path class="cls-1" d="m176.16,105.98h-5.16v-4.84h5.16v4.84Zm-5.16,23.38v-19.78h5.16v19.78h-5.16Z"/>
      <path class="cls-1" d="m194.68,110.03l-.43,4.12c-.85-.45-1.89-.68-3.11-.68-1.59,0-2.91.55-3.98,1.65-1.06,1.1-1.59,2.51-1.59,4.24,0,1.12.23,2.15.68,3.07.46.93,1.11,1.64,1.97,2.14.86.5,1.82.75,2.88.75.6,0,1.24-.09,1.93-.26.69-.17,1.28-.39,1.78-.64l.22,4.31c-1.4.48-2.92.71-4.57.71-1.55,0-2.95-.23-4.2-.68-1.25-.46-2.29-1.09-3.12-1.89-.83-.81-1.47-1.69-1.92-2.65-.65-1.41-.98-3-.98-4.76,0-2,.41-3.76,1.24-5.29.82-1.52,2.04-2.7,3.65-3.52,1.61-.83,3.33-1.24,5.17-1.24.66,0,1.42.06,2.26.18.84.12,1.55.27,2.13.44Z"/>
      <path class="cls-1" d="m211.18,129.36l-.13-2.92c-.44.92-1.23,1.7-2.39,2.33-1.16.63-2.45.95-3.87.95-1.24,0-2.38-.26-3.43-.77-1.05-.51-1.86-1.25-2.43-2.2-.57-.96-.85-2.05-.85-3.29,0-2.24,1.02-3.92,3.06-5.06,1.56-.86,3.92-1.29,7.07-1.29.79,0,1.68.04,2.68.13.01-.24.02-.42.02-.54,0-1.24-.36-2.2-1.09-2.88-.73-.68-1.84-1.02-3.34-1.02-1.09,0-2.19.21-3.3.64-1.11.43-2.06.95-2.83,1.58l-.13-4.44c.66-.34,1.66-.65,3-.94,1.34-.29,2.66-.43,3.96-.43,1.66,0,3.07.23,4.23.69,1.16.46,2.1,1.16,2.82,2.1.5.66.84,1.53,1.01,2.6.17,1.07.26,2.63.26,4.7v2.92l.06,2.89.08,3.04.09,1.24h-4.54Zm-.26-9.02c-.64-.05-1.07-.08-1.29-.08-1.25,0-2.4.11-3.44.34-1.04.23-1.8.61-2.28,1.15-.48.54-.71,1.17-.71,1.87,0,.75.27,1.37.81,1.86.54.49,1.28.73,2.23.73.84,0,1.65-.25,2.45-.74.79-.49,1.37-1.13,1.72-1.92.35-.79.53-1.86.53-3.21Z"/>
      <path class="cls-1" d="m225.51,109.58l.13,3.02c1.41-2.22,3.54-3.34,6.39-3.34,1.07,0,2.04.16,2.9.47.86.31,1.56.74,2.11,1.28.55.54.96,1.14,1.24,1.79.27.65.47,1.57.6,2.76.05.56.08,2.05.09,4.46v9.34h-5.12v-9.92c0-2.15-.19-3.6-.56-4.35-.58-1.12-1.53-1.69-2.87-1.69-.84,0-1.62.24-2.36.71-.74.48-1.28,1.15-1.61,2.02-.34.88-.51,2.16-.51,3.84v9.38h-5.16v-15.88c0-1.36-.06-2.66-.17-3.9h4.89Z"/>
      <path class="cls-1" d="m245.85,113.5h-3.77v-3.83h3.83v-4.05l4.93-1.63v5.68h4.61v3.83h-4.61v7.24c0,1.74.15,2.85.45,3.34.51.83,1.36,1.24,2.55,1.24.6,0,1.21-.1,1.84-.3l.13,4.09c-1.01.33-2.18.49-3.49.49-.95,0-1.78-.11-2.48-.33-.71-.22-1.31-.52-1.81-.92-.5-.39-.9-.84-1.2-1.33s-.55-1.21-.75-2.15c-.15-.69-.23-1.71-.23-3.06v-8.31Z"/>
      <path class="cls-1" d="m285.15,103.41l-.49,4.44c-.71-.36-1.59-.66-2.63-.9-1.04-.24-2-.36-2.88-.36-1.38,0-2.43.31-3.16.92-.73.61-1.1,1.32-1.1,2.12,0,.61.2,1.17.61,1.68s1.2,1,2.37,1.47l4.03,1.65c1.49.6,2.65,1.52,3.5,2.76.84,1.24,1.27,2.65,1.27,4.24,0,1.44-.29,2.69-.87,3.76-.58,1.07-1.33,1.93-2.24,2.57-.91.64-1.98,1.11-3.21,1.4-1.23.29-2.51.43-3.86.43-2.14,0-4.36-.36-6.66-1.07l.49-4.89c.82.49,1.77.88,2.85,1.19,1.07.31,2.11.46,3.11.46,1.56,0,2.75-.35,3.57-1.04.82-.69,1.23-1.5,1.23-2.43,0-.7-.22-1.31-.67-1.83-.44-.52-1.16-.99-2.15-1.42l-3.69-1.59c-1.15-.5-2.04-1.01-2.66-1.52-.82-.66-1.45-1.44-1.88-2.32-.43-.89-.65-1.91-.65-3.08,0-2.24.81-4.07,2.42-5.49,1.61-1.43,3.98-2.14,7.09-2.14,2.01,0,4.1.33,6.26.99Z"/>
      <path class="cls-1" d="m302.93,129.36l-.13-2.92c-.44.92-1.23,1.7-2.39,2.33-1.16.63-2.45.95-3.87.95-1.24,0-2.38-.26-3.43-.77-1.05-.51-1.86-1.25-2.43-2.2-.57-.96-.85-2.05-.85-3.29,0-2.24,1.02-3.92,3.06-5.06,1.56-.86,3.92-1.29,7.07-1.29.79,0,1.68.04,2.68.13.01-.24.02-.42.02-.54,0-1.24-.36-2.2-1.09-2.88-.73-.68-1.84-1.02-3.34-1.02-1.09,0-2.19.21-3.3.64-1.11.43-2.06.95-2.83,1.58l-.13-4.44c.66-.34,1.66-.65,3-.94,1.34-.29,2.66-.43,3.96-.43,1.66,0,3.07.23,4.23.69,1.16.46,2.1,1.16,2.82,2.1.5.66.84,1.53,1.01,2.6.17,1.07.26,2.63.26,4.7v2.92l.06,2.89.08,3.04.09,1.24h-4.54Zm-.26-9.02c-.64-.05-1.07-.08-1.29-.08-1.25,0-2.4.11-3.44.34-1.04.23-1.8.61-2.28,1.15-.48.54-.71,1.17-.71,1.87,0,.75.27,1.37.81,1.86.54.49,1.28.73,2.23.73.84,0,1.65-.25,2.45-.74.79-.49,1.37-1.13,1.72-1.92.35-.79.53-1.86.53-3.21Z"/>
      <path class="cls-1" d="m329.25,109.58l-7.27,19.78h-5.83l-7.33-19.78h5.55l4.93,14.46,4.8-14.46h5.16Z"/>
      <path class="cls-1" d="m337.65,105.98h-5.16v-4.84h5.16v4.84Zm-5.16,23.38v-19.78h5.16v19.78h-5.16Z"/>
      <path class="cls-1" d="m347.83,109.58l.13,3.02c1.41-2.22,3.54-3.34,6.39-3.34,1.07,0,2.04.16,2.9.47.86.31,1.56.74,2.11,1.28.55.54.96,1.14,1.24,1.79.27.65.47,1.57.6,2.76.05.56.08,2.05.09,4.46v9.34h-5.12v-9.92c0-2.15-.19-3.6-.56-4.35-.58-1.12-1.53-1.69-2.87-1.69-.84,0-1.62.24-2.36.71-.74.48-1.28,1.15-1.61,2.02-.34.88-.51,2.16-.51,3.84v9.38h-5.16v-15.88c0-1.36-.06-2.66-.17-3.9h4.89Z"/>
      <path class="cls-1" d="m379.8,112.69v-3.11h4.93v17.38c0,1.88-.16,3.37-.47,4.47-.31,1.11-.73,2.01-1.24,2.71-.51.7-1.14,1.31-1.89,1.83-.75.52-1.55.92-2.4,1.19-1.31.4-2.75.6-4.31.6-2.44,0-4.75-.46-6.94-1.37l.45-4.5c.85.54,1.85.96,2.99,1.27,1.14.31,2.2.47,3.16.47,1.21,0,2.3-.28,3.26-.85.96-.57,1.63-1.36,2.02-2.38.38-1.02.58-2.68.61-5-.75,1.35-1.71,2.35-2.89,3.01-1.18.66-2.4.98-3.68.98-1.4,0-2.73-.38-3.98-1.14-1.26-.76-2.23-1.92-2.93-3.48-.7-1.56-1.05-3.42-1.05-5.58,0-3.17.78-5.63,2.35-7.37,1.57-1.74,3.5-2.61,5.78-2.61,1.04,0,2.01.18,2.92.54.91.36,1.65.83,2.24,1.39.41.4.77.91,1.07,1.54Zm-9.04,6.09c0,2.15.42,3.74,1.26,4.76.84,1.02,1.88,1.54,3.11,1.54s2.32-.51,3.23-1.53c.9-1.02,1.35-2.43,1.35-4.23s-.45-3.34-1.35-4.39c-.9-1.05-1.96-1.57-3.19-1.57-.8,0-1.55.23-2.25.68-.7.46-1.23,1.12-1.6,1.98-.37.86-.55,1.78-.55,2.76Z"/>
      <path class="cls-1" d="m402.15,109.94l-.36,3.92c-1.56-.6-2.98-.9-4.24-.9s-2.11.22-2.68.67c-.58.44-.86.93-.86,1.47,0,.41.17.77.52,1.07.34.3.65.46.91.49.06.01.12.02.19.04l3.6,1.26c1.19.41,2.11,1.09,2.78,2.03.66.94.99,2.07.99,3.41,0,1.11-.21,2.04-.62,2.78-.41.74-.93,1.37-1.57,1.87-.63.5-1.26.87-1.88,1.11-1,.39-2.29.58-3.88.58-2,0-4.03-.29-6.09-.88l.32-4.27c1.99.82,3.65,1.24,4.99,1.24,1.25,0,2.2-.25,2.85-.75.46-.35.69-.86.69-1.54,0-.44-.11-.79-.32-1.07-.21-.27-.55-.49-1.01-.64l-2.23-.71c-2.03-.65-3.41-1.44-4.16-2.36-.75-.92-1.12-2.09-1.12-3.49,0-1.69.61-3.06,1.84-4.11,1.54-1.31,3.56-1.97,6.08-1.97,1.61,0,3.38.26,5.29.77Z"/>
    </g>
  </g>
</svg>