<?xml version="1.0" encoding="UTF-8"?>
<svg id="Layer_2" data-name="Layer 2" xmlns="http://www.w3.org/2000/svg" viewBox="0 0 182.89 182.89">
  <defs>
    <style>
      .cls-1 {
        fill: #1d3e8c;
      }
    </style>
  </defs>
  <g id="Layer_1-2" data-name="Layer 1">
    <g>
      <path class="cls-1" d="m91.44,182.89C41.02,182.89,0,141.87,0,91.44S41.02,0,91.44,0s91.44,41.02,91.44,91.44-41.02,91.44-91.44,91.44Zm0-176.49C44.55,6.4,6.4,44.55,6.4,91.44s38.15,85.04,85.04,85.04,85.04-38.15,85.04-85.04S138.34,6.4,91.44,6.4Z"/>
      <path class="cls-1" d="m136.91,133.09H45.98c-7.51,0-13.61-6.11-13.61-13.61v-56.06c0-7.51,6.11-13.61,13.61-13.61h90.93c7.51,0,13.61,6.11,13.61,13.61v56.06c0,7.51-6.11,13.61-13.61,13.61ZM45.98,56.2c-3.98,0-7.21,3.24-7.21,7.21v56.06c0,3.98,3.24,7.21,7.21,7.21h90.93c3.98,0,7.21-3.24,7.21-7.21v-56.06c0-3.98-3.24-7.21-7.21-7.21H45.98Z"/>
      <rect class="cls-1" x="122.14" y="82.43" width="6.4" height="51.2" transform="translate(-39.05 126.85) rotate(-47.29)"/>
      <rect class="cls-1" x="31.95" y="104.83" width="51.2" height="6.4" transform="translate(-58.01 67.68) rotate(-42.71)"/>
      <path class="cls-1" d="m91.44,103.23c-3.84,0-7.68-1.38-10.68-4.14l-44.2-40.8,4.34-4.7,44.2,40.8c3.55,3.28,9.12,3.28,12.67,0l44.2-40.8,4.34,4.7-44.2,40.8c-2.99,2.76-6.83,4.14-10.68,4.14Z"/>
    </g>
  </g>
</svg>