<?xml version="1.0" encoding="UTF-8"?>
<svg id="Layer_2" data-name="Layer 2" xmlns="http://www.w3.org/2000/svg" viewBox="0 0 264.3 264.3">
  <defs>
    <style>
      .cls-1 {
        fill: #1d3e8d;
      }
    </style>
  </defs>
  <g id="Layer_1-2" data-name="Layer 1">
    <g>
      <path class="cls-1" d="m132.15,264.3C59.28,264.3,0,205.01,0,132.15S59.28,0,132.15,0s132.15,59.28,132.15,132.15-59.28,132.15-132.15,132.15Zm0-257.9C62.81,6.4,6.4,62.81,6.4,132.15s56.41,125.75,125.75,125.75,125.75-56.41,125.75-125.75S201.49,6.4,132.15,6.4Z"/>
      <path class="cls-1" d="m237.03,135.35h-22.9v-6.4h16.45c-1.7-52.83-45.2-95.28-98.43-95.28s-96.74,42.45-98.43,95.28h16.45v6.4h-22.9v-3.2c0-57.83,47.05-104.88,104.88-104.88s104.88,47.05,104.88,104.88v3.2Z"/>
      <g>
        <path class="cls-1" d="m78.7,199.68v-40.55h7.13v16.71c.83-1.07,1.5-1.82,2.03-2.24.88-.7,1.87-1.26,2.97-1.66,1.1-.4,2.35-.61,3.74-.61,3.27,0,5.97,1.19,8.08,3.58s3.17,5.86,3.17,10.42c0,3.03-.46,5.67-1.37,7.92-.92,2.25-2.27,3.95-4.05,5.1-1.79,1.14-3.8,1.72-6.03,1.72-1.85,0-3.53-.39-5.04-1.16-1.51-.77-2.75-1.87-3.72-3.27v4.07h-6.89Zm7.21-13.83c0,2.89.62,5.05,1.85,6.48,1.23,1.43,2.7,2.15,4.41,2.15s3.14-.72,4.34-2.15,1.81-3.61,1.81-6.53-.58-5.03-1.73-6.43c-1.15-1.4-2.58-2.1-4.29-2.1s-3.24.73-4.5,2.19c-1.26,1.46-1.89,3.59-1.89,6.39Z"/>
        <path class="cls-1" d="m119.01,195.85v15.29h-7.21v-31.18l-.11-5.44-.08-1.93-.05-.77h7l.13,4.33c.95-1.51,2.18-2.7,3.68-3.55,1.5-.85,3.23-1.28,5.16-1.28,3.19,0,5.77,1.01,7.76,3.04,2.45,2.52,3.67,6.18,3.67,10.98,0,2.89-.44,5.46-1.32,7.71-.88,2.25-2.22,3.98-4.01,5.19-1.79,1.21-3.92,1.81-6.39,1.81-1.9,0-3.55-.38-4.94-1.14-1.39-.76-2.49-1.78-3.3-3.06Zm0-9.93c0,2.76.62,4.87,1.86,6.32,1.24,1.45,2.71,2.18,4.4,2.18s3.08-.75,4.33-2.26c1.25-1.5,1.87-3.69,1.87-6.56s-.62-5-1.87-6.55c-.97-1.2-2.27-1.8-3.91-1.8-1.87,0-3.45.74-4.74,2.23-1.29,1.49-1.94,3.63-1.94,6.43Z"/>
        <path class="cls-1" d="m151.38,171.82l.18,4.25c.92-1.48,2.14-2.63,3.67-3.45,1.53-.82,3.22-1.23,5.07-1.23,2.06,0,3.78.5,5.17,1.5,1.06.77,1.93,1.92,2.61,3.43.42-.9.94-1.64,1.56-2.22.88-.84,1.98-1.52,3.3-2.03,1.32-.51,2.68-.77,4.07-.77,1.65,0,3.1.35,4.33,1.06,1.23.7,2.17,1.61,2.83,2.72.47.81.85,2.04,1.13,3.7.19,1.09.29,2.69.29,4.81v16.08h-7.26v-15.34c0-1.99-.14-3.41-.42-4.26-.28-.85-.77-1.51-1.47-1.98-.7-.47-1.46-.7-2.28-.7-.95,0-1.87.32-2.75.96-.88.64-1.53,1.61-1.95,2.9-.42,1.29-.63,2.55-.63,3.76v14.65h-7.26v-16.71c0-1.88-.4-3.28-1.19-4.2-.79-.92-1.79-1.37-2.98-1.37-1.39,0-2.64.67-3.75,2.02-1.11,1.35-1.66,3.45-1.66,6.3v13.97h-7.26v-20.96l-.11-4.62c-.02-.81-.06-1.57-.13-2.27h6.89Z"/>
      </g>
      <path class="cls-1" d="m132.25,148.71c-1.13,0-2.26-.13-3.39-.39-4.26-1-7.84-3.85-9.82-7.82-2.63-5.26-1.77-11.76,2.14-16.18,1.65-1.86,3.65-3.24,5.94-4.09l46.82-25.04c2.69-1.44,5.85-.74,7.69,1.7,1.83,2.44,1.62,5.67-.51,7.85l-37.07,38.01c-.85,1.14-1.85,2.15-2.99,3.01-2.57,1.94-5.67,2.95-8.82,2.95Zm42.7-46.8l-45.23,24.19-.23.08c-1.36.48-2.54,1.28-3.52,2.38-2.2,2.48-2.68,6.13-1.21,9.07,1.15,2.3,3.12,3.88,5.57,4.45,2.41.57,4.92.04,6.89-1.44.68-.51,1.28-1.12,1.77-1.82l.31-.38,35.64-36.54Z"/>
      <rect class="cls-1" x="128.95" y="30.47" width="6.4" height="19.7"/>
      <rect class="cls-1" x="64.01" y="55.89" width="6.4" height="19.7" transform="translate(-26.8 66.78) rotate(-45)"/>
      <rect class="cls-1" x="187.24" y="62.54" width="19.7" height="6.4" transform="translate(11.24 158.61) rotate(-45)"/>
    </g>
  </g>
</svg>