<?xml version="1.0" encoding="UTF-8"?>
<svg id="Layer_2" data-name="Layer 2" xmlns="http://www.w3.org/2000/svg" viewBox="0 0 264.3 264.3">
  <defs>
    <style>
      .cls-1 {
        fill: #1d3e8d;
      }
    </style>
  </defs>
  <g id="Layer_1-2" data-name="Layer 1">
    <g>
      <path class="cls-1" d="m132.15,264.3C59.28,264.3,0,205.01,0,132.15S59.28,0,132.15,0s132.15,59.28,132.15,132.15-59.28,132.15-132.15,132.15Zm0-257.9C62.81,6.4,6.4,62.81,6.4,132.15s56.41,125.75,125.75,125.75,125.75-56.41,125.75-125.75S201.49,6.4,132.15,6.4Z"/>
      <g>
        <path class="cls-1" d="m132.15,226.53c-52.04,0-94.38-42.34-94.38-94.38s42.34-94.38,94.38-94.38,94.38,42.34,94.38,94.38c0,39.48-24.9,75.11-61.96,88.66l-2.2-6.01c34.55-12.64,57.76-45.85,57.76-82.65,0-48.51-39.47-87.98-87.98-87.98s-87.98,39.47-87.98,87.98,39.47,87.98,87.98,87.98v6.4Z"/>
        <polygon class="cls-1" points="170.56 192.89 175 194.9 165.05 216.72 187.55 225.05 185.86 229.61 158.46 219.47 170.56 192.89"/>
      </g>
      <polygon class="cls-1" points="130.63 150.59 83.16 110.31 87.3 105.43 130.17 141.81 184.76 84.58 189.39 89 130.63 150.59"/>
    </g>
  </g>
</svg>