<?xml version="1.0" encoding="UTF-8"?>
<svg id="Layer_2" data-name="Layer 2" xmlns="http://www.w3.org/2000/svg" viewBox="0 0 264.3 264.3">
  <defs>
    <style>
      .cls-1 {
        fill: #1d3e8d;
      }
    </style>
  </defs>
  <g id="Layer_1-2" data-name="Layer 1">
    <g>
      <path class="cls-1" d="m132.15,264.3C59.28,264.3,0,205.01,0,132.15S59.28,0,132.15,0s132.15,59.28,132.15,132.15-59.28,132.15-132.15,132.15Zm0-257.9C62.81,6.4,6.4,62.81,6.4,132.15s56.41,125.75,125.75,125.75,125.75-56.41,125.75-125.75S201.49,6.4,132.15,6.4Z"/>
      <g>
        <path class="cls-1" d="m191.72,182.78c-5.56,0-10.93-1.27-15.84-3.82-19.99-10.35-25.83-38.88-13.03-63.59,12.8-24.71,39.48-36.38,59.46-26.03s25.83,38.88,13.03,63.59h0c-6.14,11.85-15.62,21.1-26.69,26.06-5.65,2.53-11.38,3.79-16.92,3.79Zm14.75-90.83c-14.22,0-29.43,9.97-37.93,26.37-11.18,21.57-6.56,46.23,10.29,54.96,8.04,4.17,17.7,4.12,27.21-.13,9.76-4.36,18.15-12.59,23.62-23.16h0c11.18-21.57,6.56-46.23-10.29-54.96-4.04-2.09-8.42-3.08-12.9-3.08Z"/>
        <path class="cls-1" d="m175.88,178.96h0s-.02,0-.02-.01l-40.68-21.08-2.59-72.71c-.39-10.94-7.56-21.1-19.18-27.17l-5.46-2.85,5.47-2.83c11.91-6.15,24.74-6.57,35.19-1.15l73.68,38.18s.01,0,.02.01l-2.94,5.68h-.02c-16.85-8.72-39.64,1.73-50.81,23.29-5.48,10.57-7.36,22.17-5.29,32.65,2.01,10.22,7.54,18.14,15.58,22.31l-2.94,5.68Zm-34.45-25.06l19.66,10.19c-1.89-3.57-3.29-7.56-4.14-11.89-2.34-11.9-.25-24.98,5.89-36.83,8.7-16.79,23.81-27.56,38.86-29.49l-56.05-29.04c-7.03-3.64-15.47-4.02-23.81-1.19,10.43,7.3,16.71,17.89,17.12,29.28l2.45,68.97Z"/>
        <path class="cls-1" d="m196.86,151.13c-2.04,0-4.01-.47-5.83-1.41-7.15-3.71-9.35-13.71-4.91-22.29,4.45-8.58,13.89-12.55,21.04-8.85,3.59,1.86,6.04,5.29,6.9,9.66.81,4.1.1,8.59-1.99,12.63h0c-2.09,4.04-5.35,7.21-9.17,8.91-2.01.9-4.06,1.35-6.05,1.35Zm4.43-27.57c-3.48,0-7.3,2.59-9.48,6.81-2.82,5.45-1.85,11.58,2.17,13.66,1.82.94,4.07.91,6.32-.1,2.5-1.12,4.67-3.25,6.09-6.01h0c1.43-2.76,1.93-5.76,1.4-8.45-.48-2.42-1.74-4.27-3.56-5.22-.91-.47-1.91-.7-2.93-.7Z"/>
      </g>
      <g>
        <path class="cls-1" d="m87.72,127.56c-12.5,0-24.34-3.69-33.54-10.49-9.97-7.38-15.68-17.52-16.08-28.55-.8-22.49,21.17-41.6,48.98-42.59,13.33-.48,26.06,3.23,35.81,10.45,9.97,7.38,15.68,17.52,16.08,28.55.8,22.49-21.17,41.6-48.98,42.59-.76.03-1.52.04-2.27.04Zm1.65-75.27c-.68,0-1.36.01-2.05.04-24.28.86-43.49,17-42.81,35.97.32,9.05,5.11,17.44,13.48,23.63,8.59,6.36,19.89,9.63,31.78,9.2,24.28-.86,43.49-17,42.81-35.97-.32-9.05-5.11-17.44-13.48-23.63-8.1-5.99-18.59-9.23-29.73-9.23Z"/>
        <path class="cls-1" d="m88.31,101.34c-9.33,0-17.01-6.15-17.29-13.99-.29-8.05,7.34-14.88,17.01-15.22,9.66-.34,17.76,5.93,18.04,13.98.29,8.05-7.34,14.88-17,15.22-.25,0-.51.01-.76.01Zm.49-22.83c-.18,0-.36,0-.54,0h0c-6.14.22-11,4.08-10.84,8.6s5.24,8.03,11.42,7.81c6.14-.22,11-4.08,10.84-8.6-.16-4.39-4.99-7.82-10.88-7.82Z"/>
        <path class="cls-1" d="m113.39,229.76h-3.2c-38.74,0-69.09-25.62-69.13-58.34l-2.86-76.78c-.07-1.03-.11-2.05-.11-3.08l6.4-.12.11,2.86c1.77,23.35,26.02,46.58,65.59,46.58h3.2v88.89ZM45.41,116.07l2.06,55.28c0,28.27,25.9,50.6,59.53,51.94v-76.07c-18.86-.6-36.08-6.52-48.79-16.82-5.21-4.23-9.52-9.08-12.79-14.33Z"/>
        <path class="cls-1" d="m106.99,208.53v-61.3c-17.83-.55-33.83-5.71-46.42-15-12.61-9.3-20.48-21.87-22.14-35.4l-.02-.28-.29-8.04s0,0,0,0l6.4-.23v.02c.33,9.04,5.12,17.43,13.49,23.61,8.59,6.35,19.89,9.62,31.78,9.2,11.9-.42,22.92-4.48,31.04-11.43,7.91-6.77,12.09-15.48,11.77-24.53l6.4-.23h0s2.95,82.95,2.95,82.95c.6,16.91-11.44,32.27-30.67,39.12l-4.27,1.52Zm-53.09-91.67c10.66,13.51,30.05,24.02,56.29,24.02h3.2v58.36c14.04-6.47,22.6-18.31,22.15-31.13l-2.24-63c-2.18,3.4-4.97,6.57-8.32,9.44-9.22,7.89-21.64,12.49-34.98,12.97-13.34.48-26.05-3.24-35.81-10.45-.1-.07-.19-.14-.29-.21Z"/>
      </g>
    </g>
  </g>
</svg>