<?xml version="1.0" encoding="UTF-8"?>
<svg id="Layer_2" data-name="Layer 2" xmlns="http://www.w3.org/2000/svg" viewBox="0 0 264.3 264.3">
  <defs>
    <style>
      .cls-1 {
        fill: #1d3e8d;
      }
    </style>
  </defs>
  <g id="Layer_1-2" data-name="Layer 1">
    <g>
      <path class="cls-1" d="m132.15,264.3C59.28,264.3,0,205.01,0,132.15S59.28,0,132.15,0s132.15,59.28,132.15,132.15-59.28,132.15-132.15,132.15Zm0-257.9C62.81,6.4,6.4,62.81,6.4,132.15s56.41,125.75,125.75,125.75,125.75-56.41,125.75-125.75S201.49,6.4,132.15,6.4Z"/>
      <g>
        <path class="cls-1" d="m95.76,225h-9.27c-3.71,0-6.78-2.9-6.99-6.6-.07-1.32-.14-2.63-.2-3.95-.91-.22-1.82-.46-2.72-.73-.71,1.11-1.43,2.22-2.15,3.32-2.03,3.1-6.14,4.08-9.36,2.22l-8.03-4.63c-3.25-1.88-4.45-5.96-2.71-9.29.61-1.18,1.23-2.35,1.85-3.52-.6-.57-1.18-1.16-1.75-1.76-1.18.61-2.37,1.22-3.56,1.82-3.31,1.67-7.36.46-9.21-2.76l-4.63-8.02c-1.88-3.26-.87-7.39,2.3-9.4,1.11-.71,2.22-1.4,3.33-2.1-.23-.8-.45-1.61-.64-2.42-1.32-.06-2.63-.12-3.95-.2-3.7-.21-6.6-3.28-6.6-6.99v-9.27c0-3.76,2.94-6.83,6.69-6.99,1.29-.06,2.57-.1,3.86-.15.2-.83.42-1.65.66-2.47-1.09-.7-2.17-1.4-3.25-2.1-3.1-2.03-4.08-6.14-2.22-9.36l4.63-8.03c1.88-3.25,5.96-4.45,9.29-2.71,1.12.58,2.22,1.17,3.33,1.76.6-.63,1.21-1.25,1.84-1.85-.58-1.12-1.15-2.24-1.72-3.36-1.67-3.31-.46-7.36,2.75-9.21l8.03-4.63c3.25-1.88,7.38-.87,9.4,2.3.65,1.02,1.3,2.05,1.94,3.08.86-.25,1.72-.48,2.59-.69.06-1.22.12-2.44.18-3.65.21-3.7,3.28-6.6,6.99-6.6h9.27c3.76,0,6.83,2.94,6.99,6.69.05,1.19.1,2.38.14,3.56.79.19,1.57.4,2.34.62.63-1.01,1.26-2.01,1.9-3.01,2.02-3.17,6.15-4.18,9.4-2.3l8.03,4.63c3.21,1.86,4.42,5.9,2.75,9.21-.54,1.06-1.08,2.12-1.62,3.17.67.63,1.31,1.27,1.95,1.93,1.04-.55,2.09-1.11,3.14-1.65,3.33-1.74,7.41-.54,9.29,2.71l4.63,8.03c1.86,3.21.88,7.32-2.22,9.36-1,.65-2,1.3-3,1.94.26.87.5,1.75.71,2.64,1.19.04,2.38.09,3.56.14h0c3.75.16,6.69,3.24,6.69,6.99v9.27c0,3.71-2.9,6.78-6.6,6.99-1.22.07-2.44.13-3.65.18-.21.87-.44,1.74-.69,2.59,1.03.65,2.06,1.29,3.08,1.95,3.17,2.02,4.18,6.15,2.3,9.4l-4.63,8.03c-1.86,3.21-5.9,4.42-9.21,2.75-1.12-.57-2.24-1.14-3.36-1.72-.6.63-1.22,1.25-1.85,1.85.59,1.11,1.17,2.22,1.75,3.33,1.74,3.33.54,7.41-2.71,9.29l-8.03,4.63c-3.22,1.86-7.33.88-9.36-2.22-.71-1.08-1.4-2.16-2.1-3.25-.82.24-1.64.46-2.47.66-.05,1.29-.09,2.57-.15,3.86-.16,3.75-3.24,6.69-6.99,6.69Zm-21.84-18.96l2.39.85c2.14.76,4.38,1.37,6.66,1.79l2.48.46.23,4.7c.07,1.39.13,2.79.21,4.18.02.32.28.56.6.56h9.27c.32,0,.59-.25.6-.57.06-1.42.11-2.84.17-4.26l.17-4.61,2.52-.47c2.2-.41,4.37-.99,6.46-1.72l2.38-.83,2.57,3.98c.73,1.14,1.46,2.28,2.21,3.41.17.27.53.35.8.19l8.03-4.63c.27-.16.38-.52.24-.79-.61-1.17-1.23-2.34-1.85-3.51l-2.25-4.26,1.94-1.66c1.71-1.46,3.31-3.06,4.78-4.77l1.64-1.91,4.21,2.16c1.18.61,2.35,1.21,3.54,1.81.28.14.63.04.79-.24l4.63-8.03c.16-.27.07-.64-.19-.8-1.12-.71-2.25-1.42-3.37-2.12l-3.96-2.49.85-2.41c.75-2.12,1.34-4.33,1.76-6.58l.46-2.48,4.67-.23c1.31-.06,2.61-.12,3.92-.2.32-.02.56-.28.56-.6v-9.27c0-.32-.25-.59-.57-.6h0c-1.31-.06-2.61-.1-3.92-.15l-4.66-.18-.47-2.52c-.42-2.26-1.02-4.49-1.77-6.62l-.84-2.38,3.99-2.58c1.06-.68,2.12-1.36,3.17-2.05.26-.17.35-.53.19-.8l-4.63-8.03c-.16-.27-.51-.38-.79-.23-1.13.59-2.25,1.18-3.37,1.78l-4.19,2.21-1.66-1.93c-1.49-1.73-3.13-3.36-4.87-4.84l-1.93-1.64,2.18-4.24c.57-1.11,1.15-2.23,1.71-3.34.14-.28.04-.63-.24-.79l-8.03-4.63c-.28-.16-.64-.07-.8.19-.69,1.09-1.38,2.18-2.06,3.27l-2.49,3.96-2.4-.84c-2.07-.72-4.21-1.29-6.37-1.69l-2.51-.47-.18-4.79c-.05-1.26-.09-2.53-.15-3.79-.01-.31-.28-.57-.6-.57h-9.27c-.32,0-.58.25-.6.56-.08,1.33-.14,2.66-.2,3.99l-.22,4.61-2.49.46c-2.24.42-4.46,1.01-6.58,1.76l-2.41.85-2.54-4.04c-.69-1.1-1.38-2.2-2.07-3.29-.17-.27-.53-.35-.8-.19l-8.03,4.63c-.28.16-.38.51-.24.79.59,1.17,1.19,2.34,1.79,3.5l2.18,4.25-1.91,1.64c-1.7,1.47-3.31,3.07-4.77,4.78l-1.66,1.94-4.24-2.24c-1.17-.62-2.35-1.25-3.53-1.86-.28-.15-.63-.04-.79.23l-4.63,8.03c-.16.28-.08.63.19.8,1.14.75,2.3,1.49,3.45,2.23l3.95,2.54-.83,2.38c-.73,2.09-1.31,4.27-1.72,6.46l-.47,2.51-4.76.18c-1.37.05-2.74.1-4.11.16-.31.01-.57.28-.57.6v9.27c0,.32.25.58.56.6,1.37.08,2.74.14,4.11.21l4.77.23.46,2.48c.41,2.19.98,4.35,1.71,6.42l.84,2.41-3.99,2.51c-1.19.75-2.39,1.5-3.58,2.25-.27.17-.35.53-.19.8l4.63,8.03c.16.27.51.38.79.24,1.27-.64,2.53-1.29,3.79-1.94l4.16-2.14,1.64,1.92c1.43,1.67,3,3.25,4.67,4.7l1.92,1.66-2.22,4.21c-.66,1.24-1.31,2.48-1.96,3.72-.14.28-.04.63.24.79l8.03,4.63c.28.16.63.08.8-.19.76-1.16,1.51-2.33,2.26-3.5l2.57-3.99Z"/>
        <path class="cls-1" d="m90.96,194.82c-16.16,0-29.3-13.15-29.3-29.3s13.14-29.3,29.3-29.3,29.3,13.15,29.3,29.3-13.14,29.3-29.3,29.3Zm0-52.2c-12.63,0-22.9,10.27-22.9,22.9s10.27,22.9,22.9,22.9,22.9-10.27,22.9-22.9-10.27-22.9-22.9-22.9Z"/>
      </g>
      <g>
        <path class="cls-1" d="m184.54,158.26h-9.27c-3.71,0-6.78-2.9-6.99-6.6-.07-1.32-.14-2.63-.2-3.95-.92-.22-1.82-.46-2.72-.73-.71,1.11-1.43,2.22-2.15,3.32-2.03,3.1-6.14,4.08-9.36,2.22l-8.03-4.63c-3.26-1.88-4.45-5.96-2.71-9.29.61-1.18,1.23-2.35,1.85-3.52-.6-.57-1.18-1.16-1.75-1.76-1.18.61-2.37,1.22-3.56,1.82-3.31,1.67-7.36.46-9.21-2.75l-4.63-8.03c-1.88-3.25-.87-7.38,2.3-9.4,1.11-.71,2.22-1.4,3.33-2.1-.23-.8-.45-1.61-.64-2.42-1.32-.06-2.63-.12-3.95-.2-3.7-.21-6.6-3.28-6.6-6.99v-9.27c0-3.76,2.94-6.83,6.69-6.99,1.29-.06,2.58-.1,3.86-.15.2-.83.42-1.65.66-2.47-1.09-.7-2.17-1.39-3.25-2.1-3.1-2.03-4.08-6.14-2.22-9.36l4.63-8.03c1.88-3.25,5.96-4.44,9.29-2.71,1.11.58,2.22,1.17,3.33,1.76.6-.63,1.21-1.25,1.84-1.85-.58-1.12-1.15-2.24-1.72-3.36-1.67-3.31-.46-7.36,2.75-9.21l8.03-4.63c3.25-1.88,7.38-.87,9.4,2.3.65,1.02,1.3,2.05,1.94,3.08.86-.25,1.72-.48,2.59-.69.06-1.22.12-2.43.18-3.65.21-3.7,3.28-6.6,6.99-6.6h9.27c3.76,0,6.83,2.94,6.99,6.69.05,1.19.1,2.38.14,3.56.79.19,1.57.4,2.34.62.63-1.01,1.26-2.01,1.9-3.01,2.02-3.17,6.15-4.18,9.4-2.3l8.03,4.63c3.21,1.86,4.42,5.9,2.75,9.21-.54,1.06-1.08,2.12-1.62,3.17.66.63,1.31,1.27,1.94,1.93,1.04-.55,2.09-1.11,3.14-1.65,3.33-1.73,7.41-.54,9.29,2.71l4.63,8.03c1.86,3.21.88,7.32-2.22,9.36-1,.65-2,1.3-3,1.94.26.87.5,1.75.71,2.64,1.19.04,2.38.09,3.56.14h0c3.75.16,6.69,3.24,6.69,6.99v9.27c0,3.71-2.9,6.78-6.6,6.99-1.22.07-2.43.13-3.65.18-.21.87-.44,1.74-.69,2.59,1.03.65,2.06,1.29,3.08,1.94,3.17,2.02,4.18,6.15,2.3,9.4l-4.63,8.03c-1.86,3.21-5.9,4.42-9.21,2.75-1.12-.57-2.24-1.14-3.36-1.72-.6.63-1.22,1.25-1.85,1.85.59,1.11,1.18,2.22,1.76,3.33,1.73,3.33.54,7.41-2.71,9.29l-8.03,4.63c-3.21,1.86-7.33.88-9.36-2.22-.71-1.08-1.4-2.16-2.1-3.25-.82.24-1.64.46-2.47.66-.05,1.29-.09,2.58-.15,3.86-.16,3.75-3.23,6.69-6.99,6.69Zm-21.84-18.96l2.39.85c2.14.76,4.38,1.36,6.66,1.79l2.48.46.23,4.71c.07,1.39.13,2.79.21,4.18.02.32.28.56.6.56h9.27c.32,0,.59-.25.6-.57.06-1.38.11-2.76.16-4.14l.18-4.73,2.51-.47c2.2-.41,4.38-.99,6.46-1.72l2.38-.83,2.57,3.98c.73,1.14,1.46,2.28,2.21,3.41.17.26.53.35.8.19l8.03-4.63c.27-.16.38-.52.24-.79-.62-1.19-1.25-2.37-1.87-3.55l-2.22-4.21,1.94-1.66c1.71-1.46,3.31-3.06,4.78-4.77l1.64-1.91,4.2,2.16c1.18.61,2.36,1.22,3.55,1.82.28.14.63.04.79-.24l4.63-8.03c.16-.27.07-.64-.19-.8-1.1-.7-2.21-1.39-3.31-2.09l-4.01-2.52.85-2.41c.75-2.12,1.34-4.33,1.76-6.58l.46-2.48,4.69-.23c1.3-.06,2.6-.12,3.9-.2.31-.02.56-.29.56-.6v-9.27c0-.32-.26-.59-.57-.6-1.28-.06-2.55-.1-3.83-.15l-4.74-.18-.47-2.51c-.42-2.26-1.02-4.49-1.77-6.62l-.84-2.38,3.97-2.56c1.07-.68,2.13-1.37,3.19-2.06.26-.17.35-.53.19-.8l-4.63-8.03c-.16-.28-.52-.38-.79-.23-1.15.6-2.29,1.2-3.44,1.81l-4.12,2.18-1.66-1.93c-1.49-1.74-3.13-3.37-4.87-4.84l-1.93-1.64,2.12-4.13c.59-1.15,1.19-2.3,1.77-3.45.14-.28.04-.63-.24-.79l-8.03-4.63c-.28-.16-.64-.07-.8.19-.69,1.08-1.37,2.16-2.05,3.25l-2.51,3.99-2.4-.83c-2.06-.72-4.21-1.29-6.37-1.69l-2.51-.47-.17-4.63c-.05-1.31-.1-2.63-.15-3.94-.01-.31-.28-.57-.6-.57h-9.27c-.32,0-.58.25-.6.56-.07,1.29-.13,2.57-.19,3.86l-.23,4.74-2.48.46c-2.24.42-4.46,1.01-6.58,1.76l-2.41.85-2.55-4.06c-.68-1.09-1.37-2.18-2.06-3.27-.17-.27-.53-.35-.8-.19l-8.03,4.63c-.28.16-.38.51-.24.79.59,1.17,1.19,2.33,1.79,3.49l2.18,4.25-1.91,1.64c-1.71,1.47-3.31,3.08-4.76,4.78l-1.66,1.94-4.22-2.23c-1.18-.63-2.36-1.25-3.55-1.87-.28-.15-.64-.04-.79.23l-4.63,8.03c-.16.28-.08.63.19.8,1.14.74,2.28,1.48,3.42,2.21l3.97,2.56-.83,2.38c-.73,2.09-1.31,4.26-1.72,6.46l-.47,2.51-4.79.18c-1.36.05-2.72.1-4.08.16-.31.01-.57.28-.57.6v9.27c0,.32.25.59.56.6,1.37.08,2.74.14,4.11.21l4.77.23.46,2.48c.41,2.18.98,4.34,1.71,6.42l.84,2.41-4.06,2.55c-1.17.73-2.34,1.46-3.5,2.21-.26.17-.35.53-.19.8l4.63,8.03c.16.28.51.38.79.24,1.27-.64,2.53-1.29,3.79-1.94l4.16-2.14,1.64,1.92c1.43,1.67,3.01,3.26,4.67,4.7l1.92,1.66-2.22,4.21c-.66,1.24-1.31,2.48-1.96,3.72-.14.28-.04.64.24.79l8.03,4.63c.27.16.63.07.8-.19.76-1.16,1.51-2.33,2.26-3.5l2.57-3.99Z"/>
        <path class="cls-1" d="m179.74,128.08c-16.16,0-29.3-13.15-29.3-29.3s13.14-29.3,29.3-29.3,29.3,13.15,29.3,29.3-13.14,29.3-29.3,29.3Zm0-52.2c-12.63,0-22.9,10.27-22.9,22.9s10.27,22.9,22.9,22.9,22.9-10.27,22.9-22.9-10.27-22.9-22.9-22.9Z"/>
      </g>
    </g>
  </g>
</svg>