<?xml version="1.0" encoding="UTF-8"?>
<svg width="223px" height="76px" viewBox="0 0 223 76" version="1.1" xmlns="http://www.w3.org/2000/svg" xmlns:xlink="http://www.w3.org/1999/xlink">
    <!-- Generator: Sketch 52.2 (67145) - http://www.bohemiancoding.com/sketch -->
    <title>Group 3</title>
    <desc>Created with Sketch.</desc>
    <defs>
        <linearGradient x1="50%" y1="-78.1945793%" x2="50%" y2="177.05791%" id="linearGradient-1">
            <stop stop-color="#414953" offset="0%"></stop>
            <stop stop-color="#FFFFFF" stop-opacity="0" offset="66.2254735%"></stop>
            <stop stop-color="#FFFFFF" stop-opacity="0" offset="100%"></stop>
        </linearGradient>
    </defs>
    <g id="Symbols" stroke="none" stroke-width="1" fill="none" fill-rule="evenodd">
        <g id="委托-copy-2" transform="translate(-558.000000, -157.000000)">
            <g id="Group-3" transform="translate(558.000000, 156.000000)">
                <g id="Group-15">
                    <path d="M222.807161,79.491553 C222.807161,62.3529259 172.973247,48.4593235 111.5,48.4593235 C50.0267527,48.4593235 0.192839476,62.3529259 0.192839476,79.491553" id="Oval" fill="url(#linearGradient-1)" opacity="0.243470982"></path>
                    <g id="委托登记entrust_register" transform="translate(85.000000, 0.835329)" fill="#414953" fill-rule="nonzero">
                        <path d="M52.678839,37.5690546 C52.0281599,36.9183755 41.4004013,27.591975 40.7497221,26.9412959 C40.099043,26.2906169 39.4483639,26.2906169 39.4483639,26.2906168 L22.5307073,26.2906168 C22.5307073,26.2906168 19.9279909,26.6159564 19.9279909,29.0017797 C19.9279909,30.6284775 20.9040096,32.0382822 22.5307073,32.3636218 C24.1574051,32.6889614 27.1939075,33.3396404 29.796624,33.66498 C30.7726426,33.66498 29.796624,34.315659 29.796624,34.315659 L26.4347819,36.5930359 L15.1563442,36.5930359 C15.1563442,36.5930359 10.493144,33.2311939 7.23974849,30.6284775 C2.25120869,26.9412959 0.299171424,30.6284775 0.299171424,30.6284775 C0.299171424,30.6284775 -0.351507666,31.9298357 0.299171424,32.5805148 C2.90188785,34.8578916 12.5536278,43.533613 13.2043069,44.1842921 C13.854986,44.8349711 14.8310046,44.5096316 14.8310046,44.5096316 L34.3513777,44.5096316 C35.9780754,44.5096316 36.9540941,45.4856503 36.954094,45.4856503 C36.954094,45.4856503 39.9905965,48.1968132 40.9666152,48.8474923 C42.5933129,50.1488505 43.243992,48.8474923 43.243992,48.8474923 L52.1366064,39.1957523 C52.678839,39.1957523 53.3295181,38.2197337 52.678839,37.5690546 Z" id="Shape"></path>
                        <path d="M16.3354386,6.74382411 L16.3354386,5.81917753 C16.3354386,5.26689278 15.8877234,4.81917753 15.3354386,4.81917753 C14.7831539,4.81917753 14.3354386,5.26689278 14.3354386,5.81917753 L14.3354386,6.73923516 C13.5212745,6.84690629 12.8246961,7.10244968 12.2394386,7.51212988 C11.3754386,8.08812988 10.9594386,8.88812988 10.9594386,9.89612988 C10.9594386,10.9041299 11.3914386,11.6721299 12.2714386,12.2001299 C12.5604226,12.3652636 13.2518157,12.6250818 14.3354386,12.9795845 L14.3354386,16.7967724 C13.9483818,16.7130459 13.6345676,16.5817934 13.3914386,16.4081299 C12.8954386,16.0401299 12.5914386,15.4161299 12.4634386,14.5521299 L10.6074386,14.5521299 C10.6874386,16.0081299 11.2154386,17.0641299 12.1754386,17.7361299 C12.734598,18.124118 13.4565329,18.373747 14.3354386,18.4850167 L14.3354386,18.8370822 C14.3354386,19.389367 14.7831539,19.8370822 15.3354386,19.8370822 C15.8877234,19.8370822 16.3354386,19.389367 16.3354386,18.8370822 L16.3354386,18.5132317 C17.3839371,18.414419 18.2292606,18.1287381 18.8634386,17.6721299 C19.6634386,17.0801299 20.0634386,16.2641299 20.0634386,15.2401299 C20.0634386,14.1841299 19.5674386,13.3681299 18.5754386,12.7761299 C18.2045811,12.5642113 17.4609399,12.2645789 16.3354386,11.8953852 L16.3354386,8.42111976 C16.6284957,8.49710762 16.8749529,8.60898705 17.0714386,8.76012988 C17.4874386,9.06412988 17.7914386,9.57612988 17.9514386,10.2801299 L19.8074386,10.2801299 C19.6954386,9.03212988 19.2314386,8.10412988 18.4314386,7.51212988 C17.8889655,7.10816052 17.1882967,6.85406067 16.3354386,6.74382411 Z M14.3354386,8.35301226 L14.3354386,11.2383978 C13.9909705,11.1144916 13.755566,11.0183312 13.6314386,10.9521299 C13.0874386,10.6641299 12.8314386,10.2641299 12.8314386,9.78412988 C12.8314386,9.24012988 13.0554386,8.84012988 13.5354386,8.60012988 C13.7508259,8.48346176 14.0165514,8.40203039 14.3354386,8.35301226 Z M16.3354386,16.8446432 L16.3354386,13.6171093 C16.74075,13.7539385 17.001301,13.8530611 17.1194386,13.9121299 C17.8234386,14.2641299 18.1914386,14.7441299 18.1914386,15.3521299 C18.1914386,15.8321299 17.9354386,16.2001299 17.4554386,16.4881299 C17.1548028,16.6584902 16.7788487,16.7786383 16.3354386,16.8446432 Z M15.3354386,0.828129885 C21.6856291,0.828129885 26.8354386,5.97574892 26.8354386,12.3281299 C26.8354386,18.6794156 21.6856291,23.8281299 15.3354386,23.8281299 C8.9841529,23.8281299 3.83543861,18.6794156 3.83543861,12.3281299 C3.83543861,5.97574892 8.9841529,0.828129885 15.3354386,0.828129885 Z" id="Combined-Shape"></path>
                    </g>
                </g>
            </g>
        </g>
    </g>
</svg>