<?xml version="1.0" encoding="UTF-8"?>
<svg id="Layer_2" data-name="Layer 2" xmlns="http://www.w3.org/2000/svg" viewBox="0 0 597.09 149.79">
  <defs>
    <style>
      .cls-1 {
        fill: #fff;
      }

      .cls-2 {
        fill: #1d3e8e;
      }

      .cls-3 {
        fill: #009ce0;
      }
    </style>
  </defs>
  <g id="Layer_1-2" data-name="Layer 1">
    <rect class="cls-2" x="0" y="0" width="597.09" height="149.79" rx="74.9" ry="74.9"/>
    <g>
      <path class="cls-1" d="m59.92,98.03v-45.76h9.3v37.91h17.7v7.85h-27Z"/>
      <path class="cls-1" d="m93.49,98.03v-45.54h27.07v7.63h-17.77v10.85h16.25v7.47h-16.25v11.97h17.93v7.63h-27.23Z"/>
      <path class="cls-1" d="m161.04,52.33v7.79h-13.29v37.91h-9.3v-37.91h-12.97v-7.79h35.56Z"/>
      <path class="cls-1" d="m168.02,52.27h9.56l-5.95,16.48h-7.79l4.18-16.48Z"/>
      <path class="cls-1" d="m210.53,53.49l-.84,7.63c-1.22-.62-2.73-1.14-4.52-1.54-1.79-.41-3.44-.61-4.94-.61-2.36,0-4.17.53-5.42,1.58-1.26,1.05-1.88,2.26-1.88,3.64,0,1.05.35,2.01,1.05,2.88.7.87,2.05,1.71,4.07,2.53l6.92,2.83c2.55,1.03,4.55,2.61,6,4.73s2.17,4.55,2.17,7.27c0,2.47-.5,4.62-1.5,6.45-1,1.83-2.28,3.3-3.85,4.41-1.57,1.11-3.4,1.9-5.5,2.4-2.1.49-4.31.74-6.63.74-3.67,0-7.48-.61-11.43-1.83l.84-8.4c1.42.84,3.05,1.52,4.89,2.04,1.84.53,3.63.79,5.34.79,2.68,0,4.73-.6,6.13-1.79,1.41-1.19,2.11-2.58,2.11-4.17,0-1.2-.38-2.25-1.14-3.14-.76-.89-1.99-1.7-3.69-2.43l-6.34-2.74c-1.97-.86-3.5-1.73-4.57-2.61-1.42-1.14-2.49-2.47-3.23-3.99-.74-1.52-1.11-3.28-1.11-5.28,0-3.84,1.38-6.98,4.15-9.43,2.77-2.45,6.82-3.67,12.17-3.67,3.45,0,7.04.57,10.75,1.71Z"/>
      <path class="cls-1" d="m265.47,53.49l-.84,7.63c-1.22-.62-2.73-1.14-4.52-1.54-1.79-.41-3.44-.61-4.94-.61-2.36,0-4.17.53-5.42,1.58-1.26,1.05-1.88,2.26-1.88,3.64,0,1.05.35,2.01,1.05,2.88.7.87,2.05,1.71,4.07,2.53l6.92,2.83c2.55,1.03,4.55,2.61,6,4.73s2.17,4.55,2.17,7.27c0,2.47-.5,4.62-1.5,6.45-1,1.83-2.28,3.3-3.85,4.41-1.57,1.11-3.4,1.9-5.5,2.4-2.1.49-4.31.74-6.63.74-3.67,0-7.48-.61-11.43-1.83l.84-8.4c1.42.84,3.05,1.52,4.89,2.04,1.84.53,3.63.79,5.34.79,2.68,0,4.73-.6,6.13-1.79,1.41-1.19,2.11-2.58,2.11-4.17,0-1.2-.38-2.25-1.14-3.14-.76-.89-1.99-1.7-3.69-2.43l-6.34-2.74c-1.97-.86-3.5-1.73-4.57-2.61-1.42-1.14-2.49-2.47-3.23-3.99-.74-1.52-1.11-3.28-1.11-5.28,0-3.84,1.38-6.98,4.15-9.43,2.77-2.45,6.82-3.67,12.17-3.67,3.45,0,7.04.57,10.75,1.71Z"/>
      <path class="cls-1" d="m307.6,52.33v7.79h-13.29v37.91h-9.3v-37.91h-12.97v-7.79h35.56Z"/>
      <path class="cls-1" d="m303.48,98.03l17.99-45.76h10.4l18.09,45.76h-10.23l-3.83-10.46h-18.89l-3.89,10.46h-9.62Zm16.32-17.86h13.29l-6.63-18.76-6.66,18.76Z"/>
      <path class="cls-1" d="m355.49,52.27h13.03c3.75,0,6.24.06,7.47.19,1.82.21,3.34.61,4.54,1.19,1.2.58,2.31,1.41,3.31,2.48,1.01,1.07,1.77,2.3,2.3,3.69.53,1.38.79,2.86.79,4.43,0,1.78-.31,3.34-.92,4.68-.61,1.34-1.34,2.44-2.19,3.28-.85.85-1.74,1.5-2.69,1.96-.94.46-2.12.81-3.54,1.05.81.04,1.64.43,2.48,1.17s1.57,1.83,2.19,3.27l1.06,2.45,6.57,15.93h-10.3l-4.96-12.91c-.58-1.5-1.01-2.51-1.29-3.03-.47-.9-.94-1.57-1.4-2-.46-.43-.97-.73-1.53-.9-.86-.24-2.08-.35-3.67-.35-.56,0-1.21.03-1.96.1v19.08h-9.3v-45.76Zm9.3,7.18v12.42h4.06c2.94,0,5.09-.62,6.45-1.87,1.36-1.24,2.04-2.84,2.04-4.8,0-1.67-.61-3.05-1.82-4.14-1.21-1.08-3.01-1.63-5.39-1.63h-5.34Z"/>
      <path class="cls-1" d="m427.16,52.33v7.79h-13.29v37.91h-9.3v-37.91h-12.97v-7.79h35.56Z"/>
    </g>
    <circle class="cls-1" cx="521.36" cy="74.9" r="59.04"/>
    <g>
      <path class="cls-3" d="m499.65,48.05c-1.37,1.25-3.49,1.17-4.73-.19-1.24-1.36-1.13-3.47.24-4.72,1.37-1.25,3.49-1.17,4.72.18,1.25,1.36,1.13,3.48-.23,4.73"/>
      <path class="cls-3" d="m506.38,55.42c-1.37,1.25-3.49,1.16-4.73-.19-1.24-1.35-1.13-3.47.24-4.72,1.37-1.25,3.49-1.17,4.72.18,1.25,1.36,1.13,3.48-.23,4.73"/>
      <path class="cls-3" d="m513.11,62.79c-1.37,1.25-3.49,1.17-4.72-.19-1.24-1.35-1.14-3.47.24-4.72,1.37-1.25,3.48-1.17,4.72.18,1.24,1.36,1.13,3.48-.24,4.73"/>
      <path class="cls-3" d="m519.84,70.16c-1.37,1.25-3.49,1.17-4.72-.19-1.24-1.36-1.14-3.47.24-4.72,1.37-1.25,3.48-1.17,4.72.18,1.24,1.36,1.13,3.48-.24,4.73"/>
      <path class="cls-3" d="m526.97,77.35c-1.37,1.25-3.49,1.17-4.72-.19-1.24-1.36-1.14-3.47.24-4.72,1.37-1.25,3.48-1.17,4.72.18,1.24,1.36,1.13,3.48-.24,4.73"/>
      <path class="cls-3" d="m515.28,84.53c-1.36-1.26-1.46-3.37-.21-4.74,1.25-1.35,3.38-1.43,4.74-.17,1.37,1.25,1.46,3.37.22,4.73-1.25,1.36-3.37,1.44-4.74.18"/>
      <path class="cls-3" d="m508.49,91.9c-1.36-1.26-1.46-3.38-.21-4.74,1.24-1.35,3.37-1.43,4.73-.17,1.37,1.25,1.46,3.38.22,4.73-1.25,1.36-3.37,1.44-4.74.18"/>
      <path class="cls-3" d="m501.7,99.27c-1.36-1.26-1.46-3.38-.21-4.74,1.25-1.35,3.38-1.43,4.73-.17,1.37,1.26,1.46,3.38.22,4.73-1.25,1.36-3.37,1.44-4.74.18"/>
      <path class="cls-3" d="m494.91,106.64c-1.37-1.26-1.46-3.38-.21-4.74,1.25-1.35,3.37-1.43,4.73-.17,1.37,1.25,1.46,3.38.22,4.73-1.25,1.36-3.37,1.44-4.74.18"/>
      <path class="cls-3" d="m527.75,48.05c-1.37,1.25-3.49,1.17-4.73-.19-1.24-1.36-1.13-3.47.24-4.72,1.37-1.25,3.48-1.17,4.72.18,1.24,1.36,1.13,3.48-.24,4.73"/>
      <path class="cls-3" d="m534.48,55.42c-1.37,1.25-3.49,1.16-4.72-.19-1.24-1.35-1.13-3.47.24-4.72,1.37-1.25,3.49-1.17,4.72.18,1.24,1.36,1.13,3.48-.24,4.73"/>
      <path class="cls-3" d="m541.22,62.79c-1.37,1.25-3.49,1.17-4.73-.19-1.24-1.35-1.14-3.47.24-4.72,1.37-1.25,3.49-1.17,4.72.18,1.24,1.36,1.13,3.48-.23,4.73"/>
      <path class="cls-3" d="m547.95,70.16c-1.37,1.25-3.49,1.17-4.73-.19-1.24-1.36-1.13-3.47.24-4.72,1.37-1.25,3.49-1.17,4.72.18,1.24,1.36,1.13,3.48-.23,4.73"/>
      <path class="cls-3" d="m555.08,77.35c-1.37,1.25-3.49,1.17-4.72-.19-1.24-1.36-1.14-3.47.24-4.72,1.37-1.25,3.48-1.17,4.72.18,1.24,1.36,1.13,3.48-.24,4.73"/>
      <path class="cls-3" d="m543.39,84.53c-1.36-1.26-1.46-3.37-.21-4.74,1.24-1.35,3.37-1.43,4.73-.17,1.37,1.25,1.46,3.37.22,4.73-1.25,1.36-3.37,1.44-4.74.18"/>
      <path class="cls-3" d="m536.6,91.9c-1.36-1.26-1.46-3.38-.21-4.74,1.25-1.35,3.38-1.43,4.73-.17,1.37,1.25,1.47,3.38.22,4.73-1.25,1.36-3.37,1.44-4.74.18"/>
      <path class="cls-3" d="m529.81,99.27c-1.36-1.26-1.46-3.38-.21-4.74,1.25-1.35,3.37-1.43,4.73-.17,1.37,1.26,1.47,3.38.22,4.73-1.25,1.36-3.37,1.44-4.74.18"/>
      <path class="cls-3" d="m523.02,106.64c-1.37-1.26-1.46-3.38-.21-4.74,1.25-1.35,3.37-1.43,4.73-.17,1.37,1.25,1.47,3.38.22,4.73-1.25,1.36-3.37,1.44-4.74.18"/>
    </g>
  </g>
</svg>