<?xml version="1.0" encoding="UTF-8"?>
<svg id="Layer_2" data-name="Layer 2" xmlns="http://www.w3.org/2000/svg" xmlns:xlink="http://www.w3.org/1999/xlink" viewBox="0 0 410.25 370.62">
  <defs>
    <style>
      .cls-1 {
        fill: url(#linear-gradient-2);
      }

      .cls-2 {
        fill: url(#linear-gradient-15);
      }

      .cls-3 {
        fill: url(#linear-gradient-14);
      }

      .cls-4 {
        fill: url(#linear-gradient-6);
      }

      .cls-5 {
        fill: url(#linear-gradient-11);
      }

      .cls-6 {
        fill: #1d3e8e;
      }

      .cls-7 {
        fill: url(#linear-gradient-10);
      }

      .cls-8 {
        fill: url(#linear-gradient-16);
      }

      .cls-9 {
        fill: url(#linear-gradient-5);
      }

      .cls-10 {
        fill: #046fb4;
      }

      .cls-11 {
        fill: url(#linear-gradient-7);
      }

      .cls-12 {
        fill: url(#linear-gradient-9);
      }

      .cls-13 {
        fill: url(#linear-gradient-3);
      }

      .cls-14 {
        fill: #25a0da;
      }

      .cls-15 {
        fill: url(#linear-gradient);
      }

      .cls-16 {
        fill: #1b9cd9;
      }

      .cls-17 {
        fill: url(#linear-gradient-4);
      }

      .cls-18 {
        fill: url(#linear-gradient-8);
      }

      .cls-19 {
        fill: url(#linear-gradient-12);
      }

      .cls-20 {
        fill: url(#linear-gradient-13);
      }
    </style>
    <linearGradient id="linear-gradient" x1="124.77" y1="32" x2="174.21" y2="32" gradientUnits="userSpaceOnUse">
      <stop offset=".08" stop-color="#25a0da"/>
      <stop offset=".8" stop-color="#e4f3fa"/>
    </linearGradient>
    <linearGradient id="linear-gradient-2" x1="129.53" y1="108.23" x2="249.29" y2="108.23" gradientUnits="userSpaceOnUse">
      <stop offset=".21" stop-color="#1b9cd9"/>
      <stop offset=".44" stop-color="#89cceb"/>
      <stop offset=".51" stop-color="#89cceb"/>
      <stop offset=".74" stop-color="#1b9cd9"/>
    </linearGradient>
    <linearGradient id="linear-gradient-3" x1="87.32" y1="25.67" x2="122.6" y2="25.67" gradientUnits="userSpaceOnUse">
      <stop offset=".25" stop-color="#25a0da"/>
      <stop offset=".95" stop-color="#fafdfe"/>
    </linearGradient>
    <linearGradient id="linear-gradient-4" x1="55.53" y1="108.39" x2="123.72" y2="108.39" gradientUnits="userSpaceOnUse">
      <stop offset=".03" stop-color="#1b9cd9"/>
      <stop offset=".11" stop-color="#219eda"/>
      <stop offset=".21" stop-color="#32a6dc"/>
      <stop offset=".33" stop-color="#4fb3e1"/>
      <stop offset=".46" stop-color="#77c4e8"/>
      <stop offset=".51" stop-color="#89cceb"/>
      <stop offset=".53" stop-color="#7ec7e9"/>
      <stop offset=".6" stop-color="#5bb7e3"/>
      <stop offset=".67" stop-color="#3fabde"/>
      <stop offset=".74" stop-color="#2aa2db"/>
      <stop offset=".81" stop-color="#1e9dd9"/>
      <stop offset=".88" stop-color="#1b9cd9"/>
    </linearGradient>
    <linearGradient id="linear-gradient-5" x1="82.85" y1="75.81" x2="176.93" y2="75.81" gradientUnits="userSpaceOnUse">
      <stop offset=".2" stop-color="#1b9cd9"/>
      <stop offset=".29" stop-color="#55b5e2"/>
      <stop offset=".41" stop-color="#97d1ed"/>
      <stop offset=".47" stop-color="#b2ddf2"/>
      <stop offset=".51" stop-color="#7cc5e9"/>
      <stop offset=".56" stop-color="#52b3e2"/>
      <stop offset=".6" stop-color="#34a6dd"/>
      <stop offset=".63" stop-color="#219eda"/>
      <stop offset=".66" stop-color="#1b9cd9"/>
      <stop offset=".72" stop-color="#26a0da"/>
      <stop offset=".83" stop-color="#44aedf"/>
      <stop offset=".98" stop-color="#74c3e7"/>
      <stop offset="1" stop-color="#7bc6e9"/>
    </linearGradient>
    <linearGradient id="linear-gradient-6" x1="144.41" y1="64.34" x2="241.98" y2="64.34" gradientUnits="userSpaceOnUse">
      <stop offset=".07" stop-color="#1b9cd9"/>
      <stop offset=".33" stop-color="#fafdfe"/>
      <stop offset=".37" stop-color="#f1f9fc"/>
      <stop offset=".43" stop-color="#dcf0f9"/>
      <stop offset=".52" stop-color="#b8e0f3"/>
      <stop offset=".61" stop-color="#86cbea"/>
      <stop offset=".63" stop-color="#7bc6e9"/>
      <stop offset=".65" stop-color="#74c4e8"/>
      <stop offset=".69" stop-color="#61bee7"/>
      <stop offset=".73" stop-color="#43b6e5"/>
      <stop offset=".74" stop-color="#3cb4e5"/>
      <stop offset="1" stop-color="#fafdfe"/>
    </linearGradient>
    <linearGradient id="linear-gradient-7" x1="177.49" y1="51.46" x2="240.75" y2="42.57" gradientUnits="userSpaceOnUse">
      <stop offset=".05" stop-color="#d6edf8"/>
      <stop offset=".7" stop-color="#30a5dc"/>
      <stop offset="1" stop-color="#fafdfe"/>
    </linearGradient>
    <linearGradient id="linear-gradient-8" x1="176.63" y1="39.15" x2="238.87" y2="30.4" gradientUnits="userSpaceOnUse">
      <stop offset="0" stop-color="#c2e4f5"/>
      <stop offset=".09" stop-color="#b4def2"/>
      <stop offset=".25" stop-color="#8fceec"/>
      <stop offset=".47" stop-color="#55b5e2"/>
      <stop offset=".6" stop-color="#30a5dc"/>
      <stop offset=".62" stop-color="#3fabde"/>
      <stop offset=".69" stop-color="#77c4e8"/>
      <stop offset=".77" stop-color="#a6d8ef"/>
      <stop offset=".83" stop-color="#cae8f6"/>
      <stop offset=".9" stop-color="#e4f3fa"/>
      <stop offset=".96" stop-color="#f4fafd"/>
      <stop offset="1" stop-color="#fafdfe"/>
    </linearGradient>
    <linearGradient id="linear-gradient-9" x1="183.21" y1="94.56" x2="248.78" y2="94.56" gradientUnits="userSpaceOnUse">
      <stop offset=".36" stop-color="#1b9cd9"/>
      <stop offset=".42" stop-color="#229fda"/>
      <stop offset=".51" stop-color="#38a8dd"/>
      <stop offset=".62" stop-color="#5cb8e3"/>
      <stop offset=".75" stop-color="#8dcdec"/>
      <stop offset=".89" stop-color="#cce8f6"/>
      <stop offset=".91" stop-color="#d6edf8"/>
    </linearGradient>
    <linearGradient id="linear-gradient-10" x1="180.87" y1="79.33" x2="247.24" y2="79.33" gradientUnits="userSpaceOnUse">
      <stop offset=".14" stop-color="#1b9cd9"/>
      <stop offset=".91" stop-color="#d6edf8"/>
    </linearGradient>
    <linearGradient id="linear-gradient-11" x1="250.18" y1="77.58" x2="334.23" y2="77.58" gradientUnits="userSpaceOnUse">
      <stop offset=".19" stop-color="#25a0da"/>
      <stop offset=".26" stop-color="#33a6dc"/>
      <stop offset=".38" stop-color="#58b6e2"/>
      <stop offset=".54" stop-color="#94d0ec"/>
      <stop offset=".75" stop-color="#e6f4fa"/>
      <stop offset=".79" stop-color="#fafdfe"/>
    </linearGradient>
    <linearGradient id="linear-gradient-12" x1="247.71" y1="70.09" x2="329.86" y2="52.62" gradientUnits="userSpaceOnUse">
      <stop offset="0" stop-color="#d6edf8"/>
      <stop offset=".04" stop-color="#abdaf0"/>
      <stop offset=".1" stop-color="#72c1e7"/>
      <stop offset=".15" stop-color="#48afdf"/>
      <stop offset=".19" stop-color="#2ea4db"/>
      <stop offset=".21" stop-color="#25a0da"/>
      <stop offset=".38" stop-color="#25a0da"/>
      <stop offset=".54" stop-color="#6dbfe6"/>
      <stop offset=".72" stop-color="#b8e0f2"/>
      <stop offset=".86" stop-color="#e7f5fa"/>
      <stop offset=".92" stop-color="#fafdfe"/>
    </linearGradient>
    <linearGradient id="linear-gradient-13" x1="249.45" y1="71.24" x2="332.36" y2="71.24" gradientUnits="userSpaceOnUse">
      <stop offset=".31" stop-color="#25a0da"/>
      <stop offset=".37" stop-color="#32a5dc"/>
      <stop offset=".46" stop-color="#56b5e2"/>
      <stop offset=".59" stop-color="#90cfec"/>
      <stop offset=".75" stop-color="#e0f1f9"/>
      <stop offset=".8" stop-color="#fafdfe"/>
    </linearGradient>
    <linearGradient id="linear-gradient-14" x1="84.21" y1="66.77" x2="122.14" y2="66.77" gradientUnits="userSpaceOnUse">
      <stop offset="0" stop-color="#1b9cd9"/>
      <stop offset=".25" stop-color="#5db9e4"/>
      <stop offset=".77" stop-color="#1b9cd9"/>
    </linearGradient>
    <linearGradient id="linear-gradient-15" x1="124.87" y1="40.29" x2="173.63" y2="40.29" gradientUnits="userSpaceOnUse">
      <stop offset=".08" stop-color="#25a0da"/>
      <stop offset=".78" stop-color="#bde2f4"/>
      <stop offset="1" stop-color="#fafdfe"/>
    </linearGradient>
    <linearGradient id="linear-gradient-16" x1="124.77" y1="19.95" x2="172.59" y2="19.95" gradientUnits="userSpaceOnUse">
      <stop offset="0" stop-color="#25a0da"/>
      <stop offset=".03" stop-color="#2ea4db"/>
      <stop offset=".24" stop-color="#76c3e7"/>
      <stop offset=".43" stop-color="#aedcf1"/>
      <stop offset=".59" stop-color="#d7eef8"/>
      <stop offset=".72" stop-color="#f0f8fc"/>
      <stop offset=".8" stop-color="#fafdfe"/>
    </linearGradient>
  </defs>
  <g id="Layer_1-2" data-name="Layer 1">
    <g>
      <path class="cls-6" d="m113.17,299.36v2.63c-.59-.13-1.13-.2-1.63-.2-1.27,0-2.08.4-2.44,1.21-.36.81-.54,1.95-.54,3.43v.88h4.61v2.46h-4.61v14.45h-3.16v-14.45h-4v-2.46h4c0-1.56.13-2.94.38-4.15.25-1.2.79-2.19,1.59-2.95.81-.76,1.98-1.14,3.5-1.14.71,0,1.48.09,2.29.29"/>
      <path class="cls-6" d="m132.32,315.77c0,1.72-.37,3.26-1.11,4.62-.74,1.35-1.78,2.41-3.13,3.16-1.34.76-2.85,1.13-4.52,1.13s-3.13-.38-4.45-1.14c-1.32-.76-2.34-1.83-3.09-3.21-.75-1.37-1.12-2.89-1.12-4.55,0-1.31.21-2.51.63-3.6.43-1.09,1.03-2.04,1.82-2.85.79-.81,1.71-1.43,2.78-1.88,1.07-.44,2.22-.66,3.46-.66s2.4.21,3.48.65c1.07.43,2,1.05,2.8,1.86.79.82,1.39,1.78,1.82,2.88.42,1.11.63,2.31.63,3.59m-3.34.08c0-.93-.14-1.81-.4-2.63-.26-.82-.64-1.53-1.12-2.11-.48-.59-1.04-1.03-1.69-1.35-.65-.32-1.36-.48-2.13-.48-1.55,0-2.84.61-3.86,1.84-1.02,1.22-1.54,2.77-1.54,4.64,0,1.23.23,2.34.69,3.33.46.99,1.09,1.75,1.91,2.29.82.54,1.75.82,2.79.82s1.91-.27,2.73-.81c.82-.54,1.46-1.29,1.92-2.27.47-.97.7-2.06.7-3.26"/>
      <path class="cls-6" d="m152.44,315.77c0,1.72-.37,3.26-1.11,4.62-.74,1.35-1.78,2.41-3.13,3.16-1.34.76-2.85,1.13-4.52,1.13s-3.13-.38-4.45-1.14c-1.32-.76-2.34-1.83-3.09-3.21-.75-1.37-1.12-2.89-1.12-4.55,0-1.31.21-2.51.63-3.6.42-1.09,1.03-2.04,1.82-2.85.79-.81,1.71-1.43,2.78-1.88,1.07-.44,2.22-.66,3.46-.66s2.4.21,3.48.65c1.07.43,2,1.05,2.8,1.86.79.82,1.39,1.78,1.82,2.88.42,1.11.63,2.31.63,3.59m-3.34.08c0-.93-.14-1.81-.4-2.63-.26-.82-.64-1.53-1.12-2.11-.48-.59-1.04-1.03-1.69-1.35-.65-.32-1.36-.48-2.13-.48-1.55,0-2.84.61-3.86,1.84-1.02,1.22-1.54,2.77-1.54,4.64,0,1.23.23,2.34.69,3.33.46.99,1.09,1.75,1.91,2.29.82.54,1.75.82,2.79.82s1.91-.27,2.73-.81c.82-.54,1.45-1.29,1.92-2.27.47-.97.7-2.06.7-3.26"/>
      <path class="cls-6" d="m171.26,299.21v17.09c0,.88.03,2.21.09,3.99.05,1.78.1,3.09.15,3.93h-3.07v-2.87c-.69,1.06-1.51,1.84-2.46,2.34-.95.51-2.09.76-3.41.76-1.48,0-2.78-.35-3.92-1.05-1.13-.7-2-1.71-2.6-3.02-.6-1.32-.91-2.84-.91-4.58,0-1.32.17-2.52.52-3.58.35-1.06.86-2,1.54-2.82.68-.81,1.47-1.42,2.38-1.84.9-.41,1.91-.62,3-.62,2.41,0,4.29.98,5.63,2.95,0-.17,0-.4-.03-.71-.02-.3-.03-.61-.05-.91-.02-.3-.03-.53-.03-.7v-8.38h3.17Zm-7.93,10.43c-.71,0-1.36.15-1.94.44-.59.29-1.1.72-1.54,1.27-.44.55-.78,1.22-1.02,1.98-.24.76-.36,1.58-.36,2.44,0,1.76.44,3.2,1.34,4.33.9,1.12,2.03,1.68,3.42,1.68.93,0,1.78-.26,2.52-.79.74-.52,1.33-1.25,1.76-2.18.43-.93.64-1.95.64-3.07s-.21-2.16-.63-3.1c-.42-.93-1-1.67-1.75-2.2-.74-.53-1.55-.8-2.44-.8"/>
      <path class="cls-6" d="m189,307.24l.19,2.99c.66-1.06,1.48-1.88,2.49-2.44,1.01-.56,2.14-.84,3.41-.84,1.12,0,2.12.19,3,.59.88.4,1.65.97,2.31,1.73.66.76,1.16,1.67,1.5,2.73.34,1.06.52,2.23.52,3.5s-.17,2.5-.52,3.62c-.35,1.11-.85,2.07-1.5,2.86-.65.79-1.44,1.4-2.35,1.83-.91.43-1.92.64-3.03.64-.91,0-1.73-.12-2.48-.36-.74-.25-1.39-.61-1.92-1.1-.53-.49-1.02-1.11-1.43-1.87.13,1.06.2,2.15.2,3.26v6.93h-3.16v-16.64c0-2.59-.07-5.06-.22-7.43h2.98Zm5.43,2.39c-.94,0-1.8.26-2.57.8-.77.53-1.38,1.26-1.81,2.18-.43.92-.65,1.96-.65,3.11s.22,2.12.66,3.05c.44.93,1.04,1.65,1.79,2.17.76.53,1.59.79,2.52.79,1.37,0,2.5-.57,3.39-1.71.89-1.14,1.33-2.58,1.33-4.34,0-.89-.11-1.71-.32-2.46-.21-.75-.53-1.4-.94-1.94-.41-.54-.9-.95-1.47-1.23-.56-.28-1.2-.43-1.91-.43"/>
      <path class="cls-6" d="m206.2,307.24h2.92l.15,3.02c.51-1.06,1.17-1.87,1.99-2.41.82-.55,1.77-.82,2.86-.82.57,0,1.14.07,1.71.22v2.88c-.54-.19-1.04-.29-1.49-.29-1.09,0-2.01.32-2.73.96-.72.64-1.25,1.45-1.58,2.44-.33.99-.49,2.02-.49,3.1v7.88h-3.12v-10.35c0-1.67-.07-3.88-.22-6.63"/>
      <path class="cls-6" d="m235.03,315.77c0,1.72-.37,3.26-1.11,4.62-.74,1.35-1.78,2.41-3.13,3.16-1.34.76-2.85,1.13-4.52,1.13s-3.13-.38-4.45-1.14c-1.32-.76-2.34-1.83-3.09-3.21-.75-1.37-1.12-2.89-1.12-4.55,0-1.31.21-2.51.63-3.6.43-1.09,1.03-2.04,1.82-2.85.79-.81,1.72-1.43,2.78-1.88,1.07-.44,2.22-.66,3.46-.66s2.4.21,3.48.65c1.07.43,2.01,1.05,2.8,1.86.79.82,1.39,1.78,1.82,2.88.42,1.11.63,2.31.63,3.59m-3.34.08c0-.93-.13-1.81-.4-2.63-.26-.82-.64-1.53-1.12-2.11-.48-.59-1.04-1.03-1.69-1.35-.65-.32-1.36-.48-2.13-.48-1.55,0-2.84.61-3.86,1.84-1.03,1.22-1.54,2.77-1.54,4.64,0,1.23.23,2.34.69,3.33.46.99,1.09,1.75,1.91,2.29.82.54,1.75.82,2.79.82s1.92-.27,2.73-.81c.82-.54,1.45-1.29,1.92-2.27.46-.97.69-2.06.69-3.26"/>
      <path class="cls-6" d="m250.11,307.72l-.2,2.78c-.86-.51-1.89-.76-3.1-.76-1.09,0-2.07.25-2.95.75-.89.49-1.57,1.19-2.05,2.07-.49.89-.73,1.9-.73,3.04s.24,2.25.71,3.19c.47.94,1.14,1.67,1.99,2.18.85.52,1.84.78,2.96.78.66,0,1.26-.08,1.8-.25.53-.17,1.11-.45,1.75-.83l.26,2.9c-.65.3-1.3.52-1.96.66-.66.14-1.4.22-2.22.22-1.69,0-3.19-.36-4.51-1.09-1.32-.73-2.34-1.74-3.05-3.05-.72-1.3-1.07-2.82-1.07-4.55s.37-3.14,1.11-4.47c.73-1.33,1.75-2.37,3.06-3.12,1.3-.76,2.76-1.13,4.36-1.13,1.32,0,2.61.23,3.86.69"/>
      <path class="cls-6" d="m255.72,316.54c.23,1.69.85,3.02,1.86,3.99,1.01.98,2.28,1.47,3.81,1.47.9,0,1.78-.13,2.64-.39.86-.26,1.75-.66,2.67-1.2v3.02c-1.03.45-1.96.78-2.8.97-.84.19-1.72.29-2.64.29-1.32,0-2.51-.21-3.58-.64-1.07-.43-1.99-1.05-2.74-1.85-.76-.8-1.34-1.77-1.75-2.91-.4-1.13-.61-2.38-.61-3.74,0-1.73.33-3.26.98-4.58.66-1.32,1.6-2.35,2.83-3.08,1.22-.73,2.62-1.09,4.18-1.09,1.83,0,3.29.45,4.38,1.35,1.09.9,1.87,2.09,2.32,3.55.46,1.47.69,3.09.69,4.85h-12.23Zm.03-2.46h9.04c-.11-.92-.33-1.75-.64-2.45-.32-.71-.79-1.28-1.41-1.71-.62-.43-1.38-.64-2.29-.64-1.25,0-2.28.42-3.11,1.28-.83.86-1.36,2.03-1.59,3.52"/>
      <path class="cls-6" d="m280.42,307.65l-.24,2.63c-1.11-.55-2.25-.83-3.44-.83-.87,0-1.56.19-2.08.59-.52.39-.77.9-.77,1.54s.26,1.16.76,1.51c.51.35,1.42.85,2.72,1.5,1.31.65,2.3,1.32,2.97,2.01.68.69,1.02,1.61,1.02,2.75,0,.77-.14,1.48-.43,2.11-.29.64-.71,1.19-1.26,1.65-.55.46-1.22.81-2,1.05-.78.24-1.61.37-2.51.37-1.56,0-3.03-.33-4.42-.97v-2.83c.82.39,1.54.68,2.16.86.63.17,1.23.26,1.84.26s1.18-.1,1.68-.29c.5-.19.89-.46,1.18-.8.28-.34.42-.72.42-1.14,0-.64-.27-1.15-.81-1.51-.54-.36-1.45-.88-2.74-1.54-1.29-.66-2.27-1.35-2.93-2.04-.67-.69-1-1.58-1-2.65,0-.98.24-1.85.73-2.59.49-.74,1.18-1.32,2.08-1.73.9-.4,1.93-.61,3.1-.61,1.26,0,2.58.23,3.96.69"/>
      <path class="cls-6" d="m293.55,307.65l-.24,2.63c-1.11-.55-2.25-.83-3.44-.83-.87,0-1.56.19-2.08.59-.52.39-.77.9-.77,1.54s.26,1.16.76,1.51c.51.35,1.42.85,2.72,1.5,1.31.65,2.3,1.32,2.97,2.01.68.69,1.02,1.61,1.02,2.75,0,.77-.14,1.48-.43,2.11-.29.64-.71,1.19-1.26,1.65-.56.46-1.22.81-2,1.05-.78.24-1.61.37-2.51.37-1.56,0-3.03-.33-4.42-.97v-2.83c.82.39,1.54.68,2.16.86.62.17,1.23.26,1.84.26s1.18-.1,1.68-.29c.5-.19.89-.46,1.18-.8.28-.34.42-.72.42-1.14,0-.64-.27-1.15-.81-1.51-.54-.36-1.45-.88-2.73-1.54-1.29-.66-2.27-1.35-2.93-2.04-.67-.69-1-1.58-1-2.65,0-.98.24-1.85.73-2.59.49-.74,1.18-1.32,2.08-1.73.9-.4,1.93-.61,3.1-.61,1.26,0,2.58.23,3.96.69"/>
      <path class="cls-6" d="m301.23,303.18h-3.44v-3.48h3.44v3.48Zm-.07,21.04h-3.17v-16.98h3.17v16.98Z"/>
      <path class="cls-6" d="m308.89,307.24l.15,2.7c1.29-1.99,3.23-2.98,5.83-2.98,1.42,0,2.57.26,3.43.78.86.52,1.49,1.21,1.9,2.06.41.86.67,1.79.8,2.81.13,1.02.19,2.27.19,3.73v7.88h-3.12v-7.65c0-1.22-.02-2.11-.06-2.67-.04-.56-.11-1.05-.21-1.49-.24-.9-.67-1.59-1.29-2.07-.62-.48-1.4-.71-2.32-.71-1.04,0-1.97.31-2.78.93-.81.62-1.38,1.47-1.71,2.54-.1.3-.19.66-.25,1.07-.06.4-.1.85-.11,1.32-.01.48-.02,1.31-.02,2.5v6.22h-3.16v-8.38c-.02-.96-.04-1.85-.05-2.65,0-.81-.03-1.76-.06-2.87-.03-1.1-.07-2.13-.11-3.08h2.95Z"/>
      <path class="cls-6" d="m340.81,307.19v14.08c0,1.68-.1,3.13-.3,4.36-.2,1.22-.59,2.27-1.16,3.16-.58.89-1.42,1.57-2.51,2.04-1.09.47-2.53.71-4.29.71-2.14,0-4.29-.38-6.47-1.14l.31-3.07c2.11,1.02,4.15,1.53,6.09,1.53,1.16,0,2.14-.22,2.96-.66.82-.44,1.42-1.07,1.79-1.9.23-.43.38-.91.46-1.43.08-.53.12-1.14.13-1.84,0-.7.02-1.23.04-1.59-1.28,1.88-3.17,2.81-5.67,2.81-1.47,0-2.77-.35-3.91-1.05-1.13-.7-2.01-1.69-2.63-2.96-.62-1.27-.93-2.75-.93-4.43s.31-3.24.93-4.6c.62-1.36,1.49-2.41,2.61-3.14,1.12-.74,2.4-1.11,3.86-1.11,1.32,0,2.51.29,3.54.88,1.03.59,1.77,1.37,2.2,2.36.01-.09.02-.17.03-.24,0-.07,0-.13,0-.19l-.03-.46v-2.12h2.95Zm-7.95,2.44c-.92,0-1.74.26-2.48.79-.74.53-1.31,1.26-1.71,2.19-.41.93-.61,1.98-.61,3.16s.2,2.15.6,3.03c.4.88.96,1.56,1.67,2.05.71.49,1.52.73,2.43.73.72,0,1.39-.14,2-.43.61-.29,1.14-.7,1.59-1.23.45-.53.79-1.16,1.02-1.88.24-.72.36-1.52.36-2.39,0-1.11-.21-2.12-.63-3.04-.43-.92-1.01-1.65-1.77-2.17-.75-.53-1.57-.79-2.47-.79"/>
      <path class="cls-16" d="m374.22,311.66c-.17,3.36-1.03,6-2.58,7.92l3.94,4.65h-4.07l-1.85-2.19c-.92.88-1.88,1.54-2.9,1.98-1.02.44-2.14.66-3.37.66-1.35,0-2.64-.27-3.87-.8-1.23-.54-2.22-1.32-2.96-2.36-.75-1.03-1.12-2.25-1.12-3.65,0-1.13.23-2.1.68-2.92.45-.82,1.06-1.52,1.83-2.09.77-.58,1.7-1.1,2.8-1.58-.74-.63-1.35-1.42-1.85-2.38-.5-.97-.75-1.91-.75-2.83,0-1.09.28-2.04.84-2.83.56-.79,1.3-1.38,2.21-1.78.91-.4,1.91-.6,3-.6.97,0,1.91.19,2.8.56.9.37,1.62.93,2.17,1.65.55.73.82,1.6.82,2.61,0,.91-.23,1.75-.67,2.54-.45.78-1.03,1.47-1.74,2.06-.71.59-1.55,1.11-2.49,1.56l4.58,5.51c.48-.83.82-1.69,1.05-2.6.22-.91.36-1.94.41-3.08h3.1Zm-11.82,1.59c-.74.42-1.36.82-1.83,1.21-.48.39-.87.86-1.17,1.41-.3.55-.46,1.18-.46,1.89,0,1.16.45,2.15,1.34,2.95.9.81,1.92,1.21,3.07,1.21,1.55,0,3.04-.72,4.48-2.15l-5.43-6.53Zm.99-3.27c.73-.42,1.31-.8,1.77-1.15.46-.35.86-.77,1.21-1.27.35-.5.53-1.04.53-1.63,0-.5-.14-.92-.41-1.29-.27-.37-.63-.64-1.06-.83-.43-.19-.89-.28-1.35-.28-.73,0-1.37.25-1.91.74-.54.49-.81,1.11-.81,1.84,0,.65.16,1.22.47,1.74.31.52.82,1.23,1.55,2.15"/>
      <path class="cls-6" d="m106.71,346.32l.19,2.99c.66-1.06,1.48-1.88,2.49-2.44,1.01-.56,2.15-.84,3.41-.84,1.12,0,2.12.19,3,.59.88.4,1.65.97,2.31,1.73.65.76,1.15,1.67,1.5,2.73.34,1.06.52,2.23.52,3.5s-.17,2.5-.52,3.62c-.35,1.11-.85,2.07-1.5,2.86-.66.79-1.44,1.4-2.35,1.83-.91.43-1.92.64-3.03.64-.91,0-1.73-.12-2.48-.36-.74-.25-1.38-.61-1.92-1.1-.53-.49-1.02-1.11-1.43-1.87.13,1.06.2,2.15.2,3.26v6.93h-3.16v-16.64c0-2.59-.07-5.06-.22-7.43h2.98Zm5.43,2.39c-.94,0-1.8.26-2.57.8-.77.53-1.38,1.26-1.81,2.18-.43.92-.65,1.96-.65,3.11s.22,2.12.66,3.05c.44.93,1.04,1.65,1.79,2.17.76.53,1.59.79,2.52.79,1.37,0,2.5-.57,3.39-1.71.89-1.14,1.33-2.58,1.33-4.34,0-.89-.11-1.71-.32-2.46-.21-.75-.53-1.4-.94-1.94-.41-.54-.9-.95-1.47-1.23-.57-.28-1.2-.43-1.92-.43"/>
      <path class="cls-6" d="m124.82,347.59c.93-.54,1.85-.94,2.76-1.19.91-.25,1.89-.37,2.93-.37,1.59,0,2.93.3,4.01.91,1.08.6,1.83,1.46,2.25,2.57.35.92.52,2.5.52,4.71v3.31c0,1.28.02,2.39.04,3.35.03.96.07,1.76.13,2.42h-2.89c-.02-.4-.03-.84-.03-1.32,0-.6,0-1.13.03-1.59-.65,1.09-1.43,1.9-2.34,2.4-.9.5-2.02.75-3.36.75-1.18,0-2.21-.21-3.11-.63-.9-.42-1.59-1.02-2.07-1.79-.48-.78-.72-1.67-.72-2.69,0-.89.2-1.69.58-2.37.39-.69.97-1.27,1.72-1.75.76-.48,1.68-.84,2.78-1.08,1.09-.23,2.36-.36,3.8-.36.86,0,1.65.03,2.37.07-.02-1.46-.38-2.53-1.07-3.21-.69-.69-1.75-1.03-3.17-1.03-.93,0-1.77.13-2.54.38-.77.26-1.59.67-2.46,1.25l-.17-2.75Zm9.48,7.69c-.7-.07-1.27-.1-1.71-.1-4.18,0-6.27,1.07-6.27,3.22,0,.52.13.98.41,1.37.27.4.65.71,1.15.93.49.23,1.06.34,1.69.34,1.16,0,2.1-.25,2.8-.76.7-.51,1.2-1.19,1.49-2.05.3-.86.44-1.84.44-2.95"/>
      <path class="cls-6" d="m153.57,346.79l-.2,2.78c-.86-.51-1.89-.76-3.11-.76-1.09,0-2.07.25-2.95.75-.89.49-1.57,1.19-2.05,2.07-.49.89-.73,1.9-.73,3.04s.24,2.25.71,3.19c.47.94,1.14,1.67,1.99,2.18.86.52,1.84.78,2.96.78.66,0,1.26-.08,1.8-.25.53-.17,1.11-.45,1.75-.83l.26,2.9c-.65.3-1.3.52-1.96.66-.66.14-1.4.22-2.22.22-1.68,0-3.19-.36-4.51-1.09-1.32-.72-2.34-1.74-3.05-3.05-.72-1.3-1.07-2.82-1.07-4.55s.37-3.14,1.11-4.47c.73-1.33,1.75-2.37,3.06-3.12,1.3-.76,2.76-1.13,4.36-1.13,1.32,0,2.61.23,3.86.69"/>
      <path class="cls-6" d="m160.27,338.28v11.99c-.07,1.03-.1,2.07-.1,3.12.16-.19.63-.71,1.42-1.56l5.51-5.51h4.28l-7.92,7.49,8.97,9.48h-4.46l-5.73-6.26c-.33-.35-.7-.8-1.11-1.35-.41-.55-.73-.93-.96-1.15.03.27.05.69.06,1.27.01.58.03,1.01.03,1.29v6.19h-3.19v-25.02h3.19Z"/>
      <path class="cls-6" d="m176.01,347.59c.93-.54,1.85-.94,2.76-1.19.91-.25,1.88-.37,2.93-.37,1.59,0,2.93.3,4.01.91,1.08.6,1.83,1.46,2.25,2.57.35.92.53,2.5.53,4.71v3.31c0,1.28.02,2.39.04,3.35.03.96.07,1.76.13,2.42h-2.89c-.02-.4-.03-.84-.03-1.32,0-.6,0-1.13.03-1.59-.65,1.09-1.43,1.9-2.34,2.4-.9.5-2.02.75-3.36.75-1.18,0-2.22-.21-3.11-.63-.9-.42-1.59-1.02-2.07-1.79-.48-.78-.72-1.67-.72-2.69,0-.89.2-1.69.58-2.37.39-.69.97-1.27,1.72-1.75.75-.48,1.68-.84,2.78-1.08,1.09-.23,2.36-.36,3.8-.36.86,0,1.65.03,2.37.07-.02-1.46-.38-2.53-1.07-3.21-.69-.69-1.75-1.03-3.17-1.03-.93,0-1.78.13-2.55.38-.77.26-1.59.67-2.46,1.25l-.17-2.75Zm9.48,7.69c-.7-.07-1.27-.1-1.71-.1-4.18,0-6.27,1.07-6.27,3.22,0,.52.14.98.41,1.37.27.4.66.71,1.15.93.49.23,1.06.34,1.69.34,1.16,0,2.1-.25,2.8-.76.7-.51,1.2-1.19,1.49-2.05.3-.86.44-1.84.44-2.95"/>
      <path class="cls-6" d="m208.47,346.27v14.08c0,1.68-.1,3.13-.3,4.36-.2,1.22-.59,2.27-1.16,3.16-.58.89-1.42,1.57-2.51,2.04-1.09.47-2.53.71-4.29.71-2.14,0-4.29-.38-6.47-1.14l.31-3.07c2.11,1.02,4.15,1.53,6.09,1.53,1.15,0,2.14-.22,2.96-.66.82-.44,1.42-1.07,1.79-1.9.23-.43.38-.91.46-1.43.08-.53.12-1.14.13-1.84,0-.7.02-1.23.04-1.59-1.28,1.88-3.17,2.81-5.67,2.81-1.47,0-2.77-.35-3.91-1.05-1.13-.7-2.01-1.69-2.63-2.96-.62-1.27-.93-2.75-.93-4.43s.31-3.24.93-4.6c.62-1.36,1.49-2.41,2.6-3.14,1.12-.74,2.41-1.11,3.86-1.11,1.32,0,2.5.29,3.54.88,1.03.59,1.77,1.37,2.2,2.36.01-.09.02-.17.03-.24,0-.07,0-.13,0-.19l-.03-.46v-2.12h2.95Zm-7.95,2.44c-.92,0-1.74.26-2.48.79-.74.53-1.31,1.26-1.72,2.19-.41.93-.61,1.98-.61,3.16s.2,2.15.6,3.03c.4.88.96,1.56,1.67,2.05.71.49,1.52.73,2.43.73.72,0,1.39-.14,2-.43.61-.29,1.14-.7,1.59-1.23.45-.53.79-1.16,1.03-1.88.24-.72.36-1.52.36-2.39,0-1.11-.21-2.12-.63-3.04-.43-.92-1.01-1.65-1.77-2.17-.75-.53-1.57-.79-2.47-.79"/>
      <path class="cls-6" d="m216.33,342.25h-3.44v-3.48h3.44v3.48Zm-.07,21.04h-3.17v-16.98h3.17v16.98Z"/>
      <path class="cls-6" d="m223.99,346.32l.15,2.7c1.29-1.99,3.24-2.98,5.84-2.98,1.42,0,2.57.26,3.43.78.86.52,1.49,1.21,1.9,2.06.41.86.67,1.79.8,2.81.13,1.02.19,2.27.19,3.73v7.88h-3.12v-7.65c0-1.22-.02-2.11-.06-2.67-.04-.56-.11-1.05-.21-1.49-.24-.9-.67-1.59-1.29-2.07-.62-.48-1.4-.71-2.32-.71-1.04,0-1.97.31-2.78.93-.81.62-1.38,1.47-1.71,2.54-.1.3-.19.66-.25,1.07-.06.4-.1.85-.11,1.32-.01.48-.02,1.31-.02,2.5v6.22h-3.16v-8.38c-.02-.96-.04-1.84-.05-2.65,0-.81-.03-1.76-.06-2.87-.03-1.1-.07-2.13-.11-3.08h2.95Z"/>
      <path class="cls-6" d="m255.91,346.27v14.08c0,1.68-.1,3.13-.3,4.36-.2,1.22-.59,2.27-1.16,3.16-.58.89-1.42,1.57-2.51,2.04-1.09.47-2.53.71-4.29.71-2.14,0-4.29-.38-6.46-1.14l.31-3.07c2.11,1.02,4.15,1.53,6.09,1.53,1.16,0,2.14-.22,2.96-.66.82-.44,1.42-1.07,1.79-1.9.23-.43.38-.91.46-1.43.08-.53.12-1.14.13-1.84,0-.7.02-1.23.04-1.59-1.28,1.88-3.17,2.81-5.67,2.81-1.47,0-2.77-.35-3.91-1.05-1.13-.7-2.01-1.69-2.63-2.96-.62-1.27-.93-2.75-.93-4.43s.31-3.24.93-4.6c.62-1.36,1.49-2.41,2.61-3.14,1.12-.74,2.4-1.11,3.86-1.11,1.32,0,2.5.29,3.54.88,1.03.59,1.77,1.37,2.2,2.36.01-.09.02-.17.03-.24,0-.07,0-.13,0-.19l-.04-.46v-2.12h2.95Zm-7.95,2.44c-.92,0-1.74.26-2.47.79-.74.53-1.31,1.26-1.72,2.19-.41.93-.61,1.98-.61,3.16s.2,2.15.6,3.03c.4.88.96,1.56,1.67,2.05.71.49,1.52.73,2.43.73.72,0,1.39-.14,2-.43.61-.29,1.14-.7,1.59-1.23.45-.53.79-1.16,1.03-1.88.24-.72.36-1.52.36-2.39,0-1.11-.21-2.12-.63-3.04-.43-.92-1.01-1.65-1.77-2.17-.75-.53-1.57-.79-2.47-.79"/>
      <path class="cls-6" d="m278.86,346.72l-.24,2.63c-1.11-.55-2.25-.83-3.44-.83-.87,0-1.56.19-2.08.59-.52.39-.77.9-.77,1.54s.26,1.16.76,1.51c.51.35,1.42.85,2.72,1.5,1.31.65,2.3,1.32,2.97,2.01.68.69,1.02,1.61,1.02,2.75,0,.77-.14,1.48-.43,2.11-.29.64-.71,1.19-1.26,1.65-.56.46-1.22.81-2,1.05-.78.24-1.61.37-2.51.37-1.56,0-3.04-.33-4.42-.97v-2.83c.82.4,1.54.68,2.16.86.63.17,1.23.26,1.84.26s1.18-.1,1.68-.29c.5-.19.89-.46,1.18-.8.28-.34.42-.72.42-1.14,0-.64-.27-1.15-.81-1.51-.54-.36-1.45-.88-2.73-1.54-1.29-.66-2.27-1.35-2.93-2.04-.67-.69-1-1.58-1-2.65,0-.98.24-1.85.73-2.59.49-.74,1.18-1.32,2.08-1.73.9-.4,1.93-.61,3.1-.61,1.26,0,2.58.23,3.96.69"/>
      <path class="cls-6" d="m299.67,354.85c0,1.72-.37,3.26-1.11,4.61-.74,1.36-1.78,2.41-3.13,3.16-1.34.76-2.85,1.13-4.52,1.13s-3.13-.38-4.45-1.14c-1.32-.76-2.34-1.83-3.09-3.21-.75-1.37-1.12-2.89-1.12-4.55,0-1.31.21-2.51.63-3.6.43-1.09,1.03-2.04,1.82-2.85.79-.81,1.72-1.43,2.78-1.88,1.07-.44,2.22-.66,3.46-.66s2.4.21,3.48.65c1.07.43,2.01,1.05,2.8,1.86.79.82,1.39,1.78,1.82,2.88.42,1.11.63,2.31.63,3.6m-3.34.08c0-.93-.13-1.81-.4-2.63-.26-.82-.64-1.53-1.12-2.11-.48-.59-1.04-1.03-1.69-1.35-.65-.32-1.36-.48-2.13-.48-1.55,0-2.84.61-3.86,1.84-1.03,1.22-1.54,2.77-1.54,4.64,0,1.23.23,2.34.69,3.33.45.99,1.09,1.75,1.91,2.29.82.54,1.75.82,2.79.82s1.92-.27,2.73-.81c.82-.54,1.45-1.29,1.92-2.27.46-.97.69-2.06.69-3.26"/>
      <rect class="cls-6" x="303.4" y="338.28" width="3.19" height="25.02"/>
      <path class="cls-6" d="m326.01,346.35v10.69c0,.92.08,3.01.24,6.26h-2.94l-.13-2.64c-.69.96-1.51,1.68-2.48,2.16-.95.48-2.04.72-3.25.72-2.36,0-3.99-.73-4.91-2.21-.92-1.47-1.37-3.46-1.37-5.99v-8.99h3.16v7.87c0,.63.01,1.27.04,1.94.03.67.07,1.19.13,1.56.05.37.14.72.25,1.03.3.75.74,1.32,1.31,1.71.57.39,1.25.59,2.02.59.72,0,1.38-.14,1.96-.43.59-.29,1.09-.7,1.51-1.25.42-.54.74-1.19.96-1.95.23-.76.34-1.59.34-2.49v-8.57h3.16Z"/>
      <path class="cls-6" d="m335.59,341.42v4.97h4.51v2.46h-4.51v6.66c0,1.52.07,2.64.2,3.33.1.61.38,1.09.84,1.45.46.36,1.04.53,1.76.53.65,0,1.34-.18,2.05-.53v2.73c-.99.32-1.97.48-2.92.48-1.48,0-2.58-.3-3.33-.9-.75-.6-1.23-1.38-1.44-2.36-.21-.97-.32-2.23-.32-3.78v-7.62h-3.9v-2.46h3.9v-3.9l3.16-1.07Z"/>
      <path class="cls-6" d="m347.02,342.25h-3.44v-3.48h3.44v3.48Zm-.07,21.04h-3.17v-16.98h3.17v16.98Z"/>
      <path class="cls-6" d="m368.1,354.85c0,1.72-.37,3.26-1.11,4.61-.74,1.36-1.78,2.41-3.13,3.16-1.34.76-2.85,1.13-4.52,1.13s-3.13-.38-4.45-1.14c-1.32-.76-2.34-1.83-3.09-3.21-.75-1.37-1.12-2.89-1.12-4.55,0-1.31.21-2.51.63-3.6.42-1.09,1.03-2.04,1.82-2.85.79-.81,1.71-1.43,2.78-1.88,1.07-.44,2.22-.66,3.46-.66s2.4.21,3.48.65c1.07.43,2,1.05,2.8,1.86.79.82,1.39,1.78,1.82,2.88.42,1.11.63,2.31.63,3.6m-3.34.08c0-.93-.13-1.81-.4-2.63-.26-.82-.64-1.53-1.12-2.11-.48-.59-1.04-1.03-1.69-1.35-.65-.32-1.36-.48-2.13-.48-1.55,0-2.84.61-3.86,1.84-1.02,1.22-1.54,2.77-1.54,4.64,0,1.23.23,2.34.69,3.33.46.99,1.09,1.75,1.91,2.29.82.54,1.75.82,2.79.82s1.91-.27,2.73-.81c.82-.54,1.45-1.29,1.92-2.27.47-.97.69-2.06.69-3.26"/>
      <path class="cls-6" d="m374.8,346.32l.15,2.7c1.29-1.99,3.23-2.98,5.84-2.98,1.42,0,2.56.26,3.43.78.86.52,1.49,1.21,1.9,2.06.41.86.67,1.79.8,2.81.13,1.02.19,2.27.19,3.73v7.88h-3.12v-7.65c0-1.22-.02-2.11-.06-2.67-.04-.56-.11-1.05-.21-1.49-.24-.9-.67-1.59-1.29-2.07-.62-.48-1.4-.71-2.32-.71-1.04,0-1.97.31-2.78.93-.81.62-1.39,1.47-1.71,2.54-.11.3-.19.66-.25,1.07-.06.4-.1.85-.11,1.32-.01.48-.02,1.31-.02,2.5v6.22h-3.16v-8.38c-.02-.96-.04-1.84-.05-2.65,0-.81-.03-1.76-.06-2.87-.03-1.1-.07-2.13-.11-3.08h2.95Z"/>
      <path class="cls-6" d="m400.36,346.72l-.24,2.63c-1.11-.55-2.25-.83-3.44-.83-.87,0-1.56.19-2.08.59-.52.39-.77.9-.77,1.54s.26,1.16.76,1.51c.51.35,1.42.85,2.72,1.5,1.31.65,2.3,1.32,2.97,2.01.68.69,1.02,1.61,1.02,2.75,0,.77-.14,1.48-.43,2.11-.29.64-.71,1.19-1.26,1.65-.55.46-1.22.81-2,1.05-.78.24-1.61.37-2.5.37-1.56,0-3.04-.33-4.42-.97v-2.83c.82.4,1.54.68,2.16.86.63.17,1.23.26,1.84.26s1.18-.1,1.68-.29c.5-.19.89-.46,1.18-.8.28-.34.42-.72.42-1.14,0-.64-.27-1.15-.81-1.51-.54-.36-1.45-.88-2.73-1.54-1.29-.66-2.27-1.35-2.93-2.04-.67-.69-1-1.58-1-2.65,0-.98.24-1.85.73-2.59.49-.74,1.18-1.32,2.08-1.73.9-.4,1.93-.61,3.1-.61,1.26,0,2.58.23,3.96.69"/>
      <g>
        <path class="cls-6" d="m216.14,174.17c7.43-12.55,20.66-19.46,37.31-19.46,30.34,0,41.14,22.88,41.14,44.31v69.12h-37.46v-53.66c0-18.52-5.51-27.52-16.84-27.52-15.55,0-22.78,10.91-22.78,34.3v46.87h-37.47v-110.9h34.19v20.22l1.91-3.29Z"/>
        <path class="cls-16" d="m374.96,198.91c-.17-9.93-7.35-18.29-23.97-18.29-9.28,0-22.82,1.42-34.62,8.24,0,0-.25.13-.36.21v-26.43s.14-.06.14-.06c12.8-5.38,26.43-7.87,42.85-7.87,32.55,0,51.24,16.77,51.24,46.02v67.42h-33.17v-12.36s-9.22,14.91-34.08,14.91c-18.61,0-40.34-9.16-40.34-35,0-36.26,40.98-37.27,54.46-37.59l17.85.81Zm-14.53,16.95c-10.06.25-22.76,4.02-22.5,17.78.15,7.03,6.09,11.55,15.2,11.55,17.3,0,21.96-15.95,21.96-21.83v-6.31s-4.59-1.44-14.65-1.2Z"/>
        <path class="cls-6" d="m155.96,244.79c-10.6,0-14.53-5.39-14.53-19.9v-40.45h25.9v-27.19h-25.9v-20.47c-15.03,3.45-27.38,6.69-37.49,9.62v82.73c0,24.95,7.02,41.56,41.35,41.56,7.33,0,13.16-.79,18.86-1.54,0,0,2.25-.3,3.38-.45v-25.46c-1.02.18-2.28.42-2.3.44l-9.26,1.11Z"/>
      </g>
      <g>
        <path class="cls-10" d="m38.63,142.34c4.07-3.25,8.52-6.49,13.34-9.72.53-6.76,1.43-13.46,2.68-20.09-4.48,4.27-8.62,8.66-12.37,13.19-.21.67-.43,1.34-.62,2.02-1.35,4.83-2.34,9.69-3.03,14.61Z"/>
        <path class="cls-10" d="m35.2,145.14c.5-4.45,1.27-8.87,2.3-13.27-5.25,7.23-9.4,14.76-12.2,22.58,2.97-3.11,6.27-6.22,9.9-9.31Z"/>
        <path class="cls-10" d="m19.02,166.92c-4.29,6.18-7.28,12.54-8.7,19.05,2.33-2.33,4.99-4.66,7.93-7-.09-4.02.17-8.05.78-12.05Z"/>
        <path class="cls-10" d="m55.78,107.06c1.1-4.95,2.37-9.86,3.87-14.73.47-1.51.96-3,1.46-4.49-6.57,9.33-12.11,19.3-16.16,29.92,3.32-3.6,6.92-7.16,10.83-10.69Z"/>
        <path class="cls-10" d="m21.27,176.66c4.05-3,8.59-5.99,13.64-9-.5-6.05-.54-12.05-.12-18-4.38,3.87-8.28,7.83-11.63,11.85-.28,1.16-.56,2.33-.77,3.5-.73,3.87-1.1,7.76-1.13,11.65Z"/>
        <path class="cls-10" d="m51.67,136.66c-4.87,3.32-9.42,6.71-13.59,10.18-.62,6.32-.7,12.68-.23,19.13,4.27-2.45,8.88-4.88,13.83-7.33-.41-7.4-.43-14.73,0-21.98Z"/>
      </g>
      <g>
        <path class="cls-6" d="m85.25,267.47c-19.46-36.16-30.92-71.9-33.35-105.54-4.86,2.41-9.47,4.86-13.78,7.35,2.21,32.47,16.9,66.46,47.13,98.19Z"/>
        <path class="cls-6" d="m6.34,195.13c-3.64,5.07-5.81,10.24-6.26,15.49-1.68,20.18,22.89,40.18,73.07,59.58C29,245.44,6.58,220.25,6.34,195.13Z"/>
        <path class="cls-6" d="m77.33,269.16c-37.06-29.14-56.68-58.13-58.9-86.52-3.4,2.8-6.38,5.64-8.91,8.52-2.32,25.79,20.36,51.98,67.81,78Z"/>
        <path class="cls-6" d="m81.76,268.25c-34.86-40.97-43.01-65.58-46.51-97.28-5.11,3.07-9.78,6.19-13.91,9.36,1.35,29.21,20.47,57.54,60.42,87.92Z"/>
      </g>
      <path class="cls-15" d="m124.82,28.93c-.11,10.71-.02,21.66.28,32.75,9.29-4.68,19.17-9.3,29.65-13.86,6.52-2.84,13.02-5.54,19.45-8.1-.91-12.68-1.58-25.19-2.06-37.4-7.93,3.82-16.25,8.09-24.68,12.83-7.28,4.09-14.94,8.69-22.65,13.78Z"/>
      <path class="cls-14" d="m243.01,57.42c-1.98-12.31-3.82-24.6-5.52-36.8-16.89,5.25-37.88,12.32-60.04,21.09.83,11.27,1.86,22.68,3.08,34.12,21.38-6.93,42.69-13.11,62.48-18.41Z"/>
      <path class="cls-14" d="m121.9,27.29c.11-9.31.36-18.44.7-27.29-11.71,11.23-23.39,24.37-33.69,39.39-.7,4.95-1.37,9.96-1.98,15.04,11.14-10.19,23.12-19.24,34.97-27.14Z"/>
      <path class="cls-16" d="m59.67,103.62c6.32-5.43,13.39-10.78,21.13-16.1.55-8.45,1.3-16.88,2.21-25.21-5.53,5.43-10.79,11.16-15.63,17.19-1.77,4.47-3.41,9.05-4.85,13.74-1.06,3.44-2.01,6.9-2.86,10.38Z"/>
      <path class="cls-16" d="m83.53,57.6c.48-4.18,1-8.34,1.55-12.45-8.97,13.16-14.1,25.49-14.1,25.49,3.87-4.33,8.36-9.05,12.55-13.04Z"/>
      <path class="cls-16" d="m127.14,98.37c.79,10.03,1.8,20.07,3.09,30.05,15.95-5.03,33.33-10.03,52.12-15.02-1.7-11.1-3.16-22.28-4.4-33.41-17.15,5.64-34.33,11.78-50.81,18.39Z"/>
      <path class="cls-16" d="m82.74,118.39c.01,8.91.31,17.7.96,26.26,13.07-5.11,27.6-10.22,43.6-15.31-1.28-9.88-2.31-19.83-3.11-29.78-14.56,5.92-28.55,12.21-41.45,18.84Z"/>
      <path class="cls-14" d="m252.83,96.35c33.22-7.36,62.69-13.03,82.77-16.69-2.92-13.06-5.69-26.16-8.34-39.23-16.73,3.51-46.27,10.07-80.83,19.3,1.99,12.21,4.12,24.44,6.39,36.62Z"/>
      <path class="cls-16" d="m180.87,79.04c1.25,11.19,2.71,22.42,4.4,33.59,22.01-5.8,43.98-11.04,64.61-15.64-2.27-12.12-4.4-24.31-6.38-36.48-19.81,5.33-41.16,11.52-62.64,18.52Z"/>
      <path class="cls-16" d="m121.87,30.95c-12.1,8.16-24.27,17.54-35.48,28.1-.98,8.68-1.82,17.5-2.43,26.34,11.31-7.54,24.07-14.93,38.27-22.2-.33-10.91-.44-21.69-.36-32.23Z"/>
      <path class="cls-16" d="m83.68,89.44c-.53,8.48-.86,16.96-.93,25.34,12.27-6.24,25.99-12.44,41.19-18.56-.75-9.93-1.27-19.82-1.61-29.63-13.23,6.88-26.4,14.5-38.65,22.85Z"/>
      <path class="cls-16" d="m79.75,119.97c-8.91,4.68-17.26,9.53-24.88,14.54-.52,7.49-.6,15.05-.22,22.68,7.91-3.8,16.62-7.58,26.13-11.37-.67-8.44-1-17.08-1.03-25.85Z"/>
      <path class="cls-16" d="m58.43,109.04c-1.51,7.08-2.6,14.24-3.25,21.46,7.36-4.75,15.56-9.46,24.57-14.15.03-8.19.32-16.46.8-24.74-7.88,5.52-15.33,11.33-22.13,17.44Z"/>
      <path class="cls-16" d="m125.3,65.06c.31,9.91.83,19.94,1.57,29.97,15.43-6.14,32.35-12.24,50.72-18.25-1.24-11.37-2.26-22.7-3.1-33.92-6.1,2.45-12.29,5.03-18.49,7.74-9.96,4.33-20.33,9.17-30.7,14.46Z"/>
      <path class="cls-1" d="m181.48,107.52c.13.93.27,1.85.41,2.78-19.32,5.25-36.56,10.28-52.02,15.18-.11-.92-.23-1.84-.33-2.75,15.45-4.93,32.68-9.96,51.95-15.2Zm8.57-2.31c-1.9.51-3.78,1.01-5.64,1.51.13.93.27,1.85.41,2.78,1.73-.47,3.47-.93,5.23-1.4,16.28-4.35,37.43-9.42,59.25-14.35-.17-.92-.34-1.85-.51-2.77-21.64,4.88-42.58,9.92-58.73,14.23Z"/>
      <path class="cls-13" d="m122.6,0c-11.71,11.23-23.39,24.37-33.69,39.39-.56,3.94-1.09,7.94-1.59,11.96,9.53-9.08,26.64-22.1,34.63-27.21.13-8.22.35-16.29.65-24.14Z"/>
      <path class="cls-17" d="m55.53,127.22c.1-.93.2-1.87.32-2.8,5.36-3.43,13.53-8.39,23.97-14.05-.02,1.03-.02,2.05-.04,3.08-10.63,5.54-18.91,10.37-24.25,13.77Zm27.32-18.47c-.02,1.05-.03,2.1-.05,3.15,11.41-5.85,25.27-12.39,40.92-18.82-.08-1.17-.17-2.34-.24-3.51-15.53,6.44-29.28,13.15-40.63,19.18Z"/>
      <path class="cls-9" d="m122.33,66.59c.26,7.62.64,15.28,1.15,22.98-15.53,6.44-29.28,13.15-40.63,19.18.14-6.41.43-12.86.83-19.31,12.24-8.35,25.42-15.98,38.65-22.85Zm33.67-15.98c-9.96,4.33-20.33,9.17-30.7,14.46.24,7.71.62,15.5,1.12,23.3.74-.3,1.47-.6,2.22-.9,14.13-5.65,31.1-11.54,48.29-17.09-.94-9.22-1.75-18.4-2.43-27.51-6.1,2.45-12.29,5.03-18.49,7.74Z"/>
      <path class="cls-4" d="m179.49,65.71c22.47-7.2,45.07-13.77,61.91-18.43.19,1.23.39,2.46.58,3.68-16.81,4.64-39.51,11.23-62.12,18.47-.13-1.24-.25-2.48-.37-3.72Zm-2.94.95c-11.04,3.57-21.98,7.28-32.14,10.97l.16,3.79c10.22-3.72,21.24-7.44,32.35-11.03-.13-1.24-.25-2.48-.37-3.72Z"/>
      <path class="cls-11" d="m241.41,47.28c-.98-6.32-1.92-12.64-2.82-18.93-17,4.93-38.51,12.12-60.58,20.59.45,5.56.95,11.16,1.49,16.77,22.47-7.2,45.07-13.77,61.91-18.43Z"/>
      <path class="cls-18" d="m237.48,20.62c-16.89,5.25-37.88,12.32-60.04,21.09.18,2.41.37,4.82.56,7.24,22.07-8.47,43.58-15.66,60.58-20.59-.37-2.58-.74-5.16-1.1-7.73Z"/>
      <path class="cls-12" d="m190.04,96.28c-2.31.62-4.58,1.23-6.83,1.85.38,2.86.78,5.73,1.19,8.59,1.86-.5,3.74-1.01,5.64-1.51,16.16-4.31,37.1-9.35,58.73-14.23-.52-2.86-1.04-5.72-1.54-8.58-21.09,4.77-41.42,9.67-57.19,13.88Z"/>
      <path class="cls-7" d="m247.24,82.4c-1.29-7.29-2.54-14.59-3.73-21.89-19.81,5.33-41.16,11.52-62.64,18.52.71,6.36,1.49,12.73,2.34,19.1,2.25-.62,4.52-1.23,6.83-1.85,15.77-4.21,36.1-9.11,57.19-13.88Z"/>
      <path class="cls-5" d="m250.18,81.74c.51,2.86,1.02,5.72,1.54,8.58,30.18-6.77,61.35-13.18,82.51-16.88-.63-2.86-1.25-5.73-1.87-8.6-21.47,3.8-52.4,10.19-82.18,16.89Z"/>
      <path class="cls-19" d="m327.27,40.43c-16.73,3.51-46.27,10.07-80.83,19.3,1.2,7.34,2.45,14.68,3.74,22.01,29.78-6.7,60.71-13.09,82.18-16.89-1.75-8.14-3.45-16.28-5.1-24.42Z"/>
      <path class="cls-20" d="m332.36,64.86c-.3-1.38-.6-2.76-.89-4.14-21.61,3.85-52.42,10.23-82.02,16.9.24,1.38.49,2.76.73,4.13,29.78-6.7,60.71-13.09,82.18-16.89Z"/>
      <path class="cls-3" d="m84.83,74.43c-.23,2.53-.43,5.06-.62,7.59,9.54-6.42,21.63-13.71,37.93-22.2-.07-2.78-.13-5.54-.18-8.3-15.68,8.95-27.69,16.47-37.13,22.91Z"/>
      <path class="cls-14" d="m125.1,61.68c9.29-4.68,19.17-9.3,29.65-13.86,6.52-2.84,13.02-5.54,19.45-8.1-.08-1.07-.14-2.13-.21-3.19-9.23,3.62-26.57,10.32-48.97,21.8.03,1.12.05,2.24.08,3.36Z"/>
      <path class="cls-2" d="m124.91,53.4c20.23-10.89,37.62-18.43,48.71-22.34-.08-1.3-.16-2.6-.24-3.9-11.08,3.91-28.56,11.49-48.52,22.71.02,1.18.03,2.35.05,3.53Z"/>
      <path class="cls-8" d="m172.14,2.32c-7.93,3.82-16.25,8.09-24.68,12.83-7.28,4.09-14.94,8.69-22.65,13.78-.03,2.87-.04,5.76-.04,8.66,18.24-11.1,35.69-20.11,47.81-25.2-.16-3.38-.31-6.74-.44-10.07Z"/>
    </g>
  </g>
</svg>