<?xml version="1.0" encoding="UTF-8"?>
<svg id="Layer_2" data-name="Layer 2" xmlns="http://www.w3.org/2000/svg" viewBox="0 0 141.3 147.93">
  <defs>
    <style>
      .cls-1 {
        fill: #fff;
      }
    </style>
  </defs>
  <g id="Layer_1-2" data-name="Layer 1">
    <g>
      <path class="cls-1" d="m13.2,13.14c-3.1,2.83-7.91,2.65-10.71-.43C-.32,9.64-.07,4.84,3.03,2.01c3.11-2.84,7.9-2.64,10.7.42,2.83,3.09,2.57,7.88-.53,10.71"/>
      <path class="cls-1" d="m28.45,29.84c-3.1,2.83-7.9,2.64-10.71-.44-2.81-3.07-2.56-7.87.54-10.7,3.11-2.83,7.91-2.64,10.7.42,2.83,3.09,2.57,7.89-.53,10.72"/>
      <path class="cls-1" d="m43.7,46.53c-3.1,2.83-7.91,2.64-10.71-.44-2.81-3.06-2.57-7.86.55-10.69,3.1-2.84,7.89-2.64,10.69.42,2.82,3.09,2.57,7.88-.54,10.71"/>
      <path class="cls-1" d="m58.96,63.23c-3.1,2.83-7.91,2.64-10.71-.44-2.81-3.07-2.57-7.87.54-10.69,3.1-2.84,7.89-2.65,10.7.41,2.82,3.09,2.57,7.89-.54,10.72"/>
      <path class="cls-1" d="m75.11,79.51c-3.1,2.83-7.91,2.64-10.71-.43-2.82-3.07-2.57-7.87.54-10.7,3.1-2.84,7.89-2.65,10.7.42,2.82,3.09,2.57,7.88-.54,10.71"/>
      <path class="cls-1" d="m48.63,95.79c-3.09-2.85-3.31-7.65-.48-10.73,2.83-3.07,7.65-3.24,10.73-.39,3.1,2.84,3.31,7.65.49,10.71-2.84,3.09-7.65,3.26-10.74.41"/>
      <path class="cls-1" d="m33.24,112.5c-3.09-2.85-3.31-7.65-.47-10.73,2.82-3.07,7.64-3.25,10.72-.4,3.1,2.84,3.31,7.65.49,10.71-2.84,3.09-7.65,3.26-10.74.42"/>
      <path class="cls-1" d="m17.85,129.2c-3.09-2.85-3.3-7.65-.47-10.73,2.83-3.07,7.65-3.25,10.73-.4,3.11,2.85,3.31,7.65.49,10.72-2.83,3.08-7.65,3.26-10.74.41"/>
      <path class="cls-1" d="m2.47,145.9c-3.1-2.85-3.31-7.65-.48-10.73,2.83-3.07,7.65-3.25,10.73-.4,3.11,2.84,3.31,7.65.49,10.72-2.83,3.09-7.65,3.26-10.73.41"/>
      <path class="cls-1" d="m76.9,13.14c-3.1,2.83-7.91,2.65-10.71-.43-2.81-3.07-2.56-7.87.55-10.7,3.1-2.84,7.89-2.64,10.7.42,2.82,3.09,2.56,7.88-.54,10.71"/>
      <path class="cls-1" d="m92.15,29.84c-3.1,2.83-7.91,2.64-10.71-.44-2.82-3.07-2.57-7.87.54-10.7,3.1-2.83,7.9-2.64,10.7.42,2.81,3.09,2.57,7.89-.54,10.72"/>
      <path class="cls-1" d="m107.41,46.53c-3.1,2.83-7.91,2.64-10.71-.44-2.81-3.06-2.57-7.86.54-10.69,3.1-2.84,7.9-2.64,10.7.42,2.81,3.09,2.57,7.88-.53,10.71"/>
      <path class="cls-1" d="m122.66,63.23c-3.1,2.83-7.91,2.64-10.71-.44-2.81-3.07-2.56-7.87.54-10.69,3.1-2.84,7.9-2.65,10.7.41,2.82,3.09,2.57,7.89-.53,10.72"/>
      <path class="cls-1" d="m138.81,79.51c-3.1,2.83-7.91,2.64-10.71-.43-2.81-3.07-2.57-7.87.54-10.7,3.1-2.84,7.89-2.65,10.7.42,2.82,3.09,2.57,7.88-.54,10.71"/>
      <path class="cls-1" d="m112.33,95.79c-3.09-2.85-3.31-7.65-.47-10.73,2.82-3.07,7.64-3.24,10.72-.39,3.1,2.84,3.31,7.65.49,10.71-2.84,3.09-7.65,3.26-10.74.41"/>
      <path class="cls-1" d="m96.94,112.5c-3.09-2.85-3.3-7.65-.47-10.73,2.83-3.07,7.65-3.25,10.73-.4,3.11,2.84,3.32,7.65.49,10.71-2.84,3.09-7.65,3.26-10.74.42"/>
      <path class="cls-1" d="m81.55,129.2c-3.09-2.85-3.3-7.65-.47-10.73,2.83-3.07,7.65-3.25,10.73-.4,3.1,2.85,3.32,7.65.49,10.72-2.83,3.08-7.65,3.26-10.74.41"/>
      <path class="cls-1" d="m66.17,145.9c-3.1-2.85-3.31-7.65-.47-10.73,2.83-3.07,7.65-3.25,10.72-.4,3.11,2.84,3.32,7.65.49,10.72-2.83,3.09-7.65,3.26-10.73.41"/>
    </g>
  </g>
</svg>